<svg width="19" height="22" viewBox="0 0 19 22" fill="none" xmlns="http://www.w3.org/2000/svg">
<g clip-path="url(#clip0_245_2831)">
<path d="M9.31446 4.4619C10.4961 4.4619 11.4434 3.51463 11.4434 2.34276C11.4434 1.16112 10.4961 0.213852 9.31446 0.213852C8.13282 0.213852 7.18556 1.16112 7.18556 2.34276C7.18556 3.51463 8.13282 4.4619 9.31446 4.4619ZM9.31446 13.6319C9.72462 13.6319 9.9004 13.8858 10.1152 14.6084C10.4277 15.5752 11.4629 19.6768 11.7559 20.8877C11.8926 21.4932 12.2246 21.7471 12.6836 21.7471C13.3086 21.7471 13.6797 21.1807 13.5137 20.5655C13.4453 20.3018 12.0195 14.3838 11.834 13.1631C11.6484 11.9131 11.6387 9.18846 11.6387 8.34862C11.6387 7.76268 11.9121 7.39158 12.3906 7.28416C12.8496 7.17674 16.5801 6.77635 17.0879 6.61033C17.5078 6.48338 17.8008 6.14158 17.8008 5.69237C17.8008 5.12596 17.3711 4.78416 16.9707 4.78416C16.8047 4.78416 16.6484 4.82323 16.4727 4.86229C14.9492 5.13573 11.6582 5.48729 9.31446 5.48729C6.99024 5.48729 3.6797 5.15526 2.15626 4.86229C1.99024 4.82323 1.82423 4.78416 1.66798 4.78416C1.24805 4.78416 0.837898 5.12596 0.837898 5.69237C0.837898 6.14158 1.11134 6.52244 1.54102 6.61033C2.07813 6.72752 5.77931 7.19627 6.23829 7.28416C6.71681 7.37205 7.00001 7.76268 7.00978 8.34862C7.01954 9.18846 6.99024 11.9131 6.79493 13.1631C6.59962 14.3838 5.1836 20.3018 5.11524 20.5655C4.93946 21.1807 5.32032 21.7471 5.94532 21.7471C6.40431 21.7471 6.71681 21.4932 6.88282 20.8877C7.21485 19.6866 8.20118 15.5948 8.53321 14.6084C8.75782 13.9053 8.91407 13.6319 9.31446 13.6319Z" fill="currentColor" stroke="none" fill-opacity="context-fill-opacity"/>
</g>
<defs>
<clipPath id="clip0_245_2831">
<rect width="17.3242" height="21.5723" fill="white" style="fill:white;fill-opacity:1;" transform="translate(0.837898 0.213852)"/>
</clipPath>
</defs>
</svg>
