<svg width="17" height="22" viewBox="0 0 17 22" fill="none" xmlns="http://www.w3.org/2000/svg">
<g clip-path="url(#clip0_245_2815)">
<path d="M3.1045 21.4638H15.751C16.1807 21.4638 16.5323 21.122 16.5323 20.6826C16.5323 20.3408 16.2979 20.0381 15.9854 19.9306C14.7549 19.4423 14.501 17.8506 15.712 16.6299C16.0831 16.2588 16.5323 15.7802 16.5323 14.8037V3.60256C16.5323 1.57131 15.5264 0.536148 13.5049 0.536148H3.13379C1.11231 0.536148 0.106453 1.56154 0.106453 3.60256V18.4463C0.106453 20.458 1.12207 21.4638 3.1045 21.4638ZM1.67872 15.8193V3.63185C1.67872 2.65529 2.19629 2.10842 3.20215 2.10842H13.4268C14.4424 2.10842 14.96 2.65529 14.96 3.63185V14.5888C14.96 15.1162 14.6573 15.4189 14.1104 15.4189H3.27051C2.63575 15.4189 2.1084 15.5556 1.67872 15.8193ZM3.19239 19.8916C2.20606 19.8916 1.67872 19.3642 1.67872 18.4365C1.67872 17.5576 2.30372 16.9912 3.28028 16.9912H13.2999C13.4268 16.9912 13.544 16.9814 13.6417 16.9619C13.1827 17.9775 13.2608 19.0517 13.7784 19.8916H3.19239ZM2.83106 16.2588H4.11036V1.72756H2.83106V16.2588ZM6.78614 12.7431C7.08887 12.7431 7.30372 12.5966 7.44043 12.206L8.05567 10.4092H11.0733L11.6885 12.206C11.8155 12.5966 12.0303 12.7431 12.3428 12.7431C12.7139 12.7431 12.9581 12.5088 12.9581 12.1572C12.9581 12.0302 12.9385 11.9033 12.8702 11.7275L10.5069 5.3506C10.3409 4.91115 10.0186 4.68654 9.55957 4.68654C9.10059 4.68654 8.78809 4.91115 8.62207 5.3506L6.24903 11.7275C6.19043 11.9033 6.16114 12.0302 6.16114 12.1572C6.16114 12.5088 6.40528 12.7431 6.78614 12.7431ZM8.3877 9.39357L9.52051 6.13185H9.6084L10.7315 9.39357H8.3877Z" fill="currentColor" stroke="none" fill-opacity="context-fill-opacity"/>
</g>
<defs>
<clipPath id="clip0_245_2815">
<rect width="16.7871" height="20.9277" fill="white" style="fill:white;fill-opacity:1;" transform="translate(0.106453 0.536148)"/>
</clipPath>
</defs>
</svg>
