<svg width="17" height="20" viewBox="0 0 17 20" fill="none" xmlns="http://www.w3.org/2000/svg">
<g clip-path="url(#clip0_245_3089)">
<path d="M8.31934 0.776352C7.81153 0.776352 7.4502 1.12791 7.4502 1.63573V14.4971L7.54786 17.4073L8.09473 17.2119L4.59864 13.3741L2.37208 11.1866C2.22559 11.0303 1.99122 10.9522 1.75684 10.9522C1.26856 10.9522 0.917 11.3233 0.917 11.8018C0.917 12.0362 1.00489 12.2412 1.19044 12.4366L7.66505 18.9307C7.85059 19.126 8.0752 19.2237 8.31934 19.2237C8.56348 19.2237 8.78809 19.126 8.97364 18.9307L15.458 12.4366C15.6436 12.2412 15.7217 12.0362 15.7217 11.8018C15.7217 11.3233 15.3701 10.9522 14.8818 10.9522C14.6475 10.9522 14.4229 11.0303 14.2666 11.1866L12.04 13.3741L8.53419 17.2119L9.09083 17.4073L9.18848 14.4971V1.63573C9.18848 1.12791 8.82716 0.776352 8.31934 0.776352Z" fill="currentColor" stroke="none" fill-opacity="context-fill-opacity"/>
</g>
<defs>
<clipPath id="clip0_245_3089">
<rect width="15.166" height="18.4473" fill="white" style="fill:white;fill-opacity:1;" transform="translate(0.917 0.776352)"/>
</clipPath>
</defs>
</svg>
