<svg width="19" height="16" viewBox="0 0 19 16" fill="none" xmlns="http://www.w3.org/2000/svg">
<g clip-path="url(#clip0_245_3081)">
<path d="M18.3868 7.99508C18.3868 7.75094 18.2891 7.52633 18.0938 7.34079L11.6192 0.885712C11.4043 0.670868 11.1993 0.592743 10.9649 0.592743C10.4864 0.592743 10.1152 0.944305 10.1152 1.43259C10.1152 1.66696 10.1934 1.89157 10.3497 2.04782L12.5372 4.27438L16.4141 7.80954L16.6094 7.32126L13.4649 7.12594H1.11133C0.603515 7.12594 0.251953 7.48727 0.251953 7.99508C0.251953 8.5029 0.603515 8.86422 1.11133 8.86422H13.4649L16.6094 8.66891L16.4141 8.1904L12.5372 11.7157L10.3497 13.9423C10.1934 14.0888 10.1152 14.3232 10.1152 14.5575C10.1152 15.0458 10.4864 15.3974 10.9649 15.3974C11.1993 15.3974 11.4043 15.3095 11.5997 15.1239L18.0938 8.64938C18.2891 8.46383 18.3868 8.23922 18.3868 7.99508Z" fill="currentColor" stroke="none" fill-opacity="context-fill-opacity"/>
</g>
<defs>
<clipPath id="clip0_245_3081">
<rect width="18.4961" height="14.8145" fill="white" style="fill:white;fill-opacity:1;" transform="translate(0.251953 0.592743)"/>
</clipPath>
</defs>
</svg>
