<svg width="17" height="20" viewBox="0 0 17 20" fill="none" xmlns="http://www.w3.org/2000/svg">
<g clip-path="url(#clip0_245_3085)">
<path d="M8.31934 19.2237C8.82716 19.2237 9.18848 18.8721 9.18848 18.3643V5.50291L9.09083 2.59276L8.53419 2.78807L12.04 6.62596L14.2666 8.81346C14.4229 8.96971 14.6475 9.04783 14.8818 9.04783C15.3701 9.04783 15.7217 8.67674 15.7217 8.19823C15.7217 7.96385 15.6436 7.75877 15.458 7.56346L8.97364 1.06932C8.78809 0.874008 8.56348 0.776352 8.31934 0.776352C8.0752 0.776352 7.85059 0.874008 7.66505 1.06932L1.19044 7.56346C1.00489 7.75877 0.917 7.96385 0.917 8.19823C0.917 8.67674 1.26856 9.04783 1.75684 9.04783C1.99122 9.04783 2.22559 8.96971 2.37208 8.81346L4.59864 6.62596L8.09473 2.78807L7.54786 2.59276L7.4502 5.50291V18.3643C7.4502 18.8721 7.81153 19.2237 8.31934 19.2237Z" fill="currentColor" stroke="none" fill-opacity="context-fill-opacity"/>
</g>
<defs>
<clipPath id="clip0_245_3085">
<rect width="15.166" height="18.4473" fill="white" style="fill:white;fill-opacity:1;" transform="translate(0.917 0.776352)"/>
</clipPath>
</defs>
</svg>
