<svg width="33" height="24" viewBox="0 0 33 24" fill="none" xmlns="http://www.w3.org/2000/svg">
<g clip-path="url(#clip0_245_3038)">
<path d="M16.9688 1.64357L18.3164 16.8779L19.5469 6.20412C19.6348 5.50099 20.6211 5.48146 20.7285 6.19435L22.1055 15.1885L23.3067 9.48537C23.4532 8.83107 24.3028 8.83107 24.4785 9.48537L25.2598 12.5127H27.6035C27.9942 12.5127 28.2969 12.8252 28.2969 13.2061C28.2969 13.5869 27.9942 13.8897 27.6035 13.8897H24.8301C24.5664 13.8897 24.3418 13.7725 24.2539 13.4502L23.9548 12.2653L22.5938 18.5674C22.4668 19.1631 21.5098 19.1631 21.4219 18.5674L20.2305 10.7256L18.834 22.7959C18.7461 23.5283 17.711 23.5283 17.6524 22.7959L16.3633 8.40138L15.084 22.8057C15.0254 23.5186 13.9903 23.5283 13.9024 22.8057L12.5059 10.7256L12.01 13.9856C11.7402 13.5002 11.4055 13.0555 11.0176 12.6627L12.0078 6.19435C12.1153 5.48146 13.1016 5.48146 13.1895 6.20412L14.42 16.8779L15.7676 1.64357C15.836 0.911148 16.9004 0.911148 16.9688 1.64357ZM9.42967 9.48537L9.90858 11.7592C9.30085 11.3608 8.61914 11.0695 7.89015 10.91L8.25779 9.48537C8.42381 8.8799 9.29295 8.8799 9.42967 9.48537Z" fill="currentColor" stroke="none" fill-opacity="context-fill-opacity"/>
<path d="M11.4903 17.044C11.4903 19.7588 9.21483 22.0049 6.52928 22.0049C3.80467 22.0049 1.56834 19.7783 1.56834 17.044C1.56834 14.3291 3.80467 12.083 6.52928 12.083C9.24412 12.083 11.4903 14.3291 11.4903 17.044ZM5.92381 14.544V16.4483H4.01951C3.65818 16.4483 3.42381 16.6826 3.42381 17.044C3.42381 17.4151 3.65818 17.6494 4.01951 17.6494H5.92381V19.5537C5.92381 19.9151 6.15818 20.1494 6.52928 20.1494C6.89061 20.1494 7.12498 19.9151 7.12498 19.5537V17.6494H9.02928C9.39061 17.6494 9.63475 17.4151 9.63475 17.044C9.63475 16.6826 9.39061 16.4483 9.02928 16.4483H7.12498V14.544C7.12498 14.1826 6.89061 13.9385 6.52928 13.9385C6.15818 13.9385 5.92381 14.1826 5.92381 14.544Z" fill="currentColor" stroke="none" fill-opacity="context-fill-opacity"/>
</g>
<defs>
<clipPath id="clip0_245_3038">
<rect width="32.5391" height="22.6904" fill="white" style="fill:white;fill-opacity:1;" transform="translate(0.230453 0.6548)"/>
</clipPath>
</defs>
</svg>
