<svg width="25" height="20" viewBox="0 0 25 20" fill="none" xmlns="http://www.w3.org/2000/svg">
<g clip-path="url(#clip0_245_2843)">
<path d="M12.3242 19.9561C17.8222 19.9561 22.2851 15.4834 22.2851 9.99515C22.2851 4.4971 17.8222 0.0342102 12.3242 0.0342102C6.82617 0.0342102 2.36327 4.4971 2.36327 9.99515H3.4082L1.57226 7.38773C1.41601 7.16312 1.1914 7.01663 0.89843 7.01663C0.449211 7.01663 0.0976486 7.3389 0.0976486 7.78812C0.0976486 7.98343 0.156242 8.16898 0.27343 8.31546L2.33398 10.8447C2.63671 11.2354 2.89062 11.3721 3.28124 11.3721C3.53515 11.3721 3.73046 11.3037 3.9746 11.128L6.52343 9.24319C6.73827 9.08694 6.85546 8.85257 6.85546 8.59866C6.85546 8.13968 6.49413 7.80765 6.08398 7.80765C5.89843 7.80765 5.73242 7.86624 5.58593 7.97366L3.00781 9.99515H4.02343C4.02343 5.4053 7.73437 1.69437 12.3242 1.69437C16.914 1.69437 20.6249 5.4053 20.6249 9.99515C20.6249 14.585 16.914 18.2959 12.3242 18.2959C9.2871 18.2959 7.11913 16.6846 6.05468 15.4444C5.83984 15.1904 5.58593 15.0928 5.34179 15.0928C4.9414 15.0928 4.57031 15.4053 4.57031 15.8545C4.57031 16.0791 4.63867 16.3233 4.85351 16.5772C5.96679 17.8858 8.55468 19.9561 12.3242 19.9561Z" fill="currentColor" stroke="none" fill-opacity="context-fill-opacity"/>
<path d="M9.81445 13.1983C9.81445 13.6377 10.3027 13.8428 10.7324 13.5889L15.957 10.4932C16.3378 10.2686 16.3281 9.73149 15.957 9.50688L10.7324 6.41117C10.332 6.1768 9.81445 6.35258 9.81445 6.8018V13.1983Z" fill="currentColor" stroke="none" fill-opacity="context-fill-opacity"/>
</g>
<defs>
<clipPath id="clip0_245_2843">
<rect width="24.8047" height="19.9316" fill="white" style="fill:white;fill-opacity:1;" transform="translate(0.0976486 0.0342102)"/>
</clipPath>
</defs>
</svg>
