<svg width="19" height="16" viewBox="0 0 19 16" fill="none" xmlns="http://www.w3.org/2000/svg">
<g clip-path="url(#clip0_249_3165)">
<path d="M0.251953 7.99508C0.251953 8.23922 0.359375 8.46383 0.554687 8.64938L7.03906 15.1239C7.23437 15.3095 7.43945 15.3974 7.67383 15.3974C8.15234 15.3974 8.5332 15.0458 8.5332 14.5575C8.5332 14.3232 8.44531 14.0888 8.28906 13.9423L6.10156 11.7157L2.23437 8.1904L2.02929 8.66891L5.17383 8.86422H17.5274C18.0352 8.86422 18.3868 8.5029 18.3868 7.99508C18.3868 7.48727 18.0352 7.12594 17.5274 7.12594H5.17383L2.02929 7.32126L2.23437 7.80954L6.10156 4.27438L8.28906 2.04782C8.44531 1.89157 8.5332 1.66696 8.5332 1.43259C8.5332 0.944305 8.15234 0.592743 7.67383 0.592743C7.43945 0.592743 7.23437 0.670868 7.01953 0.885712L0.554687 7.34079C0.359375 7.52633 0.251953 7.75094 0.251953 7.99508Z" fill="currentColor" stroke="none" fill-opacity="context-fill-opacity"/>
</g>
<defs>
<clipPath id="clip0_249_3165">
<rect width="18.4961" height="14.8145" fill="white" style="fill:white;fill-opacity:1;" transform="translate(0.251953 0.592743)"/>
</clipPath>
</defs>
</svg>
