<svg width="15" height="22" viewBox="0 0 15 22" fill="none" xmlns="http://www.w3.org/2000/svg">
<g clip-path="url(#clip0_245_2819)">
<path d="M1.77246 21.4541C2.25097 21.4541 2.53418 21.1806 3.41308 20.331L7.23144 16.5713C7.28027 16.5224 7.36816 16.5224 7.40722 16.5713L11.2256 20.331C12.1045 21.1806 12.3877 21.4541 12.8662 21.4541C13.5205 21.4541 13.9014 21.0244 13.9014 20.2627V3.30957C13.9014 1.4541 12.9736 0.506836 11.1377 0.506836H3.50097C1.66503 0.506836 0.737297 1.4541 0.737297 3.30957V20.2627C0.737297 21.0244 1.11816 21.4541 1.77246 21.4541ZM2.57324 18.8173C2.43652 18.9541 2.28027 18.915 2.28027 18.7197V3.32911C2.28027 2.48926 2.71972 2.04981 3.5791 2.04981H11.0693C11.9189 2.04981 12.3584 2.48926 12.3584 3.32911V18.7197C12.3584 18.915 12.2119 18.9541 12.0654 18.8173L7.83691 14.7158C7.52441 14.413 7.11425 14.413 6.80175 14.7158L2.57324 18.8173Z" fill="currentColor" stroke="none" fill-opacity="context-fill-opacity"/>
</g>
<defs>
<clipPath id="clip0_245_2819">
<rect width="13.5254" height="20.9863" fill="white" style="fill:white;fill-opacity:1;" transform="translate(0.737297 0.506836)"/>
</clipPath>
</defs>
</svg>
