<svg width="23" height="24" viewBox="0 0 23 24" fill="none" xmlns="http://www.w3.org/2000/svg">
<g clip-path="url(#clip0_344_3424)">
<path d="M4.63474 21.4874C5.03514 21.7999 5.54295 21.6925 6.14842 21.253L11.3144 17.4542L16.4902 21.253C17.0956 21.6925 17.5937 21.7999 18.0038 21.4874C18.4042 21.1846 18.4921 20.6866 18.248 19.9737L16.207 13.8995L21.4218 10.1494C22.0273 9.71976 22.2714 9.27054 22.1152 8.78226C21.9589 8.31351 21.4999 8.07913 20.748 8.0889L14.3515 8.12796L12.4081 2.02444C12.1738 1.30179 11.8222 0.94046 11.3144 0.94046C10.8163 0.94046 10.4648 1.30179 10.2304 2.02444L8.28709 8.12796L1.8906 8.0889C1.13865 8.07913 0.679665 8.31351 0.523415 8.78226C0.357399 9.27054 0.611305 9.71976 1.21677 10.1494L6.43162 13.8995L4.3906 19.9737C4.14646 20.6866 4.23435 21.1846 4.63474 21.4874ZM6.04099 19.5538C6.02146 19.5343 6.03123 19.5245 6.04099 19.4659L7.98435 13.88C8.12107 13.4991 8.04295 13.1964 7.70115 12.962L2.83787 9.60257C2.78904 9.57327 2.77928 9.55374 2.78904 9.52444C2.79881 9.49515 2.81834 9.49515 2.87693 9.49515L8.78514 9.60257C9.18553 9.61234 9.43943 9.44632 9.56639 9.04593L11.2656 3.39163C11.2753 3.33304 11.2949 3.31351 11.3144 3.31351C11.3437 3.31351 11.3632 3.33304 11.373 3.39163L13.0722 9.04593C13.1991 9.44632 13.4531 9.61234 13.8534 9.60257L19.7616 9.49515C19.8202 9.49515 19.8398 9.49515 19.8495 9.52444C19.8593 9.55374 19.8398 9.57327 19.8007 9.60257L14.9374 12.962C14.5956 13.1964 14.5175 13.4991 14.6542 13.88L16.5976 19.4659C16.6074 19.5245 16.6171 19.5343 16.5976 19.5538C16.5781 19.5831 16.5488 19.5635 16.5097 19.5343L11.8124 15.9503C11.4999 15.7061 11.1386 15.7061 10.8261 15.9503L6.12889 19.5343C6.08982 19.5635 6.06053 19.5831 6.04099 19.5538Z" fill="currentColor" stroke="none" fill-opacity="context-fill-opacity"/>
</g>
<defs>
<clipPath id="clip0_344_3424">
<rect width="22.0527" height="22.1191" fill="white" style="fill:white;fill-opacity:1;" transform="translate(0.473648 0.94046)"/>
</clipPath>
</defs>
</svg>
