<svg width="25" height="20" viewBox="0 0 25 20" fill="none" xmlns="http://www.w3.org/2000/svg">
<g clip-path="url(#clip0_245_2920)">
<path d="M19.7119 7.86621C20.3759 7.86621 20.9228 7.31934 20.9228 6.65528C20.9228 5.98145 20.3759 5.44434 19.7119 5.44434C19.038 5.44434 18.5009 5.98145 18.5009 6.65528C18.5009 7.31934 19.038 7.86621 19.7119 7.86621ZM3.39356 18.999H21.2451C23.2763 18.999 24.3115 17.9834 24.3115 15.9717V5.74707C24.3115 3.73536 23.2763 2.7295 21.2451 2.7295H18.4521C17.6806 2.7295 17.4462 2.57325 17.0068 2.08496L16.2255 1.20605C15.7373 0.668946 15.2392 0.375977 14.2333 0.375977H10.3369C9.33106 0.375977 8.83301 0.668946 8.34473 1.20605L7.56348 2.08496C7.12403 2.56348 6.87988 2.7295 6.11817 2.7295H3.39356C1.35254 2.7295 0.327148 3.73536 0.327148 5.74707V15.9717C0.327148 17.9834 1.35254 18.999 3.39356 18.999ZM3.41309 17.4268C2.45606 17.4268 1.89942 16.9092 1.89942 15.8936V5.83496C1.89942 4.81934 2.45606 4.30176 3.41309 4.30176H6.50879C7.3877 4.30176 7.86621 4.13575 8.35449 3.58887L9.11621 2.7295C9.67285 2.1045 9.96582 1.94825 10.8251 1.94825H13.7451C14.6044 1.94825 14.8974 2.1045 15.4541 2.7295L16.2158 3.58887C16.7041 4.13575 17.1826 4.30176 18.0615 4.30176H21.2158C22.1826 4.30176 22.7392 4.81934 22.7392 5.83496V15.8936C22.7392 16.9092 22.1826 17.4268 21.2158 17.4268H3.41309ZM12.3193 16.0205C15.2685 16.0205 17.6416 13.6572 17.6416 10.6787C17.6416 7.70996 15.2783 5.34668 12.3193 5.34668C9.36035 5.34668 6.98731 7.70996 6.98731 10.6787C6.98731 13.6572 9.36035 16.0205 12.3193 16.0205ZM12.3193 14.5362C10.2002 14.5362 8.46192 12.8272 8.46192 10.6787C8.46192 8.54004 10.1904 6.82129 12.3193 6.82129C14.4482 6.82129 16.1669 8.54004 16.1669 10.6787C16.1669 12.8272 14.4482 14.5362 12.3193 14.5362Z" fill="currentColor" stroke="none" fill-opacity="context-fill-opacity"/>
</g>
<defs>
<clipPath id="clip0_245_2920">
<rect width="24.3457" height="19.248" fill="white" style="fill:white;fill-opacity:1;" transform="translate(0.327148 0.375977)"/>
</clipPath>
</defs>
</svg>
