<svg width="21" height="20" viewBox="0 0 21 20" fill="none" xmlns="http://www.w3.org/2000/svg">
<path d="M8.59445 15.8333H16.3333C17.5611 15.8333 18.5556 14.8389 18.5556 13.6111V6.38888C18.5556 6.23555 18.54 6.08555 18.51 5.9411" stroke="#482615" style="stroke:#482615;stroke:color(display-p3 0.2824 0.1490 0.0824);stroke-opacity:1;" stroke-width="1.66667" stroke-linecap="round" stroke-linejoin="round"/>
<path d="M16.3333 4.16668H13.8333L13.27 2.66557C13.1078 2.23224 12.6933 1.94446 12.23 1.94446H8.77C8.30666 1.94446 7.89222 2.23224 7.73 2.66557L7.16666 4.16668H4.66666C3.43889 4.16668 2.44444 5.16112 2.44444 6.3889V13.6111C2.44444 14.8389 3.43889 15.8333 4.66666 15.8333" stroke="#482615" style="stroke:#482615;stroke:color(display-p3 0.2824 0.1490 0.0824);stroke-opacity:1;" stroke-width="1.66667" stroke-linecap="round" stroke-linejoin="round"/>
<path d="M8.33889 12.1611C7.78555 11.6078 7.44444 10.8445 7.44444 10C7.44444 8.31224 8.81222 6.94446 10.5 6.94446C11.3433 6.94446 12.1078 7.28668 12.6611 7.8389" stroke="#482615" style="stroke:#482615;stroke:color(display-p3 0.2824 0.1490 0.0824);stroke-opacity:1;" stroke-width="1.66667" stroke-linecap="round" stroke-linejoin="round"/>
<path d="M5.22222 7.77778C5.68246 7.77778 6.05556 7.40469 6.05556 6.94445C6.05556 6.48421 5.68246 6.11111 5.22222 6.11111C4.76199 6.11111 4.38889 6.48421 4.38889 6.94445C4.38889 7.40469 4.76199 7.77778 5.22222 7.77778Z" fill="currentColor" stroke="none" fill-opacity="context-fill-opacity"/>
<path d="M2.72222 17.7778L18.2778 2.22223" stroke="#482615" style="stroke:#482615;stroke:color(display-p3 0.2824 0.1490 0.0824);stroke-opacity:1;" stroke-width="1.66667" stroke-linecap="round" stroke-linejoin="round"/>
</svg>
