<svg width="29" height="22" viewBox="0 0 29 22" fill="none" xmlns="http://www.w3.org/2000/svg">
<g clip-path="url(#clip0_245_2792)">
<path d="M0.935558 18.5342C1.8047 21.3857 6.12111 21.8447 10.7891 19.6963L10.2813 18.6221C6.34571 20.4482 2.68361 20.2139 2.07814 18.1924C0.535168 13.1435 11.3946 12.5771 10.1445 8.32906C9.51954 6.23921 4.69532 6.58101 1.24806 8.90523C0.554699 9.35445 1.21876 10.3505 1.90236 9.88179C4.40236 8.22163 8.66993 7.56734 9.00196 8.66109C9.24611 9.4814 8.56251 10.0869 5.8672 11.5908C3.24025 13.0459 -0.148426 14.9697 0.935558 18.5342Z" fill="currentColor" stroke="none" fill-opacity="context-fill-opacity"/>
<path d="M14.7832 17.8896L25.1738 7.50876L23.4648 5.79001L13.0742 16.1709L12.1464 18.3389C12.0488 18.5732 12.2929 18.8467 12.5371 18.749L14.7832 17.8896ZM26.0332 6.66892L27.0195 5.70212C27.5175 5.20408 27.5468 4.66697 27.0976 4.21775L26.7656 3.88572C26.3164 3.44626 25.7793 3.48533 25.291 3.97361L24.2949 4.95017L26.0332 6.66892Z" fill="currentColor" stroke="none" fill-opacity="context-fill-opacity"/>
</g>
<defs>
<clipPath id="clip0_245_2792">
<rect width="27.5439" height="20.0788" fill="white" style="fill:white;fill-opacity:1;" transform="translate(0.72805 0.960571)"/>
</clipPath>
</defs>
</svg>
