<svg width="19" height="18" viewBox="0 0 19 18" fill="none" xmlns="http://www.w3.org/2000/svg">
<g clip-path="url(#clip0_245_3065)">
<path d="M7.27344 17.6181C7.69336 17.6181 8.02539 17.4326 8.25977 17.0713L17.4883 2.54004C17.6641 2.25684 17.7325 2.042 17.7325 1.81739C17.7325 1.28027 17.3808 0.928711 16.8438 0.928711C16.4531 0.928711 16.2382 1.05566 16.004 1.42676L7.23437 15.4013L2.68359 9.44434C2.43945 9.10254 2.19531 8.96582 1.84375 8.96582C1.28711 8.96582 0.90625 9.34668 0.90625 9.88379C0.90625 10.1084 1.00391 10.3623 1.18945 10.5966L6.25781 17.0517C6.55078 17.4326 6.85352 17.6181 7.27344 17.6181Z" fill="currentColor" stroke="none" fill-opacity="context-fill-opacity"/>
</g>
<defs>
<clipPath id="clip0_245_3065">
<rect width="17.1875" height="17.2363" fill="white" style="fill:white;fill-opacity:1;" transform="translate(0.90625 0.381836)"/>
</clipPath>
</defs>
</svg>
