<svg width="13" height="18" viewBox="0 0 13 18" fill="none" xmlns="http://www.w3.org/2000/svg">
<g clip-path="url(#clip0_245_3073)">
<path d="M12.3448 8.99511C12.3448 8.75097 12.2471 8.52636 12.0615 8.35058L4.32713 0.772461C4.15134 0.606445 3.9365 0.518555 3.68259 0.518555C3.18455 0.518555 2.79392 0.899414 2.79392 1.40723C2.79392 1.65136 2.89158 1.87597 3.04783 2.04199L10.1572 8.99511L3.04783 15.9483C2.89158 16.1143 2.79392 16.3291 2.79392 16.5831C2.79392 17.0909 3.18455 17.4717 3.68259 17.4717C3.9365 17.4717 4.15134 17.3838 4.32713 17.2081L12.0615 9.63964C12.2471 9.4541 12.3448 9.23925 12.3448 8.99511Z" fill="currentColor" stroke="none" fill-opacity="context-fill-opacity"/>
</g>
<defs>
<clipPath id="clip0_245_3073">
<rect width="11.6895" height="16.9629" fill="white" style="fill:white;fill-opacity:1;" transform="translate(0.655251 0.518555)"/>
</clipPath>
</defs>
</svg>
