<svg width="17" height="16" viewBox="0 0 17 16" fill="none" xmlns="http://www.w3.org/2000/svg">
<g clip-path="url(#clip0_245_3061)">
<path d="M0.8291 15.4951C1.1709 15.8272 1.7373 15.8272 2.06933 15.4951L8.31933 9.24513L14.5693 15.4951C14.9014 15.8272 15.4775 15.8369 15.8096 15.4951C16.1416 15.1533 16.1416 14.5967 15.8096 14.2647L9.55957 8.0049L15.8096 1.7549C16.1416 1.42287 16.1514 0.856458 15.8096 0.524427C15.4678 0.18263 14.9014 0.18263 14.5693 0.524427L8.31933 6.77443L2.06933 0.524427C1.7373 0.18263 1.16113 0.172864 0.8291 0.524427C0.497068 0.866224 0.497068 1.42287 0.8291 1.7549L7.0791 8.0049L0.8291 14.2647C0.497068 14.5967 0.487303 15.1631 0.8291 15.4951Z" fill="currentColor" stroke="none" fill-opacity="context-fill-opacity"/>
</g>
<defs>
<clipPath id="clip0_245_3061">
<rect width="15.8472" height="15.4956" fill="white" style="fill:white;fill-opacity:1;" transform="translate(0.576401 0.252197)"/>
</clipPath>
</defs>
</svg>
