<svg width="21" height="20" viewBox="0 0 21 20" fill="none" xmlns="http://www.w3.org/2000/svg">
<g clip-path="url(#clip0_344_3032)">
<path d="M10.3193 19.9561C15.8174 19.9561 20.2803 15.4932 20.2803 9.99512C20.2803 4.49707 15.8174 0.0341797 10.3193 0.0341797C4.82129 0.0341797 0.358398 4.49707 0.358398 9.99512C0.358398 15.4932 4.82129 19.9561 10.3193 19.9561ZM10.3193 18.2959C5.72949 18.2959 2.01856 14.585 2.01856 9.99512C2.01856 5.40527 5.72949 1.69434 10.3193 1.69434C14.9092 1.69434 18.6201 5.40527 18.6201 9.99512C18.6201 14.585 14.9092 18.2959 10.3193 18.2959ZM16.999 16.4307L16.9697 16.3233C16.4912 14.8877 13.9131 13.3154 10.3193 13.3154C6.73535 13.3154 4.15723 14.8877 3.66895 16.3135L3.63965 16.4307C5.39746 18.169 8.41504 19.1846 10.3193 19.1846C12.2334 19.1846 15.2217 18.1787 16.999 16.4307ZM10.3193 11.6553C12.2041 11.6748 13.6689 10.0733 13.6689 7.97363C13.6689 6.00098 12.1943 4.37012 10.3193 4.37012C8.44434 4.37012 6.95996 6.00098 6.96973 7.97363C6.97949 10.0733 8.44434 11.6358 10.3193 11.6553Z" fill="currentColor" stroke="none" fill-opacity="context-fill-opacity"/>
</g>
<defs>
<clipPath id="clip0_344_3032">
<rect width="20.2832" height="19.9316" fill="white" style="fill:white;fill-opacity:1;" transform="translate(0.358398 0.0341797)"/>
</clipPath>
</defs>
</svg>
