<svg width="23" height="24" viewBox="0 0 23 24" fill="none" xmlns="http://www.w3.org/2000/svg">
<g clip-path="url(#clip0_341_1539)">
<path d="M2.16406 22.3858C3.79492 24.0167 5.69921 24.0362 7.30078 22.4346C8.48242 21.253 9.72265 18.4698 10.6406 17.376L12.7207 19.4659C13.4824 20.2374 14.4004 20.2374 15.1426 19.4952L16.4023 18.2256C17.1445 17.4737 17.1445 16.585 16.373 15.8135L8.74609 8.1768C7.97461 7.40531 7.07617 7.39555 6.32421 8.1475L5.06445 9.41703C4.32226 10.1592 4.3125 11.0674 5.08398 11.8389L7.17382 13.919C6.08984 14.837 3.30664 16.0674 2.125 17.2491C0.52343 18.8506 0.533195 20.7647 2.16406 22.3858ZM6.42187 10.2862L7.21289 9.51469C7.46679 9.26078 7.74023 9.25102 7.99414 9.50492L15.0547 16.5557C15.2988 16.8096 15.2988 17.0831 15.0352 17.3467L14.2734 18.1182C14.0195 18.3917 13.7266 18.4014 13.4727 18.128L11.1387 15.7842C10.7773 15.4229 10.3086 15.462 9.89843 15.8624C9.13671 16.6143 7.79882 19.8272 6.24609 21.3702C5.30859 22.3174 4.17578 22.3174 3.19921 21.3506C2.24218 20.3838 2.23242 19.2413 3.17968 18.3038C4.73242 16.7608 7.94531 15.4229 8.69726 14.6612C9.08789 14.2413 9.13671 13.7725 8.77539 13.4209L6.42187 11.0772C6.16796 10.8233 6.16796 10.5401 6.42187 10.2862ZM4.69336 21.087C5.35742 21.087 5.89453 20.5401 5.89453 19.876C5.89453 19.212 5.35742 18.6749 4.69336 18.6749C4.02929 18.6749 3.48242 19.212 3.48242 19.876C3.48242 20.5401 4.02929 21.087 4.69336 21.087ZM16.2656 16.7803L20.9043 12.1417C21.9883 11.0577 21.9687 9.75883 20.8555 8.64555L13.1894 0.969764C12.1641 -0.0556268 10.3867 0.344764 10.0254 1.93656C9.11718 5.88188 9.07812 6.35063 7.58398 8.44047L8.70703 9.56352C10.416 7.32719 10.543 6.23344 11.4805 2.74711C11.6074 2.24906 12.0176 2.12211 12.3496 2.44438L19.6641 9.74906C20.1133 10.1983 20.1133 10.7452 19.6934 11.1651L15.1719 15.6866L16.2656 16.7803ZM14.7227 11.2139C15.2402 11.7315 18.0918 10.1494 19.0781 8.90922L16.9297 6.77055C16.7441 8.49906 15.8457 9.74906 14.7519 10.8428C14.625 10.9698 14.6348 11.126 14.7227 11.2139Z" fill="currentColor" stroke="none" fill-opacity="context-fill-opacity"/>
</g>
<defs>
<clipPath id="clip0_341_1539">
<rect width="21.1354" height="23.2449" fill="white" style="fill:white;fill-opacity:1;" transform="translate(0.932297 0.377563)"/>
</clipPath>
</defs>
</svg>
