<svg width="19" height="22" viewBox="0 0 19 22" fill="none" xmlns="http://www.w3.org/2000/svg">
<g clip-path="url(#clip0_344_3019)">
<path d="M0.10545 16.3662C0.10545 17.0791 0.652325 17.5478 1.58006 17.5478H5.70115C5.77928 19.4326 7.25389 21.083 9.31443 21.083C11.3847 21.083 12.8593 19.4424 12.9374 17.5478H17.0585C17.9765 17.5478 18.5331 17.0791 18.5331 16.3662C18.5331 15.3896 17.5371 14.5107 16.6973 13.6416C16.0528 12.9677 15.877 11.581 15.7989 10.458C15.7304 6.61035 14.7344 4.12989 12.1367 3.19239C11.8047 1.91309 10.7597 0.907227 9.31443 0.907227C7.87889 0.907227 6.8242 1.91309 6.50193 3.19239C3.90428 4.12989 2.90818 6.61035 2.83983 10.458C2.7617 11.581 2.58592 12.9677 1.94139 13.6416C1.09178 14.5107 0.10545 15.3896 0.10545 16.3662ZM1.99998 16.0732V15.956C2.17576 15.6728 2.7617 15.0967 3.26951 14.5302C3.97264 13.749 4.30467 12.4892 4.39256 10.585C4.47068 6.31739 5.74022 4.95996 7.41014 4.50098C7.65428 4.44239 7.791 4.3252 7.80076 4.07129C7.83006 3.05567 8.416 2.34278 9.31443 2.34278C10.2226 2.34278 10.7989 3.05567 10.8378 4.07129C10.8476 4.3252 10.9746 4.44239 11.2188 4.50098C12.8984 4.95996 14.1679 6.31739 14.246 10.585C14.334 12.4892 14.6659 13.749 15.3593 14.5302C15.8769 15.0967 16.4531 15.6728 16.6288 15.956V16.0732H1.99998ZM7.22459 17.5478H11.4141C11.3359 18.876 10.496 19.706 9.31443 19.706C8.14256 19.706 7.29295 18.876 7.22459 17.5478Z" fill="currentColor" stroke="none" fill-opacity="context-fill-opacity"/>
</g>
<defs>
<clipPath id="clip0_344_3019">
<rect width="18.7891" height="20.1855" fill="white" style="fill:white;fill-opacity:1;" transform="translate(0.10545 0.907227)"/>
</clipPath>
</defs>
</svg>
