<svg width="23" height="22" viewBox="0 0 23 22" fill="none" xmlns="http://www.w3.org/2000/svg">
<g clip-path="url(#clip0_344_3023)">
<path d="M6.53178 8.67761C6.45243 9.23329 6.40569 9.86806 6.39257 10.585C6.31444 12.4893 5.97264 13.7491 5.27928 14.5303C4.76171 15.0967 4.18553 15.6728 4.00975 15.956V16.0733H13.9357L15.412 17.5479H14.9375C14.8594 19.4424 13.3848 21.0831 11.3243 21.0831C9.25389 21.0831 7.77928 19.4327 7.70116 17.5479H3.58007C2.6621 17.5479 2.10546 17.0791 2.10546 16.3663C2.10546 15.3897 3.10155 14.5107 3.95116 13.6417C4.59569 12.9678 4.76171 11.5811 4.83983 10.4581C4.86066 9.28566 4.96762 8.24024 5.1812 7.32853L6.53178 8.67761ZM9.2246 17.5479C9.30272 18.876 10.1426 19.7061 11.3243 19.7061C12.4961 19.7061 13.3457 18.876 13.4141 17.5479H9.2246ZM14.1465 3.19238C16.7442 4.12988 17.7305 6.61035 17.8086 10.4581C17.877 11.5811 18.0528 12.9678 18.6973 13.6417C19.5469 14.5107 20.5332 15.3897 20.5332 16.3663C20.5332 16.6413 20.4518 16.8801 20.2977 17.069L16.7708 13.5441C16.4674 12.8045 16.3071 11.8332 16.2559 10.585C16.168 6.31738 14.8985 4.95996 13.2286 4.50098C12.9844 4.44238 12.8477 4.32519 12.8379 4.07129C12.8086 3.05566 12.2227 2.34277 11.3243 2.34277C10.416 2.34277 9.83983 3.05566 9.80077 4.07129C9.791 4.32519 9.66405 4.44238 9.41991 4.50098C9.00412 4.61459 8.61347 4.78326 8.26005 5.0381L7.14921 3.92788C7.53981 3.62208 7.98974 3.37724 8.50194 3.19238C8.83397 1.91309 9.87889 0.907227 11.3243 0.907227C12.7598 0.907227 13.8145 1.91309 14.1465 3.19238Z" fill="currentColor" stroke="none" fill-opacity="context-fill-opacity"/>
<path d="M2.35936 2.88965L19.8985 20.4091C20.1914 20.7119 20.6797 20.7119 20.9629 20.4091C21.2558 20.1162 21.2558 19.6474 20.9629 19.3447L3.43358 1.82519C3.14061 1.53223 2.6621 1.53223 2.35936 1.82519C2.07616 2.1084 2.07616 2.60644 2.35936 2.88965Z" fill="currentColor" stroke="none" fill-opacity="context-fill-opacity"/>
</g>
<defs>
<clipPath id="clip0_344_3023">
<rect width="21.6407" height="21.5479" fill="white" style="fill:white;fill-opacity:1;" transform="translate(0.679649 0.226074)"/>
</clipPath>
</defs>
</svg>
