<svg width="25" height="24" viewBox="0 0 25 24" fill="none" xmlns="http://www.w3.org/2000/svg">
<g clip-path="url(#clip0_245_2947)">
<path d="M0.947271 20.9111L2.64649 22.6201C3.50587 23.4892 4.49219 23.4306 5.41993 22.4052L16.1133 10.6181L15.1465 9.64157L4.53126 21.3213C4.17969 21.7217 3.84766 21.8193 3.37891 21.3506L2.20704 20.1885C1.73829 19.7295 1.84571 19.3877 2.2461 19.0263L13.7207 8.22555L12.7441 7.25876L1.15235 18.1474C0.166021 19.0654 0.0878963 20.042 0.947271 20.9111ZM7.36329 2.71774C6.94337 3.1279 6.91407 3.70407 7.14844 4.09469C7.38282 4.45602 7.8418 4.6904 8.48633 4.52438C9.95118 4.18258 11.4746 4.12399 12.9004 5.06149L12.3145 6.51657C11.9727 7.34665 12.1484 7.93258 12.6856 8.47946L14.9805 10.7939C15.4688 11.2822 15.8789 11.3017 16.4453 11.2041L17.5098 11.0088L18.1738 11.6826L18.1348 12.2392C18.0957 12.7373 18.2227 13.1181 18.7109 13.5967L19.4727 14.3388C19.9512 14.8174 20.5664 14.8467 21.0352 14.3779L23.9453 11.458C24.4141 10.9892 24.3945 10.3935 23.916 9.91501L23.1445 9.15329C22.666 8.67477 22.2949 8.51852 21.8164 8.55758L21.2402 8.60641L20.5957 7.97165L20.8398 6.8486C20.9668 6.28219 20.8106 5.84274 20.2246 5.2568L18.0273 3.0693C14.6875 -0.251007 10.2539 -0.172882 7.36329 2.71774ZM8.85743 3.08883C11.2891 1.31149 14.5801 1.61422 16.8066 3.84079L19.2383 6.2529C19.4727 6.48727 19.5117 6.67282 19.4434 7.01461L19.1211 8.49899L20.625 9.98336L21.6113 9.92477C21.8652 9.91501 21.9434 9.93454 22.1387 10.1299L22.7148 10.706L20.2734 13.1474L19.6973 12.5713C19.502 12.376 19.4727 12.2978 19.4824 12.0342L19.5508 11.0576L18.0566 9.57321L16.5332 9.82711C16.2109 9.89547 16.0645 9.86618 15.8203 9.6318L13.8184 7.62985C13.5645 7.39547 13.5352 7.22946 13.6914 6.85836L14.5703 4.76852C13.0078 3.31344 10.9766 2.68844 8.94532 3.28415C8.78907 3.32321 8.73047 3.19626 8.85743 3.08883Z" fill="currentColor" stroke="none" fill-opacity="context-fill-opacity"/>
</g>
<defs>
<clipPath id="clip0_245_2947">
<rect width="24.2928" height="22.8734" fill="white" style="fill:white;fill-opacity:1;" transform="translate(0.3536 0.563293)"/>
</clipPath>
</defs>
</svg>
