<svg width="21" height="20" viewBox="0 0 21 20" fill="none" xmlns="http://www.w3.org/2000/svg">
<g clip-path="url(#clip0_245_3093)">
<path d="M10.3193 19.9561C15.8174 19.9561 20.2803 15.4932 20.2803 9.99512C20.2803 4.49707 15.8174 0.0341797 10.3193 0.0341797C4.82129 0.0341797 0.358398 4.49707 0.358398 9.99512C0.358398 15.4932 4.82129 19.9561 10.3193 19.9561ZM10.3193 18.2959C5.72949 18.2959 2.01856 14.585 2.01856 9.99512C2.01856 5.40527 5.72949 1.69434 10.3193 1.69434C14.9092 1.69434 18.6201 5.40527 18.6201 9.99512C18.6201 14.585 14.9092 18.2959 10.3193 18.2959Z" fill="currentColor" stroke="none" fill-opacity="context-fill-opacity"/>
<path d="M10.3193 14.917C10.5146 14.917 10.6904 14.8584 10.8857 14.6631L14.0986 11.5576C14.2549 11.4112 14.333 11.2549 14.333 11.0401C14.333 10.6397 14.0303 10.3565 13.6201 10.3565C13.4346 10.3565 13.2295 10.4346 13.0928 10.5908L11.6084 12.1729L11.0322 12.7783L11.1006 11.3135V5.8252C11.1006 5.41504 10.7393 5.07324 10.3193 5.07324C9.89942 5.07324 9.54785 5.41504 9.54785 5.8252V11.3135L9.60645 12.7783L9.03028 12.1729L7.5459 10.5908C7.40918 10.4346 7.19434 10.3565 7.00879 10.3565C6.59863 10.3565 6.30567 10.6397 6.30567 11.0401C6.30567 11.2549 6.38379 11.4112 6.53028 11.5576L9.75293 14.6631C9.94824 14.8584 10.124 14.917 10.3193 14.917Z" fill="currentColor" stroke="none" fill-opacity="context-fill-opacity"/>
</g>
<defs>
<clipPath id="clip0_245_3093">
<rect width="20.2832" height="19.9316" fill="white" style="fill:white;fill-opacity:1;" transform="translate(0.358398 0.0341797)"/>
</clipPath>
</defs>
</svg>
