<svg width="21" height="20" viewBox="0 0 21 20" fill="none" xmlns="http://www.w3.org/2000/svg">
<path d="M8 10.5556C8.30682 10.5556 8.55555 10.3068 8.55555 10C8.55555 9.69319 8.30682 9.44446 8 9.44446C7.69317 9.44446 7.44444 9.69319 7.44444 10C7.44444 10.3068 7.69317 10.5556 8 10.5556Z" fill="#482615" stroke="#482615" style="fill:#482615;fill:color(display-p3 0.2824 0.1490 0.0824);fill-opacity:1;stroke:#482615;stroke:color(display-p3 0.2824 0.1490 0.0824);stroke-opacity:1;" stroke-width="1.66667" stroke-linecap="round" stroke-linejoin="round"/>
<path d="M8 4.7222C8.30682 4.7222 8.55555 4.47346 8.55555 4.16664C8.55555 3.85981 8.30682 3.61108 8 3.61108C7.69317 3.61108 7.44444 3.85981 7.44444 4.16664C7.44444 4.47346 7.69317 4.7222 8 4.7222Z" fill="#482615" stroke="#482615" style="fill:#482615;fill:color(display-p3 0.2824 0.1490 0.0824);fill-opacity:1;stroke:#482615;stroke:color(display-p3 0.2824 0.1490 0.0824);stroke-opacity:1;" stroke-width="1.66667" stroke-linecap="round" stroke-linejoin="round"/>
<path d="M8 16.3889C8.30682 16.3889 8.55555 16.1402 8.55555 15.8334C8.55555 15.5266 8.30682 15.2778 8 15.2778C7.69317 15.2778 7.44444 15.5266 7.44444 15.8334C7.44444 16.1402 7.69317 16.3889 8 16.3889Z" fill="#482615" stroke="#482615" style="fill:#482615;fill:color(display-p3 0.2824 0.1490 0.0824);fill-opacity:1;stroke:#482615;stroke:color(display-p3 0.2824 0.1490 0.0824);stroke-opacity:1;" stroke-width="1.66667" stroke-linecap="round" stroke-linejoin="round"/>
<path d="M13 10.5556C13.3068 10.5556 13.5556 10.3068 13.5556 10C13.5556 9.69319 13.3068 9.44446 13 9.44446C12.6932 9.44446 12.4444 9.69319 12.4444 10C12.4444 10.3068 12.6932 10.5556 13 10.5556Z" fill="#482615" stroke="#482615" style="fill:#482615;fill:color(display-p3 0.2824 0.1490 0.0824);fill-opacity:1;stroke:#482615;stroke:color(display-p3 0.2824 0.1490 0.0824);stroke-opacity:1;" stroke-width="1.66667" stroke-linecap="round" stroke-linejoin="round"/>
<path d="M13 4.7222C13.3068 4.7222 13.5556 4.47346 13.5556 4.16664C13.5556 3.85981 13.3068 3.61108 13 3.61108C12.6932 3.61108 12.4444 3.85981 12.4444 4.16664C12.4444 4.47346 12.6932 4.7222 13 4.7222Z" fill="#482615" stroke="#482615" style="fill:#482615;fill:color(display-p3 0.2824 0.1490 0.0824);fill-opacity:1;stroke:#482615;stroke:color(display-p3 0.2824 0.1490 0.0824);stroke-opacity:1;" stroke-width="1.66667" stroke-linecap="round" stroke-linejoin="round"/>
<path d="M13 16.3889C13.3068 16.3889 13.5556 16.1402 13.5556 15.8334C13.5556 15.5266 13.3068 15.2778 13 15.2778C12.6932 15.2778 12.4444 15.5266 12.4444 15.8334C12.4444 16.1402 12.6932 16.3889 13 16.3889Z" fill="#482615" stroke="#482615" style="fill:#482615;fill:color(display-p3 0.2824 0.1490 0.0824);fill-opacity:1;stroke:#482615;stroke:color(display-p3 0.2824 0.1490 0.0824);stroke-opacity:1;" stroke-width="1.66667" stroke-linecap="round" stroke-linejoin="round"/>
</svg>
