<svg width="29" height="22" viewBox="0 0 29 22" fill="none" xmlns="http://www.w3.org/2000/svg">
<path d="M26.8291 15.9658C26.4287 17.4307 24.8369 17.6748 22.4052 16.8154L14.6919 14.0426L18.9477 11.7829L26.8291 15.9658ZM9.67092 5.73145C9.67092 6.55176 9.70998 6.87402 10.3057 7.19629L12.6609 8.44629C12.0138 8.87797 11.593 9.45022 11.3241 10.2247C11.1752 10.1158 10.9866 10.0057 10.7451 9.88184L9.2217 9.07129C8.97756 8.9541 8.84084 8.91504 8.65529 8.91504C7.84474 8.91504 7.55177 9.67676 5.7256 9.67676C3.54787 9.67676 1.79982 7.91895 1.79982 5.73145C1.79982 3.53418 3.54787 1.7666 5.7256 1.7666C7.9131 1.7666 9.67092 3.52441 9.67092 5.73145ZM3.40138 5.73145C3.40138 7.03027 4.44631 8.08496 5.7256 8.08496C7.04396 8.08496 8.07912 7.03027 8.07912 5.73145C8.07912 4.42285 7.04396 3.36817 5.7256 3.36817C4.44631 3.36817 3.40138 4.42285 3.40138 5.73145Z" fill="currentColor" stroke="none" fill-opacity="context-fill-opacity"/>
<path d="M5.7256 20.7901C7.9131 20.7901 9.67092 19.0322 9.67092 16.8252C9.67092 16.0147 9.70998 15.6924 10.3057 15.3701L26.8291 6.5908C26.4287 5.12596 24.8369 4.88182 22.4052 5.74119L14.0654 8.73924C12.8935 9.15916 12.3662 9.72557 12.0732 10.8193L11.8779 11.5322C11.7412 12.0401 11.5068 12.294 10.7451 12.6846L9.2217 13.4854C8.97756 13.6123 8.84084 13.6514 8.65529 13.6514C7.84474 13.6514 7.55177 12.8897 5.7256 12.8897C3.54787 12.8897 1.79982 14.6475 1.79982 16.8252C1.79982 19.0225 3.54787 20.7901 5.7256 20.7901ZM5.7256 19.1885C4.44631 19.1885 3.40138 18.1436 3.40138 16.8252C3.40138 15.5361 4.44631 14.4815 5.7256 14.4815C7.04396 14.4815 8.07912 15.5361 8.07912 16.8252C8.07912 18.1436 7.04396 19.1885 5.7256 19.1885ZM14.29 11.5713C13.8506 11.5713 13.4697 11.21 13.4697 10.7608C13.4697 10.292 13.8506 9.94041 14.29 9.94041C14.7392 9.94041 15.1201 10.292 15.1201 10.7608C15.1201 11.21 14.7392 11.5713 14.29 11.5713Z" fill="currentColor" stroke="none" fill-opacity="context-fill-opacity"/>
</svg>
