<svg width="21" height="24" viewBox="0 0 21 24" fill="none" xmlns="http://www.w3.org/2000/svg">
<g clip-path="url(#clip0_251_720)">
<path d="M7.4287 18.8603C7.79979 18.8603 8.04393 18.6259 8.03417 18.2841L7.73143 7.83496C7.72167 7.49317 7.47753 7.26856 7.12597 7.26856C6.75487 7.26856 6.51073 7.50293 6.5205 7.84473L6.81347 18.2841C6.82323 18.6357 7.06737 18.8603 7.4287 18.8603ZM10.3193 18.8603C10.6904 18.8603 10.9541 18.6259 10.9541 18.2841V7.84473C10.9541 7.50293 10.6904 7.26856 10.3193 7.26856C9.94823 7.26856 9.69432 7.50293 9.69432 7.84473V18.2841C9.69432 18.6259 9.94823 18.8603 10.3193 18.8603ZM13.2197 18.8603C13.5713 18.8603 13.8154 18.6357 13.8252 18.2841L14.1182 7.84473C14.1279 7.50293 13.8838 7.26856 13.5127 7.26856C13.1611 7.26856 12.917 7.49317 12.9072 7.84473L12.6142 18.2841C12.6045 18.6259 12.8486 18.8603 13.2197 18.8603ZM6.03222 4.71973H7.58495V2.62989C7.58495 2.07325 7.97558 1.71192 8.56151 1.71192H12.0576C12.6435 1.71192 13.0342 2.07325 13.0342 2.62989V4.71973H14.5869V2.53223C14.5869 1.11621 13.6689 0.256836 12.165 0.256836H8.45409C6.95018 0.256836 6.03222 1.11621 6.03222 2.53223V4.71973ZM1.59863 5.50098H19.0498C19.4502 5.50098 19.7724 5.15918 19.7724 4.75879C19.7724 4.3584 19.4502 4.02637 19.0498 4.02637H1.59863C1.208 4.02637 0.866203 4.3584 0.866203 4.75879C0.866203 5.16895 1.208 5.50098 1.59863 5.50098ZM5.84667 22.0048H14.8017C16.1982 22.0048 17.1357 21.0966 17.2041 19.7002L17.8877 5.31543H16.3154L15.6611 19.5341C15.6416 20.1201 15.2217 20.5302 14.6455 20.5302H5.98339C5.42675 20.5302 5.00682 20.1103 4.97753 19.5341L4.28417 5.31543H2.75097L3.44432 19.7099C3.51268 21.1064 4.43065 22.0048 5.84667 22.0048Z" fill="currentColor" stroke="none" fill-opacity="context-fill-opacity"/>
</g>
<defs>
<clipPath id="clip0_251_720">
<rect width="19.2676" height="23.4863" fill="white" style="fill:white;fill-opacity:1;" transform="translate(0.866203 0.256836)"/>
</clipPath>
</defs>
</svg>
