<svg width="19" height="22" viewBox="0 0 19 22" fill="none" xmlns="http://www.w3.org/2000/svg">
<g clip-path="url(#clip0_245_3103)">
<path d="M18.5478 14.8623C18.5478 11.1318 16.0185 8.55371 11.5654 8.55371H5.00291L1.97557 8.69043L2.15135 9.13965L4.56346 7.07911L7.38572 4.3252C7.53221 4.16895 7.6201 3.9834 7.6201 3.7295C7.6201 3.22168 7.2783 2.87012 6.75096 2.87012C6.54588 2.87012 6.29197 2.97754 6.12596 3.14356L0.383766 8.77832C0.188454 8.96387 0.0907974 9.18848 0.0907974 9.43262C0.0907974 9.667 0.188454 9.89161 0.383766 10.0771L6.12596 15.7119C6.29197 15.8877 6.54588 15.9853 6.75096 15.9853C7.2783 15.9853 7.6201 15.6338 7.6201 15.126C7.6201 14.872 7.53221 14.6865 7.38572 14.5302L4.56346 11.7861L2.15135 9.71582L1.97557 10.165L5.00291 10.3018H11.7119C15.042 10.3018 16.7998 12.1377 16.7998 14.7646C16.7998 17.4013 15.042 19.3545 11.7119 19.3545H9.4658C8.92869 19.3545 8.57713 19.7451 8.57713 20.2236C8.57713 20.7021 8.92869 21.0927 9.4658 21.0927H11.7217C16.0869 21.0927 18.5478 18.6025 18.5478 14.8623Z" fill="currentColor" stroke="none" fill-opacity="context-fill-opacity"/>
</g>
<defs>
<clipPath id="clip0_245_3103">
<rect width="18.8184" height="20.1855" fill="white" style="fill:white;fill-opacity:1;" transform="translate(0.0907974 0.907227)"/>
</clipPath>
</defs>
</svg>
