<svg width="21" height="26" viewBox="0 0 21 26" fill="none" xmlns="http://www.w3.org/2000/svg">
<g clip-path="url(#clip0_245_2801)">
<path d="M14.3965 1.67676L19.3281 6.68653C20.0606 7.43848 20.3047 8.2002 20.3047 9.40137V17.3311C20.3047 19.3623 19.2891 20.3975 17.2774 20.3975H15.5684V18.8252H17.1895C18.2051 18.8252 18.7324 18.2783 18.7324 17.3018V8.95215H14.1621C13.0391 8.95215 12.4922 8.41504 12.4922 7.28223V2.27247H8.1758C7.16017 2.27247 6.64259 2.82911 6.64259 3.7959V5.57325H5.07033V3.76661C5.07033 1.73536 6.08595 0.700195 8.09767 0.700195H11.8379C12.8828 0.700195 13.7031 0.963867 14.3965 1.67676ZM13.9082 7.04786C13.9082 7.38965 14.0449 7.53614 14.3867 7.53614H18.3223L13.9082 3.04395V7.04786Z" fill="currentColor" stroke="none" fill-opacity="context-fill-opacity"/>
<path d="M0.334 22.2041C0.334 24.2451 1.33986 25.2705 3.36134 25.2705H12.541C14.5625 25.2705 15.5684 24.2354 15.5684 22.2041V14.5772C15.5684 13.3272 15.4219 12.7803 14.6406 11.9795L9.25978 6.50097C8.51759 5.73925 7.90236 5.57324 6.80861 5.57324H3.36134C1.34962 5.57324 0.334 6.59863 0.334 8.63964V22.2041ZM1.90627 22.1748V8.65917C1.90627 7.70214 2.42384 7.1455 3.43947 7.1455H6.64259V12.8096C6.64259 14.04 7.26759 14.6553 8.47853 14.6553H13.9961V22.1748C13.9961 23.1514 13.4688 23.6982 12.4629 23.6982H3.4297C2.42384 23.6982 1.90627 23.1514 1.90627 22.1748ZM8.66408 13.1807C8.27345 13.1807 8.1172 13.0244 8.1172 12.6338V7.50683L13.6934 13.1807H8.66408Z" fill="currentColor" stroke="none" fill-opacity="context-fill-opacity"/>
</g>
<defs>
<clipPath id="clip0_245_2801">
<rect width="20.332" height="24.5996" fill="white" style="fill:white;fill-opacity:1;" transform="translate(0.334 0.700195)"/>
</clipPath>
</defs>
</svg>
