<svg width="21" height="24" viewBox="0 0 21 24" fill="none" xmlns="http://www.w3.org/2000/svg">
<g clip-path="url(#clip0_341_791)">
<path d="M0.255852 11.9952C0.255852 16.4776 4.10351 18.9971 8.90819 18.9971C9.35741 18.9971 9.8164 18.9776 10.2657 18.9385L9.92382 17.503C9.61132 17.5225 9.30858 17.5323 9.00585 17.5323C5.03124 17.5323 1.73046 15.6963 1.73046 12.0049C1.73046 7.74707 6.61327 4.75879 11.2911 4.75879C15.3829 4.75879 18.9082 7.29785 18.9082 11.1553C18.9082 14.71 15.0801 17.7569 11.4571 17.7569C10.7637 17.7569 10.2559 17.4834 10.2559 17.0147C10.2559 16.1944 11.3887 15.6475 12.8047 15.6475C14.4844 15.6475 15.7637 16.878 15.7637 18.5674C15.7637 19.7393 15.0997 20.8819 14.0157 21.5752C13.7325 21.7803 13.5176 21.9854 13.5176 22.337C13.5176 22.6983 13.8106 23.0108 14.2793 23.0108C14.4844 23.0108 14.6114 22.9522 14.8067 22.835C16.3008 21.8584 17.2383 20.2276 17.2383 18.5381C17.2383 16.0381 15.2364 14.1631 12.6973 14.1631C10.4512 14.1631 8.77147 15.335 8.77147 17.0635C8.77147 18.3721 9.85546 19.2217 11.4571 19.2217C15.8711 19.2217 20.3829 15.5596 20.3829 11.1651C20.3829 6.5166 16.2325 3.28418 11.2813 3.28418C5.86132 3.28418 0.255852 6.83887 0.255852 11.9952Z" fill="currentColor" stroke="none" fill-opacity="context-fill-opacity"/>
</g>
<defs>
<clipPath id="clip0_341_791">
<rect width="20.4883" height="22.0215" fill="white" style="fill:white;fill-opacity:1;" transform="translate(0.255852 0.989258)"/>
</clipPath>
</defs>
</svg>
