<svg width="19" height="22" viewBox="0 0 19 22" fill="none" xmlns="http://www.w3.org/2000/svg">
<g clip-path="url(#clip0_245_3107)">
<path d="M0.0907974 14.8623C0.0907974 18.6025 2.54197 21.0927 6.91697 21.0927H9.17283C9.70994 21.0927 10.0615 20.7021 10.0615 20.2236C10.0615 19.7451 9.70994 19.3545 9.17283 19.3545H6.92674C3.59666 19.3545 1.82908 17.4013 1.82908 14.7646C1.82908 12.1377 3.59666 10.3018 6.92674 10.3018H13.626L16.6631 10.165L16.4873 9.71582L14.0654 11.7861L11.2529 14.5302C11.0967 14.6865 11.0185 14.872 11.0185 15.126C11.0185 15.6338 11.3603 15.9853 11.8779 15.9853C12.0928 15.9853 12.3467 15.8877 12.5127 15.7119L18.2549 10.0771C18.4502 9.89161 18.5478 9.667 18.5478 9.43262C18.5478 9.18848 18.4502 8.96387 18.2549 8.77832L12.5127 3.14356C12.3467 2.97754 12.0928 2.87012 11.8779 2.87012C11.3603 2.87012 11.0185 3.22168 11.0185 3.7295C11.0185 3.9834 11.0967 4.16895 11.2529 4.3252L14.0654 7.07911L16.4873 9.13965L16.6631 8.69043L13.626 8.55371H7.07322C2.61033 8.55371 0.0907974 11.1318 0.0907974 14.8623Z" fill="currentColor" stroke="none" fill-opacity="context-fill-opacity"/>
</g>
<defs>
<clipPath id="clip0_245_3107">
<rect width="18.8184" height="20.1855" fill="white" style="fill:white;fill-opacity:1;" transform="translate(0.0907974 0.907227)"/>
</clipPath>
</defs>
</svg>
