<svg width="21" height="20" viewBox="0 0 21 20" fill="none" xmlns="http://www.w3.org/2000/svg">
<g clip-path="url(#clip0_341_917)">
<path d="M0.622047 7.23144C0.622047 11.3916 4.10838 15.4834 9.61619 18.999C9.82127 19.126 10.1142 19.2627 10.3193 19.2627C10.5244 19.2627 10.8173 19.126 11.0322 18.999C16.5302 15.4834 20.0165 11.3916 20.0165 7.23144C20.0165 3.77441 17.6435 1.33301 14.4794 1.33301C12.6728 1.33301 11.2079 2.19238 10.3193 3.51074C9.45017 2.20214 7.9658 1.33301 6.15916 1.33301C2.9951 1.33301 0.622047 3.77441 0.622047 7.23144ZM2.19432 7.23144C2.19432 4.63378 3.874 2.90527 6.13963 2.90527C7.97557 2.90527 9.03025 4.04785 9.65525 5.02441C9.91893 5.41503 10.0849 5.52246 10.3193 5.52246C10.5537 5.52246 10.7001 5.40527 10.9833 5.02441C11.6572 4.06738 12.6728 2.90527 14.499 2.90527C16.7646 2.90527 18.4443 4.63378 18.4443 7.23144C18.4443 10.8643 14.6064 14.7803 10.5244 17.4951C10.4267 17.5635 10.3584 17.6123 10.3193 17.6123C10.2802 17.6123 10.2119 17.5635 10.124 17.4951C6.03221 14.7803 2.19432 10.8643 2.19432 7.23144Z" fill="currentColor" stroke="none" fill-opacity="context-fill-opacity"/>
</g>
<defs>
<clipPath id="clip0_341_917">
<rect width="19.7559" height="18.5254" fill="white" style="fill:white;fill-opacity:1;" transform="translate(0.622047 0.737305)"/>
</clipPath>
</defs>
</svg>
