<svg width="25" height="24" viewBox="0 0 25 24" fill="none" xmlns="http://www.w3.org/2000/svg">
<path d="M4.50014 7.42903C4.29865 7.96319 4.18944 8.56906 4.18944 9.23145C4.18944 12.8643 8.02733 16.7803 12.1191 19.4951C12.2167 19.5635 12.2851 19.6123 12.3144 19.6123C12.3535 19.6123 12.4218 19.5635 12.5195 19.4951C13.3185 18.965 14.1079 18.389 14.8596 17.7771L15.9823 18.8985C15.0815 19.6181 14.0921 20.3193 13.0273 20.999C12.8124 21.126 12.5195 21.2627 12.3144 21.2627C12.1191 21.2627 11.8163 21.126 11.6113 20.999C6.1035 17.4834 2.61717 13.3916 2.61717 9.23145C2.61717 8.11193 2.86604 7.09891 3.31324 6.24344L4.50014 7.42903ZM22.0214 9.23145C22.0214 11.6526 20.8406 14.0505 18.7612 16.3243L17.6111 15.1749C19.312 13.2702 20.4492 11.2089 20.4492 9.23145C20.4492 6.63379 18.7695 4.90528 16.4941 4.90528C14.6679 4.90528 13.6523 6.06739 12.9785 7.02442C12.6952 7.40528 12.5488 7.52246 12.3144 7.52246C12.0898 7.52246 11.9238 7.41504 11.6601 7.02442C11.0253 6.04786 9.98045 4.90528 8.13475 4.90528C7.8824 4.90528 7.63731 4.92672 7.40239 4.9717L6.13324 3.70326C6.75115 3.46019 7.43211 3.33301 8.15428 3.33301C9.97069 3.33301 11.4452 4.20215 12.3144 5.51075C13.2031 4.19239 14.6679 3.33301 16.4745 3.33301C19.6484 3.33301 22.0214 5.77442 22.0214 9.23145Z" fill="currentColor" stroke="none" fill-opacity="context-fill-opacity"/>
<path d="M19.541 20.8428C19.8339 21.1455 20.3222 21.1455 20.6054 20.8428C20.8984 20.5498 20.8984 20.0811 20.6054 19.7783L2.98827 2.1709C2.6953 1.87793 2.21678 1.87793 1.91405 2.1709C1.63084 2.4541 1.63084 2.95215 1.91405 3.23536L19.541 20.8428Z" fill="currentColor" stroke="none" fill-opacity="context-fill-opacity"/>
</svg>
