<svg width="25" height="18" viewBox="0 0 25 18" fill="none" xmlns="http://www.w3.org/2000/svg">
<g clip-path="url(#clip0_251_710)">
<path d="M3.87206 17.999H20.7665C22.8173 17.999 23.8329 16.9834 23.8329 14.9717V3.04786C23.8329 1.03614 22.8173 0.0205078 20.7665 0.0205078H3.87206C1.83104 0.0205078 0.805649 1.02637 0.805649 3.04786V14.9717C0.805649 16.9932 1.83104 17.999 3.87206 17.999ZM3.89159 16.4268C2.91503 16.4268 2.37792 15.9092 2.37792 14.8936V3.12598C2.37792 2.11036 2.91503 1.59278 3.89159 1.59278H20.747C21.7139 1.59278 22.2607 2.11036 22.2607 3.12598V14.8936C22.2607 15.9092 21.7139 16.4268 20.747 16.4268H3.89159ZM8.24706 16.7295H9.78026V1.29981H8.24706V16.7295ZM6.37206 5.21582C6.66503 5.21582 6.9287 4.95215 6.9287 4.66895C6.9287 4.37598 6.66503 4.12207 6.37206 4.12207H4.27245C3.97948 4.12207 3.72557 4.37598 3.72557 4.66895C3.72557 4.95215 3.97948 5.21582 4.27245 5.21582H6.37206ZM6.37206 7.74512C6.66503 7.74512 6.9287 7.48145 6.9287 7.18848C6.9287 6.89551 6.66503 6.65137 6.37206 6.65137H4.27245C3.97948 6.65137 3.72557 6.89551 3.72557 7.18848C3.72557 7.48145 3.97948 7.74512 4.27245 7.74512H6.37206ZM6.37206 10.2647C6.66503 10.2647 6.9287 10.0205 6.9287 9.72754C6.9287 9.43457 6.66503 9.18067 6.37206 9.18067H4.27245C3.97948 9.18067 3.72557 9.43457 3.72557 9.72754C3.72557 10.0205 3.97948 10.2647 4.27245 10.2647H6.37206Z" fill="currentColor" stroke="none" fill-opacity="context-fill-opacity"/>
</g>
<defs>
<clipPath id="clip0_251_710">
<rect width="23.3887" height="17.998" fill="white" style="fill:white;fill-opacity:1;" transform="translate(0.805649 0.000976562)"/>
</clipPath>
</defs>
</svg>
