<svg width="23" height="22" viewBox="0 0 23 22" fill="none" xmlns="http://www.w3.org/2000/svg">
<path d="M4.26509 6.63927C3.47478 7.90072 3.02346 9.39447 3.02346 10.9951C3.02346 15.585 6.7344 19.2959 11.3242 19.2959C12.9265 19.2959 14.4217 18.8437 15.684 18.0519L16.8888 19.2561C15.2996 20.3293 13.3846 20.9561 11.3242 20.9561C5.8262 20.9561 1.36331 16.4932 1.36331 10.9951C1.36331 8.9367 1.98886 7.02338 3.06046 5.43529L4.26509 6.63927ZM21.2852 10.9951C21.2852 13.0633 20.6537 14.985 19.5724 16.5773L18.3693 15.3742C19.1682 14.1077 19.625 12.6055 19.625 10.9951C19.625 6.40527 15.9141 2.69434 11.3242 2.69434C9.71387 2.69434 8.21169 3.15115 6.94519 3.95005L5.74207 2.74693C7.33434 1.66569 9.25605 1.03418 11.3242 1.03418C16.8223 1.03418 21.2852 5.49707 21.2852 10.9951Z" fill="currentColor" stroke="none" fill-opacity="context-fill-opacity"/>
<path d="M19.7324 20.4971C20.0254 20.79 20.5137 20.7803 20.7969 20.4873C21.0899 20.1846 21.0899 19.7158 20.7969 19.4229L2.88674 1.50293C2.59377 1.20996 2.11526 1.20996 1.81252 1.50293C1.52932 1.78613 1.52932 2.28418 1.81252 2.56738L19.7324 20.4971Z" fill="currentColor" stroke="none" fill-opacity="context-fill-opacity"/>
</svg>
