<svg width="25" height="20" viewBox="0 0 25 20" fill="none" xmlns="http://www.w3.org/2000/svg">
<g clip-path="url(#clip0_245_2957)">
<path d="M0.737312 16.4795C0.737312 18.4131 1.7627 19.419 3.72559 19.419H15.7276C17.6807 19.419 18.7061 18.4131 18.7061 16.4795V13.0322C18.7061 12.876 18.8135 12.7979 18.9991 12.9248C19.6143 13.3643 20.3272 13.6768 21.1475 13.6768C22.9932 13.6768 24.6436 12.1924 24.6436 10.0147C24.6436 7.84668 22.9932 6.3623 21.1475 6.3623C20.3272 6.3623 19.6143 6.6748 18.9991 7.11426C18.8135 7.24121 18.7061 7.16308 18.7061 7.00683V3.48144C18.7061 1.54785 17.6807 0.541992 15.7276 0.541992H3.72559C1.7627 0.541992 0.737312 1.54785 0.737312 3.48144V7.79785C0.737312 8.61816 1.27442 9.10644 1.94825 9.10644C2.31934 9.10644 2.7002 8.95019 3.08106 8.59863C3.55957 8.16894 4.09668 7.90527 4.67286 7.90527C5.78614 7.90527 6.72364 8.73535 6.72364 9.99511C6.72364 11.2549 5.78614 12.085 4.67286 12.085C4.09668 12.085 3.55957 11.8115 3.08106 11.3818C2.7002 11.04 2.31934 10.8838 1.94825 10.8838C1.27442 10.8838 0.737312 11.3721 0.737312 12.1826V16.4795ZM2.30957 16.4014V13.1494C2.30957 12.6904 2.54395 12.8662 2.7295 12.9834C3.3252 13.3643 3.9795 13.6475 4.75098 13.6475C6.58692 13.6475 8.24707 12.1729 8.24707 9.99511C8.24707 7.81738 6.58692 6.34277 4.75098 6.34277C3.9795 6.34277 3.3252 6.62597 2.7295 7.00683C2.54395 7.12402 2.30957 7.2998 2.30957 6.84082V3.55957C2.30957 2.63183 2.84668 2.11426 3.75489 2.11426H15.6983C16.6065 2.11426 17.1338 2.63183 17.1338 3.55957V7.79785C17.1338 8.61816 17.671 9.13574 18.3448 9.13574C18.7159 9.13574 19.0967 8.97949 19.4776 8.62793C19.9561 8.19824 20.4932 7.9248 21.0694 7.9248C22.1827 7.9248 23.1202 8.75488 23.1202 10.0147C23.1202 11.2842 22.1827 12.1143 21.0694 12.1143C20.4932 12.1143 19.9561 11.8408 19.4776 11.4111C19.0967 11.0596 18.7159 10.9033 18.3448 10.9033C17.671 10.9033 17.1338 11.4209 17.1338 12.2412V16.4014C17.1338 17.3389 16.6065 17.8467 15.6983 17.8467H3.75489C2.84668 17.8467 2.30957 17.3389 2.30957 16.4014Z" fill="currentColor" stroke="none" fill-opacity="context-fill-opacity"/>
</g>
<defs>
<clipPath id="clip0_245_2957">
<rect width="24.2871" height="18.916" fill="white" style="fill:white;fill-opacity:1;" transform="translate(0.356453 0.541992)"/>
</clipPath>
</defs>
</svg>
