<svg width="23" height="18" viewBox="0 0 23 18" fill="none" xmlns="http://www.w3.org/2000/svg">
<g clip-path="url(#clip0_245_2797)">
<path d="M3.29686 17.8721H19.6348C21.3828 17.8721 22.4082 16.8565 22.4082 14.8448V4.81543C22.4082 2.80371 21.3731 1.78809 19.3418 1.78809H9.96678C9.30272 1.78809 8.90233 1.63184 8.41404 1.21192L7.81834 0.723633C7.17381 0.176758 6.67576 0.000976562 5.70897 0.000976562H2.92576C1.21678 0.000976562 0.230453 0.977539 0.230453 2.94043V14.8448C0.230453 16.8662 1.25584 17.8721 3.29686 17.8721ZM3.31639 16.2998C2.33983 16.2998 1.80272 15.7822 1.80272 14.7666V3.02832C1.80272 2.06153 2.31053 1.56348 3.24803 1.56348H5.30857C5.95311 1.56348 6.34373 1.7295 6.84178 2.14942L7.43748 2.64746C8.07225 3.17481 8.58983 3.36036 9.55662 3.36036H19.3125C20.2793 3.36036 20.836 3.8877 20.836 4.90332V14.7764C20.836 15.7822 20.2793 16.2998 19.3125 16.2998H3.31639ZM1.18748 6.93457H21.4414V5.45996H1.18748V6.93457Z" fill="currentColor" stroke="none" fill-opacity="context-fill-opacity"/>
</g>
<defs>
<clipPath id="clip0_245_2797">
<rect width="22.5391" height="17.998" fill="white" style="fill:white;fill-opacity:1;" transform="translate(0.230453 0.000976562)"/>
</clipPath>
</defs>
</svg>
