<svg width="21" height="24" viewBox="0 0 21 24" fill="none" xmlns="http://www.w3.org/2000/svg">
<g clip-path="url(#clip0_362_972)">
<path d="M10.3193 21.956C15.8174 21.956 20.2803 17.4931 20.2803 11.9951C20.2803 7.12205 16.7744 3.07908 12.2041 2.21971V0.832983C12.2041 0.129858 11.7256 -0.0459234 11.1787 0.334936L8.07324 2.52244C7.62402 2.84471 7.63379 3.31346 8.07324 3.62596L11.1885 5.81346C11.7256 6.18455 12.2041 6.00877 12.2041 5.31541V3.90916C15.876 4.75877 18.6201 8.03025 18.6201 11.9951C18.6201 16.5849 14.9092 20.2959 10.3193 20.2959C5.72949 20.2959 2.01856 16.5849 2.01856 11.9951C2.01856 9.21189 3.38574 6.76072 5.45606 5.27635C5.85645 4.97361 5.9834 4.51463 5.73926 4.10447C5.49512 3.71385 4.93848 3.59666 4.50879 3.92869C1.98926 5.7451 0.358398 8.64549 0.358398 11.9951C0.358398 17.4931 4.82129 21.956 10.3193 21.956Z" fill="currentColor" stroke="none" fill-opacity="context-fill-opacity"/>
</g>
<defs>
<clipPath id="clip0_362_972">
<rect width="20.2832" height="23.7233" fill="white" style="fill:white;fill-opacity:1;" transform="translate(0.358398 0.138306)"/>
</clipPath>
</defs>
</svg>
