<svg width="19" height="16" viewBox="0 0 19 16" fill="none" xmlns="http://www.w3.org/2000/svg">
<g clip-path="url(#clip0_246_3143)">
<path d="M18.3868 7.99511C18.3868 7.75097 18.2891 7.52636 18.0938 7.34082L11.6192 0.885742C11.4043 0.670898 11.1993 0.592773 10.9649 0.592773C10.4864 0.592773 10.1152 0.944335 10.1152 1.43262C10.1152 1.66699 10.1934 1.8916 10.3497 2.04785L12.5372 4.27441L16.4141 7.80957L16.6094 7.32129L13.4649 7.12597H1.11133C0.603515 7.12597 0.251953 7.4873 0.251953 7.99511C0.251953 8.50293 0.603515 8.86425 1.11133 8.86425H13.4649L16.6094 8.66894L16.4141 8.19043L12.5372 11.7158L10.3497 13.9424C10.1934 14.0889 10.1152 14.3233 10.1152 14.5576C10.1152 15.0459 10.4864 15.3975 10.9649 15.3975C11.1993 15.3975 11.4043 15.3096 11.5997 15.124L18.0938 8.64941C18.2891 8.46386 18.3868 8.23925 18.3868 7.99511Z" fill="currentColor" stroke="none" fill-opacity="context-fill-opacity"/>
</g>
<defs>
<clipPath id="clip0_246_3143">
<rect width="18.4961" height="14.8145" fill="white" style="fill:white;fill-opacity:1;" transform="translate(0.251953 0.592773)"/>
</clipPath>
</defs>
</svg>
