<svg width="19" height="20" viewBox="0 0 19 20" fill="none" xmlns="http://www.w3.org/2000/svg">
<g clip-path="url(#clip0_245_3119)">
<path d="M0.911141 8.5791C1.42872 8.5791 1.79981 8.18848 1.79981 7.6709V6.85059L1.6045 3.44238L4.17286 6.14746L7.18067 9.1748C7.34668 9.35059 7.56153 9.42871 7.7959 9.42871C8.35254 9.42871 8.7627 9.06738 8.7627 8.52051C8.7627 8.25683 8.67481 8.02246 8.49903 7.84668L5.48145 4.83887L2.77637 2.27051L6.19434 2.46582H7.00489C7.52247 2.46582 7.92286 2.10449 7.92286 1.57715C7.92286 1.0498 7.53223 0.678711 7.00489 0.678711H1.58497C0.588875 0.678711 0.0127029 1.25488 0.0127029 2.25098V7.6709C0.0127029 8.17871 0.393562 8.5791 0.911141 8.5791ZM11.624 19.3115H17.0439C18.04 19.3115 18.626 18.7353 18.626 17.7392V12.3193C18.626 11.8115 18.2451 11.4111 17.7178 11.4111C17.21 11.4111 16.8291 11.8017 16.8291 12.3193V13.1396L17.0342 16.5478L14.4561 13.8428L11.458 10.8154C11.292 10.6397 11.0674 10.5615 10.833 10.5615C10.2861 10.5615 9.86622 10.9228 9.86622 11.4697C9.86622 11.7334 9.96387 11.9678 10.1397 12.1435L13.1475 15.1514L15.8623 17.7197L12.4443 17.5244H11.624C11.1065 17.5244 10.7061 17.8857 10.7061 18.4131C10.7061 18.9404 11.1065 19.3115 11.624 19.3115Z" fill="currentColor" stroke="none" fill-opacity="context-fill-opacity"/>
</g>
<defs>
<clipPath id="clip0_245_3119">
<rect width="18.9746" height="18.6426" fill="white" style="fill:white;fill-opacity:1;" transform="translate(0.0127029 0.678711)"/>
</clipPath>
</defs>
</svg>
