<svg width="21" height="20" viewBox="0 0 21 20" fill="none" xmlns="http://www.w3.org/2000/svg">
<g clip-path="url(#clip0_245_3123)">
<path d="M2.56056 9.05762H7.98048C8.97658 9.05762 9.55275 8.47168 9.55275 7.47558V2.06543C9.55275 1.55762 9.17189 1.15723 8.65431 1.15723C8.13673 1.15723 7.76564 1.54785 7.76564 2.06543V2.88574L7.97072 6.29394L5.39259 3.58887L2.39455 0.561523C2.22853 0.385742 2.00392 0.297852 1.76955 0.297852C1.21291 0.297852 0.80275 0.668945 0.80275 1.21582C0.80275 1.46973 0.900406 1.71387 1.07619 1.88965L4.084 4.89746L6.78908 7.46582L3.38087 7.27051H2.56056C2.04298 7.27051 1.64259 7.63184 1.64259 8.15918C1.64259 8.67676 2.03322 9.05762 2.56056 9.05762ZM11.9257 18.9698C12.4433 18.9698 12.8144 18.5889 12.8144 18.0616V17.1338L12.6093 13.7354L15.1875 16.4405L18.254 19.5264C18.42 19.7022 18.6348 19.7901 18.879 19.7901C19.4258 19.7901 19.8359 19.419 19.8359 18.8721C19.8359 18.6182 19.7481 18.3741 19.5723 18.1983L16.4962 15.1221L13.7812 12.5538L17.1992 12.7491H18.1269C18.6445 12.7491 19.045 12.3877 19.045 11.8702C19.045 11.3428 18.6544 10.9717 18.1269 10.9717H12.5996C11.6035 10.9717 11.0273 11.5479 11.0273 12.544V18.0616C11.0273 18.5791 11.3984 18.9698 11.9257 18.9698Z" fill="currentColor" stroke="none" fill-opacity="context-fill-opacity"/>
</g>
<defs>
<clipPath id="clip0_245_3123">
<rect width="19.3945" height="19.5801" fill="white" style="fill:white;fill-opacity:1;" transform="translate(0.80275 0.209961)"/>
</clipPath>
</defs>
</svg>
