<svg width="9" height="22" viewBox="0 0 9 22" fill="none" xmlns="http://www.w3.org/2000/svg">
<g clip-path="url(#clip0_245_2974)">
<path d="M7.98632 3.9541C7.98632 5.67285 6.81445 7.11816 5.22265 7.50879V16.5713C5.22265 19.462 4.71484 21.0245 4.31445 21.0245C3.92382 21.0245 3.40625 19.4522 3.40625 16.5713V7.50879C1.81445 7.1084 0.652344 5.67285 0.652344 3.9541C0.652344 1.93262 2.2832 0.272461 4.31445 0.272461C6.35546 0.272461 7.98632 1.93262 7.98632 3.9541ZM2.00976 2.88965C2.00976 3.57324 2.5957 4.15918 3.26953 4.15918C3.95312 4.15918 4.51953 3.57324 4.51953 2.88965C4.51953 2.21582 3.95312 1.63965 3.26953 1.63965C2.5957 1.63965 2.00976 2.21582 2.00976 2.88965Z" fill="currentColor" stroke="none" fill-opacity="context-fill-opacity"/>
</g>
<defs>
<clipPath id="clip0_245_2974">
<rect width="7.69531" height="21.4551" fill="white" style="fill:white;fill-opacity:1;" transform="translate(0.652344 0.272461)"/>
</clipPath>
</defs>
</svg>
