<svg width="19" height="22" viewBox="0 0 19 22" fill="none" xmlns="http://www.w3.org/2000/svg">
<g clip-path="url(#clip0_245_2978)">
<path d="M10.2178 15.8547V16.5713C10.2178 19.462 9.70997 21.0245 9.31934 21.0245C8.91895 21.0245 8.41114 19.4522 8.41114 16.5713V14.0507L10.2178 15.8547ZM12.9815 3.9541C12.9815 5.67285 11.8096 7.11816 10.2178 7.50879V10.5021L8.41114 8.69667V7.50879C6.81934 7.1084 5.65723 5.67285 5.65723 3.9541C5.65723 1.93262 7.27833 0.272461 9.31934 0.272461C11.3506 0.272461 12.9815 1.93262 12.9815 3.9541ZM7.01465 2.88965C7.01465 3.57324 7.60059 4.15918 8.26465 4.15918C8.95801 4.15918 9.52442 3.57324 9.52442 2.88965C9.52442 2.21582 8.95801 1.63965 8.26465 1.63965C7.60059 1.63965 7.01465 2.21582 7.01465 2.88965Z" fill="currentColor" stroke="none" fill-opacity="context-fill-opacity"/>
<path d="M15.2471 19.2569C15.54 19.5498 16.0283 19.5498 16.3115 19.2569C16.5947 18.9639 16.6045 18.4952 16.3115 18.1924L2.68848 4.57912C2.39551 4.29592 1.90723 4.28615 1.61426 4.57912C1.33106 4.86232 1.33106 5.36037 1.61426 5.64357L15.2471 19.2569Z" fill="currentColor" stroke="none" fill-opacity="context-fill-opacity"/>
</g>
<defs>
<clipPath id="clip0_245_2978">
<rect width="18.4912" height="21.4551" fill="white" style="fill:white;fill-opacity:1;" transform="translate(0.254402 0.272461)"/>
</clipPath>
</defs>
</svg>
