<svg width="21" height="20" viewBox="0 0 21 20" fill="none" xmlns="http://www.w3.org/2000/svg">
<g clip-path="url(#clip0_245_3043)">
<path d="M10.3193 15.2197C13.2002 15.2197 15.5439 12.876 15.5439 9.99512C15.5439 7.11426 13.2002 4.77051 10.3193 4.77051C7.43848 4.77051 5.09473 7.11426 5.09473 9.99512C5.09473 12.876 7.43848 15.2197 10.3193 15.2197ZM10.3193 13.5694C8.34668 13.5694 6.74512 11.9678 6.74512 9.99512C6.74512 8.02246 8.34668 6.4209 10.3193 6.4209C12.292 6.4209 13.8936 8.02246 13.8936 9.99512C13.8936 11.9678 12.292 13.5694 10.3193 13.5694ZM2.53613 15.7471L4.63574 17.8467L8.5127 13.9697L6.41309 11.8701L2.53613 15.7471ZM2.43848 4.2334L6.41309 8.20801L8.5127 6.1084L4.53809 2.13379L2.43848 4.2334ZM18.2197 4.25293L16.1201 2.15332L12.165 6.1084L14.2646 8.20801L18.2197 4.25293ZM18.1318 15.7276L14.2744 11.8701L12.165 13.9795L16.0225 17.8369L18.1318 15.7276ZM10.3193 19.9561C15.8174 19.9561 20.2803 15.4932 20.2803 9.99512C20.2803 4.49707 15.8174 0.0341797 10.3193 0.0341797C4.82129 0.0341797 0.358398 4.49707 0.358398 9.99512C0.358398 15.4932 4.82129 19.9561 10.3193 19.9561ZM10.3193 18.2959C5.72949 18.2959 2.01856 14.585 2.01856 9.99512C2.01856 5.40527 5.72949 1.69434 10.3193 1.69434C14.9092 1.69434 18.6201 5.40527 18.6201 9.99512C18.6201 14.585 14.9092 18.2959 10.3193 18.2959Z" fill="currentColor" stroke="none" fill-opacity="context-fill-opacity"/>
</g>
<defs>
<clipPath id="clip0_245_3043">
<rect width="20.2832" height="19.9316" fill="white" style="fill:white;fill-opacity:1;" transform="translate(0.358398 0.0341797)"/>
</clipPath>
</defs>
</svg>
