<svg width="25" height="20" viewBox="0 0 25 20" fill="none" xmlns="http://www.w3.org/2000/svg">
<g clip-path="url(#clip0_245_2885)">
<path d="M12.3243 19.9561C17.8223 19.9561 22.2852 15.4932 22.2852 9.99512C22.2852 4.49707 17.8223 0.0341797 12.3243 0.0341797C6.82619 0.0341797 2.3633 4.49707 2.3633 9.99512H4.02346C4.02346 5.40527 7.73439 1.69434 12.3243 1.69434C16.9141 1.69434 20.6251 5.40527 20.6251 9.99512C20.6251 14.585 16.9141 18.2959 12.3243 18.2959C9.5508 18.2959 7.0801 16.9287 5.60549 14.8584C5.30275 14.458 4.84377 14.3311 4.43361 14.5752C4.04299 14.8194 3.9258 15.3662 4.25783 15.7959C6.06447 18.3252 9.02346 19.9561 12.3243 19.9561ZM1.16213 8.11035C0.459005 8.11035 0.283224 8.58887 0.664083 9.13574L2.85158 12.2412C3.17385 12.6904 3.6426 12.6807 3.9551 12.2412L6.13283 9.12598C6.51369 8.58887 6.32814 8.11035 5.64455 8.11035H1.16213Z" fill="currentColor" stroke="none" fill-opacity="context-fill-opacity"/>
<path d="M12.3243 4.28223C11.8751 4.28223 11.5137 4.63379 11.5137 5.08301V10.6006C11.5137 10.835 11.5919 11.0303 11.7579 11.2549L14.1212 14.3701C14.463 14.8194 14.9415 14.8877 15.3516 14.6045C15.713 14.3506 15.752 13.8623 15.4493 13.4424L12.2364 9.09668L13.1251 11.8213V5.08301C13.1251 4.63379 12.7637 4.28223 12.3243 4.28223Z" fill="currentColor" stroke="none" fill-opacity="context-fill-opacity"/>
</g>
<defs>
<clipPath id="clip0_245_2885">
<rect width="24.0651" height="19.9316" fill="white" style="fill:white;fill-opacity:1;" transform="translate(0.467453 0.0341797)"/>
</clipPath>
</defs>
</svg>
