<svg width="25" height="22" viewBox="0 0 25 22" fill="none" xmlns="http://www.w3.org/2000/svg">
<g clip-path="url(#clip0_245_2961)">
<path d="M9.48732 20.2529H15.1514V13.9444C15.1514 13.4951 14.8584 13.2022 14.4092 13.2022H10.2393C9.79006 13.2022 9.48732 13.4951 9.48732 13.9444V20.2529ZM1.49905 11.1514C1.77248 11.1514 1.99709 11.0049 2.20217 10.8389L11.9776 2.62598C12.085 2.53809 12.2119 2.48926 12.3194 2.48926C12.4365 2.48926 12.5537 2.53809 12.6612 2.62598L22.4463 10.8389C22.6416 11.0049 22.8662 11.1514 23.1397 11.1514C23.667 11.1514 23.9795 10.7705 23.9795 10.3701C23.9795 10.1455 23.8916 9.91113 23.667 9.73535L13.4912 1.19043C13.1201 0.87793 12.7197 0.72168 12.3194 0.72168C11.919 0.72168 11.5186 0.87793 11.1475 1.19043L0.971703 9.73535C0.756859 9.91113 0.659203 10.1455 0.659203 10.3701C0.659203 10.7705 0.971703 11.1514 1.49905 11.1514ZM18.6768 5.96582L21.128 8.03613V3.63184C21.128 3.20215 20.8545 2.92871 20.4248 2.92871H19.3799C18.96 2.92871 18.6768 3.20215 18.6768 3.63184V5.96582ZM5.71779 21.2588H18.9307C20.3174 21.2588 21.128 20.4678 21.128 19.1006V8.28027L19.5557 7.21582V18.71C19.5557 19.3447 19.2139 19.6865 18.5987 19.6865H6.04982C5.42482 19.6865 5.08303 19.3447 5.08303 18.71V7.22559L3.51076 8.28027V19.1006C3.51076 20.4776 4.32131 21.2588 5.71779 21.2588Z" fill="currentColor" stroke="none" fill-opacity="context-fill-opacity"/>
</g>
<defs>
<clipPath id="clip0_245_2961">
<rect width="23.6816" height="20.5566" fill="white" style="fill:white;fill-opacity:1;" transform="translate(0.659203 0.72168)"/>
</clipPath>
</defs>
</svg>
