<svg width="35" height="26" viewBox="0 0 35 26" fill="none" xmlns="http://www.w3.org/2000/svg">
<path d="M28.8281 7.03809V12.6383C28.5762 12.6014 28.3181 12.585 28.0566 12.585C27.7849 12.585 27.5171 12.6026 27.2559 12.6425V7.12598C27.2559 6.11035 26.709 5.58301 25.7422 5.58301H8.88672C7.91016 5.58301 7.37305 6.11035 7.37305 7.12598V17.9079L10.2832 15.2803C10.6836 14.9092 11.1035 14.7334 11.543 14.7334C12.002 14.7334 12.4512 14.919 12.8613 15.2901L14.668 16.921L19.082 12.9756C19.5313 12.5752 20.0098 12.3897 20.5469 12.3897C21.0742 12.3897 21.5918 12.5948 22.0215 12.9952L23.5862 14.4651C22.4576 15.6044 21.7578 17.1684 21.7578 18.8838C21.7578 20.0121 22.0594 21.0737 22.5906 21.9893H8.86719C6.82618 21.9893 5.80078 20.9834 5.80078 18.9717V7.03809C5.80078 5.02637 6.82618 4.01074 8.86719 4.01074H25.7617C27.8125 4.01074 28.8281 5.02637 28.8281 7.03809Z" fill="currentColor" stroke="none" fill-opacity="context-fill-opacity"/>
<path d="M15.3711 10.7881C15.3711 12.0576 14.3359 13.0927 13.0762 13.0927C11.8066 13.0927 10.7715 12.0576 10.7715 10.7881C10.7715 9.52832 11.8066 8.4834 13.0762 8.4834C14.3359 8.4834 15.3711 9.52832 15.3711 10.7881Z" fill="currentColor" stroke="none" fill-opacity="context-fill-opacity"/>
<path d="M33.0176 18.8838C33.0176 21.5889 30.7422 23.8448 28.0566 23.8448C25.332 23.8448 23.0957 21.6084 23.0957 18.8838C23.0957 16.1592 25.332 13.9229 28.0566 13.9229C30.7715 13.9229 33.0176 16.1592 33.0176 18.8838ZM27.4219 16.3545V18.9522L27.4707 20.1924L26.8262 19.5381L26.25 18.9424C26.1328 18.8252 25.9668 18.7374 25.791 18.7471C25.459 18.7471 25.1855 18.9913 25.2051 19.3233C25.2148 19.5088 25.2734 19.6456 25.4199 19.7823L27.5977 21.7842C27.7637 21.9502 27.9004 22.0088 28.0664 22.0088C28.2324 22.0088 28.3594 21.9307 28.5254 21.7842L30.7129 19.7823C30.8594 19.6456 30.918 19.5088 30.918 19.3233C30.918 18.9913 30.6641 18.7276 30.332 18.7471C30.166 18.7569 30 18.8252 29.8828 18.9424L29.2969 19.5381L28.6621 20.1924L28.7109 18.9522V16.3545C28.7109 16.0127 28.418 15.7295 28.0664 15.7295C27.7148 15.7295 27.4219 16.0127 27.4219 16.3545Z" fill="currentColor" stroke="none" fill-opacity="context-fill-opacity"/>
</svg>
