<svg width="25" height="18" viewBox="0 0 25 18" fill="none" xmlns="http://www.w3.org/2000/svg">
<g clip-path="url(#clip0_341_782)">
<path d="M22.8271 14.4443L17.0263 8.99512C16.5966 8.59472 16.079 8.38965 15.5517 8.38965C15.0146 8.38965 14.5361 8.57519 14.0868 8.97558L9.67284 12.9209L7.8662 11.29C7.45604 10.9189 7.00682 10.7334 6.54784 10.7334C6.10838 10.7334 5.68846 10.9091 5.28807 11.2802L1.56737 14.6396C1.62596 16.4072 2.34862 17.3056 3.8037 17.3056H20.1708C21.9384 17.3056 22.8271 16.3193 22.8271 14.4443ZM3.87206 17.9892H20.7665C22.8173 17.9892 23.8329 16.9834 23.8329 14.9716V3.03808C23.8329 1.02636 22.8173 0.0107422 20.7665 0.0107422H3.87206C1.83104 0.0107422 0.805649 1.02636 0.805649 3.03808V14.9716C0.805649 16.9834 1.83104 17.9892 3.87206 17.9892ZM3.89159 16.4169C2.91503 16.4169 2.37792 15.8994 2.37792 14.8837V3.12597C2.37792 2.11035 2.91503 1.58301 3.89159 1.58301H20.747C21.7139 1.58301 22.2607 2.11035 22.2607 3.12597V14.8837C22.2607 15.8994 21.7139 16.4169 20.747 16.4169H3.89159Z" fill="currentColor" stroke="none" fill-opacity="context-fill-opacity"/>
<path d="M8.08104 9.09277C9.34081 9.09277 10.376 8.05762 10.376 6.78808C10.376 5.52832 9.34081 4.4834 8.08104 4.4834C6.81151 4.4834 5.77635 5.52832 5.77635 6.78808C5.77635 8.05762 6.81151 9.09277 8.08104 9.09277Z" fill="currentColor" stroke="none" fill-opacity="context-fill-opacity"/>
</g>
<defs>
<clipPath id="clip0_341_782">
<rect width="23.3887" height="17.9785" fill="white" style="fill:white;fill-opacity:1;" transform="translate(0.805649 0.0107422)"/>
</clipPath>
</defs>
</svg>
