<svg width="25" height="20" viewBox="0 0 25 20" fill="none" xmlns="http://www.w3.org/2000/svg">
<g clip-path="url(#clip0_341_777)">
<path d="M19.6436 3.12988V4.62402H18.0713V3.21777C18.0713 2.20215 17.5147 1.67481 16.5479 1.67481H3.25684C2.28028 1.67481 1.74317 2.20215 1.74317 3.21777V12.2607C1.74317 13.2763 2.28028 13.7939 3.25684 13.7939H4.99512V15.3662H3.23731C1.18652 15.3662 0.170898 14.3603 0.170898 12.3388V3.12988C0.170898 1.11816 1.18652 0.102539 3.23731 0.102539H16.5771C18.6084 0.102539 19.6436 1.11816 19.6436 3.12988Z" fill="currentColor" stroke="none" fill-opacity="context-fill-opacity"/>
<path d="M11.958 12.1142C13.0908 12.1142 14.0186 11.167 14.0186 10.0244C14.0186 8.90137 13.0908 7.9541 11.958 7.9541C10.8154 7.9541 9.8877 8.90137 9.8877 10.0244C9.8877 11.167 10.8154 12.1142 11.958 12.1142ZM8.09082 19.3701H21.167C22.8662 19.3701 23.7744 18.5107 23.7744 16.8017V16.1767L19.2432 11.8994C18.8623 11.5478 18.3936 11.372 17.9248 11.372C17.4365 11.372 17.0068 11.5283 16.6064 11.8896L12.6611 15.3857L11.0889 13.9697C10.7178 13.6279 10.3174 13.4716 9.89746 13.4716C9.5166 13.4716 9.15528 13.6279 8.77442 13.9502L5.4834 16.8115C5.4834 18.5107 6.3916 19.3701 8.09082 19.3701ZM8.06152 19.8877H21.4014C23.4326 19.8877 24.4678 18.872 24.4678 16.8603V7.65137C24.4678 5.63965 23.4326 4.62402 21.4014 4.62402H8.06152C6.01074 4.62402 4.99512 5.63965 4.99512 7.65137V16.8603C4.99512 18.8818 6.01074 19.8877 8.06152 19.8877ZM8.08106 18.3154C7.10449 18.3154 6.56738 17.7978 6.56738 16.7822V7.73926C6.56738 6.72363 7.10449 6.19629 8.08106 6.19629H21.3721C22.3389 6.19629 22.8955 6.72363 22.8955 7.73926V16.7822C22.8955 17.7978 22.3389 18.3154 21.3721 18.3154H8.08106Z" fill="currentColor" stroke="none" fill-opacity="context-fill-opacity"/>
</g>
<defs>
<clipPath id="clip0_341_777">
<rect width="24.6582" height="19.7949" fill="white" style="fill:white;fill-opacity:1;" transform="translate(0.170898 0.102539)"/>
</clipPath>
</defs>
</svg>
