<svg width="21" height="20" viewBox="0 0 21 20" fill="none" xmlns="http://www.w3.org/2000/svg">
<g clip-path="url(#clip0_245_3047)">
<path d="M10.3193 19.9561C15.8174 19.9561 20.2803 15.4932 20.2803 9.99512C20.2803 4.49707 15.8174 0.0341797 10.3193 0.0341797C4.82129 0.0341797 0.358398 4.49707 0.358398 9.99512C0.358398 15.4932 4.82129 19.9561 10.3193 19.9561ZM10.3193 18.2959C5.72949 18.2959 2.01856 14.585 2.01856 9.99512C2.01856 5.40527 5.72949 1.69434 10.3193 1.69434C14.9092 1.69434 18.6201 5.40527 18.6201 9.99512C18.6201 14.585 14.9092 18.2959 10.3193 18.2959Z" fill="currentColor" stroke="none" fill-opacity="context-fill-opacity"/>
<path d="M8.61035 15.4639H12.585C12.9854 15.4639 13.2979 15.1709 13.2979 14.7705C13.2979 14.3897 12.9854 14.0869 12.585 14.0869H11.374V9.11621C11.374 8.58887 11.1104 8.2373 10.6123 8.2373H8.77637C8.37598 8.2373 8.06348 8.54004 8.06348 8.9209C8.06348 9.32129 8.37598 9.61426 8.77637 9.61426H9.82129V14.0869H8.61035C8.20996 14.0869 7.89746 14.3897 7.89746 14.7705C7.89746 15.1709 8.20996 15.4639 8.61035 15.4639ZM10.2314 6.61621C10.9443 6.61621 11.501 6.0498 11.501 5.33691C11.501 4.62402 10.9443 4.05762 10.2314 4.05762C9.52832 4.05762 8.96192 4.62402 8.96192 5.33691C8.96192 6.0498 9.52832 6.61621 10.2314 6.61621Z" fill="currentColor" stroke="none" fill-opacity="context-fill-opacity"/>
</g>
<defs>
<clipPath id="clip0_245_3047">
<rect width="20.2832" height="19.9316" fill="white" style="fill:white;fill-opacity:1;" transform="translate(0.358398 0.0341797)"/>
</clipPath>
</defs>
</svg>
