<svg width="25" height="24" viewBox="0 0 25 24" fill="none" xmlns="http://www.w3.org/2000/svg">
<g clip-path="url(#clip0_251_733)">
<path d="M2.15823 22.4443C3.76956 24.0556 6.11331 24.0751 7.75393 22.2196C9.51174 20.2079 11.5626 16.3798 14.3653 13.5771C16.543 11.3896 19.0137 13.5185 22.0118 10.6474C23.213 9.50481 23.877 7.86419 23.6329 6.67278L19.8829 7.69817C19.2481 7.86419 18.8087 7.4638 18.6134 6.78997L18.3302 5.80364C18.1348 5.12981 18.3692 4.5634 18.9942 4.39739L22.7344 3.38176C22.627 3.03997 22.3048 2.57122 21.9044 2.16106C19.6485 -0.153391 15.8692 -0.114328 13.6915 1.94622C10.4297 5.04192 12.9005 8.3134 10.7617 10.4521C8.20315 13.0009 4.37502 15.0907 2.37307 16.8486C0.507838 18.4794 0.537135 20.8232 2.15823 22.4443ZM3.08596 21.5068C2.03127 20.4325 2.04104 18.8407 3.27151 17.7568C5.29299 15.9892 9.38479 13.6943 11.6993 11.3798C14.2188 8.86028 11.5528 5.71575 14.6387 2.87395C16.3282 1.32122 19.3165 1.32122 21.1036 3.0888L21.4259 2.50286L18.7305 3.20598C17.3048 3.58684 16.6798 4.68059 17.1094 6.16497L17.3829 7.11223C17.8516 8.76262 18.8184 9.22161 20.127 8.87005L22.9102 8.11809L22.3243 7.80559C22.1192 8.50872 21.7481 9.22161 21.1329 9.83684C18.7012 12.2099 15.918 10.1689 13.4278 12.6396C10.8887 15.1786 8.61331 19.29 6.84573 21.3212C5.74221 22.5907 4.14065 22.5907 3.08596 21.5068ZM14.7657 9.99309L16.8848 9.42669C17.0606 9.37786 17.168 9.18255 17.1192 8.997C17.0802 8.82122 16.8946 8.70403 16.6993 8.76262L14.5899 9.32903C14.4044 9.37786 14.3067 9.5634 14.3458 9.73919C14.3751 9.95403 14.5802 10.0419 14.7657 9.99309ZM14.5118 8.91887L16.6016 8.36223C16.7872 8.3134 16.9044 8.12786 16.8458 7.92278C16.7969 7.73723 16.6016 7.63958 16.4259 7.67864L14.3165 8.25481C14.1309 8.29387 14.0235 8.48919 14.0723 8.66497C14.1309 8.87005 14.3067 8.97747 14.5118 8.91887ZM14.2481 7.84465L16.3477 7.28801C16.5333 7.23919 16.6407 7.05364 16.5821 6.84856C16.543 6.66301 16.3477 6.55559 16.1719 6.60442L14.0528 7.17083C13.8673 7.21965 13.7696 7.41497 13.8184 7.59075C13.8673 7.79583 14.043 7.90325 14.2481 7.84465ZM18.6036 11.5653L19.4825 11.37L18.2618 6.93645L17.3829 7.11223L18.6036 11.5653ZM4.9219 20.8915C5.58596 20.8915 6.12307 20.3544 6.12307 19.6903C6.12307 19.0263 5.58596 18.4794 4.9219 18.4794C4.25784 18.4794 3.71096 19.0263 3.71096 19.6903C3.71096 20.3544 4.25784 20.8915 4.9219 20.8915Z" fill="currentColor" stroke="none" fill-opacity="context-fill-opacity"/>
</g>
<defs>
<clipPath id="clip0_251_733">
<rect width="23.0853" height="23.2664" fill="white" style="fill:white;fill-opacity:1;" transform="translate(0.957352 0.366699)"/>
</clipPath>
</defs>
</svg>
