<svg width="25" height="24" viewBox="0 0 25 24" fill="none" xmlns="http://www.w3.org/2000/svg">
<g clip-path="url(#clip0_245_2811)">
<path d="M0.253899 20.2177C0.253899 21.7216 0.976555 22.4638 2.48046 22.4638H15.8203C17.3144 22.4638 18.0469 21.7216 18.0469 20.2177V3.1084C18.0469 1.60449 17.3144 0.852539 15.8203 0.852539H13.9062C12.4121 0.852539 11.6797 1.60449 11.6797 3.1084V6.98535C11.4648 6.93652 11.2109 6.89746 10.9375 6.89746H6.67968C6.39648 6.89746 6.15234 6.93652 5.92773 6.98535V5.81348C5.92773 4.30957 5.20507 3.55762 3.71093 3.55762H2.48046C0.976555 3.55762 0.253899 4.30957 0.253899 5.81348V20.2177ZM1.72851 20.1005V5.9209C1.72851 5.34473 2.03124 5.03223 2.63671 5.03223H3.55468C4.16015 5.03223 4.45312 5.34473 4.45312 5.9209V20.9892H2.63671C2.03124 20.9892 1.72851 20.6767 1.72851 20.1005ZM5.92773 20.9892V9.26074C5.92773 8.68457 6.23046 8.37207 6.83593 8.37207H10.7812C11.3867 8.37207 11.6797 8.68457 11.6797 9.26074V20.9892H5.92773ZM13.1543 20.9892V3.21582C13.1543 2.63965 13.457 2.32715 14.0625 2.32715H15.6641C16.2793 2.32715 16.5723 2.63965 16.5723 3.21582V20.1005C16.5723 20.6767 16.2793 20.9892 15.6641 20.9892H13.1543ZM6.8164 10.2666C6.8164 10.6084 7.07031 10.872 7.43163 10.872H10.2051C10.5469 10.872 10.8105 10.6084 10.8105 10.2666C10.8105 9.93457 10.5469 9.6709 10.2051 9.6709H7.43163C7.07031 9.6709 6.8164 9.93457 6.8164 10.2666ZM6.8164 19.0947C6.8164 19.4365 7.07031 19.7002 7.43163 19.7002H10.2051C10.5469 19.7002 10.8105 19.4365 10.8105 19.0947C10.8105 18.7627 10.5469 18.499 10.2051 18.499H7.43163C7.07031 18.499 6.8164 18.7627 6.8164 19.0947ZM18.9258 20.4912C19.1113 21.9755 19.9023 22.6689 21.3965 22.4638L22.4121 22.3271C23.9062 22.122 24.5215 21.331 24.3555 19.8466L22.6758 5.24707C22.5 3.7627 21.6992 3.05957 20.2051 3.27442L19.1894 3.41113C17.6855 3.62598 17.0605 4.40723 17.2363 5.8916L18.9258 20.4912ZM20.3711 20.1982L18.7207 5.83301C18.6523 5.25684 18.916 4.93457 19.5215 4.84668L20.2246 4.75879C20.8301 4.6709 21.1621 4.96387 21.2305 5.53027L22.8809 19.8955C22.9492 20.4814 22.6855 20.7939 22.0898 20.8818L21.3672 20.9795C20.7715 21.0673 20.4394 20.7841 20.3711 20.1982Z" fill="currentColor" stroke="none" fill-opacity="context-fill-opacity"/>
</g>
<defs>
<clipPath id="clip0_245_2811">
<rect width="24.4922" height="22.2949" fill="white" style="fill:white;fill-opacity:1;" transform="translate(0.253899 0.852539)"/>
</clipPath>
</defs>
</svg>
