<svg width="23" height="22" viewBox="0 0 23 22" fill="none" xmlns="http://www.w3.org/2000/svg">
<g clip-path="url(#clip0_245_2827)">
<path d="M11.4414 6.89355L10.1426 8.21192C11.4316 8.31933 12.2715 8.70019 12.9062 9.33496C14.6152 11.044 14.6055 13.4658 12.916 15.1553L9.72265 18.3389C8.02343 20.0381 5.62108 20.0479 3.9121 18.3486C2.20312 16.6299 2.21288 14.2275 3.9121 12.5283L5.82616 10.6143C5.55272 9.99903 5.48437 9.26661 5.59179 8.63183L2.72069 11.4932C0.386706 13.8369 0.367175 17.1572 2.73046 19.5205C5.10351 21.8936 8.42382 21.874 10.7578 19.54L14.0976 16.1904C16.4414 13.8467 16.4609 10.5264 14.0879 8.16308C13.4726 7.54785 12.6914 7.1084 11.4414 6.89355ZM11.1973 14.9404L12.4961 13.6221C11.207 13.5244 10.3672 13.1338 9.73241 12.499C8.02343 10.79 8.03319 8.36817 9.72265 6.67871L12.9062 3.49511C14.6152 1.7959 17.0176 1.78613 18.7266 3.49511C20.4355 5.2041 20.416 7.61621 18.7266 9.30567L16.8125 11.2197C17.0859 11.8447 17.1445 12.5674 17.0469 13.2022L19.918 10.3408C22.2519 7.99708 22.2715 4.68652 19.9082 2.31347C17.5351 -0.0595682 14.2148 -0.040037 11.8711 2.30371L8.54101 5.64355C6.19726 7.9873 6.17772 11.3076 8.55077 13.6709C9.16601 14.2861 9.94726 14.7256 11.1973 14.9404Z" fill="currentColor" stroke="none" fill-opacity="context-fill-opacity"/>
</g>
<defs>
<clipPath id="clip0_245_2827">
<rect width="21.0718" height="20.9204" fill="white" style="fill:white;fill-opacity:1;" transform="translate(0.964096 0.539795)"/>
</clipPath>
</defs>
</svg>
