<svg width="25" height="18" viewBox="0 0 25 18" fill="none" xmlns="http://www.w3.org/2000/svg">
<g clip-path="url(#clip0_245_2930)">
<path d="M3.60351 17.4228H21.3281C23.0762 17.4228 24.1016 16.4072 24.1016 14.3955V3.61426C24.1016 1.60254 23.0664 0.586914 21.0351 0.586914H3.31054C1.56249 0.586914 0.537102 1.60254 0.537102 3.61426V14.3955C0.537102 16.4072 1.57226 17.4228 3.60351 17.4228ZM3.54491 15.9287C2.57812 15.9287 2.03124 15.3916 2.03124 14.3857V3.60449C2.03124 2.6084 2.57812 2.08106 3.54491 2.08106H21.084C22.0508 2.08106 22.6074 2.6084 22.6074 3.61426V14.3955C22.6074 15.3916 22.0508 15.9287 21.084 15.9287H3.54491ZM12.3144 11.5732C12.9394 11.5732 13.5449 11.3388 14.1016 10.831L23.291 2.55957L22.2754 1.53418L13.2519 9.66895C12.9492 9.94238 12.6367 10.0693 12.3144 10.0693C11.9922 10.0693 11.6797 9.94238 11.3769 9.66895L2.35351 1.53418L1.33788 2.55957L10.5273 10.831C11.084 11.3388 11.6894 11.5732 12.3144 11.5732ZM2.49999 16.1728L9.43358 9.22949L8.41796 8.21387L1.48437 15.1474L2.49999 16.1728ZM22.1484 16.1826L23.1641 15.1572L16.2207 8.21387L15.1953 9.22949L22.1484 16.1826Z" fill="currentColor" stroke="none" fill-opacity="context-fill-opacity"/>
</g>
<defs>
<clipPath id="clip0_245_2930">
<rect width="23.9258" height="16.8457" fill="white" style="fill:white;fill-opacity:1;" transform="translate(0.537102 0.577148)"/>
</clipPath>
</defs>
</svg>
