<svg width="21" height="20" viewBox="0 0 21 20" fill="none" xmlns="http://www.w3.org/2000/svg">
<g clip-path="url(#clip0_245_2938)">
<path d="M10.3193 19.9561C15.8174 19.9561 20.2803 15.4932 20.2803 9.99512C20.2803 4.49707 15.8174 0.0341797 10.3193 0.0341797C4.82129 0.0341797 0.358398 4.49707 0.358398 9.99512C0.358398 15.4932 4.82129 19.9561 10.3193 19.9561ZM10.3193 18.2959C5.72949 18.2959 2.01856 14.585 2.01856 9.99512C2.01856 5.40527 5.72949 1.69434 10.3193 1.69434C14.9092 1.69434 18.6201 5.40527 18.6201 9.99512C18.6201 14.585 14.9092 18.2959 10.3193 18.2959Z" fill="currentColor" stroke="none" fill-opacity="context-fill-opacity"/>
<path d="M6.36426 14.7608C6.82324 14.7608 7.2041 14.3799 7.2041 13.9209C7.2041 13.4619 6.82324 13.0811 6.36426 13.0811C5.90528 13.0811 5.52442 13.4619 5.52442 13.9209C5.52442 14.3799 5.90528 14.7608 6.36426 14.7608ZM4.71387 10.835C5.17285 10.835 5.55371 10.4541 5.55371 9.99512C5.55371 9.53613 5.17285 9.15527 4.71387 9.15527C4.25488 9.15527 3.87402 9.53613 3.87402 9.99512C3.87402 10.4541 4.25488 10.835 4.71387 10.835ZM10.3096 5.22949C10.7686 5.22949 11.1494 4.84863 11.1494 4.38965C11.1494 3.93066 10.7686 3.5498 10.3096 3.5498C9.85059 3.5498 9.46973 3.93066 9.46973 4.38965C9.46973 4.84863 9.85059 5.22949 10.3096 5.22949ZM14.2744 6.90918C14.7334 6.90918 15.1143 6.52832 15.1143 6.06934C15.1143 5.60059 14.7334 5.22949 14.2744 5.22949C13.8154 5.22949 13.4346 5.60059 13.4346 6.06934C13.4346 6.52832 13.8154 6.90918 14.2744 6.90918ZM15.9248 10.835C16.3838 10.835 16.7646 10.4541 16.7646 9.99512C16.7646 9.53613 16.3838 9.15527 15.9248 9.15527C15.4658 9.15527 15.085 9.53613 15.085 9.99512C15.085 10.4541 15.4658 10.835 15.9248 10.835ZM14.2744 14.7608C14.7334 14.7608 15.1143 14.3799 15.1143 13.9209C15.1143 13.4619 14.7334 13.0811 14.2744 13.0811C13.8154 13.0811 13.4346 13.4619 13.4346 13.9209C13.4346 14.3799 13.8154 14.7608 14.2744 14.7608ZM11.8818 11.499C12.5264 10.8545 12.5264 9.93652 11.8818 9.29199C11.7646 9.1748 11.5107 8.98926 11.3545 8.88184L6.61817 5.59082C6.38379 5.43457 6.14942 5.4834 6.00293 5.62012C5.86621 5.7666 5.81738 5.99121 5.9834 6.22559L9.27442 10.9619C9.38184 11.1182 9.56738 11.3819 9.68457 11.499C10.3291 12.1338 11.2471 12.1338 11.8818 11.499Z" fill="currentColor" stroke="none" fill-opacity="context-fill-opacity"/>
</g>
<defs>
<clipPath id="clip0_245_2938">
<rect width="20.2832" height="19.9316" fill="white" style="fill:white;fill-opacity:1;" transform="translate(0.358398 0.0341797)"/>
</clipPath>
</defs>
</svg>
