<svg width="21" height="22" viewBox="0 0 21 22" fill="none" xmlns="http://www.w3.org/2000/svg">
<path d="M4.91583 8.82173C4.90141 8.8801 4.89455 8.94705 4.89455 9.02246V13.0166C4.89455 13.3779 5.06057 13.5439 5.43166 13.5439H8.55666C8.81057 13.5439 8.99612 13.6025 9.22072 13.7978L13.3906 17.5576C13.4395 17.6064 13.498 17.6357 13.5469 17.6357C13.5971 17.6357 13.6419 17.6042 13.6622 17.5527L15.1017 18.9897C14.9349 19.3717 14.5589 19.6181 14.0938 19.6181C13.625 19.6181 13.2637 19.4228 12.795 19.0029L8.39065 15.0576C8.32229 14.999 8.24416 14.9697 8.15627 14.9697H5.3633C4.03518 14.9697 3.37112 14.3056 3.37112 12.8896V9.14941C3.37112 8.51217 3.5056 8.02524 3.77582 7.68372L4.91583 8.82173ZM15.1973 3.54394V13.7324L13.6739 12.2098V4.51074C13.6739 4.42285 13.6153 4.37402 13.5469 4.37402C13.4883 4.37402 13.4297 4.40332 13.3808 4.45215L9.46816 8.00666L8.41286 6.95197L12.795 3.06543C13.3126 2.60644 13.6055 2.3916 14.0743 2.3916C14.7286 2.3916 15.1973 2.90918 15.1973 3.54394Z" fill="currentColor" stroke="none" fill-opacity="context-fill-opacity"/>
<path d="M18.3712 20.6435C18.6641 20.9365 19.1426 20.9365 19.4356 20.6435C19.7188 20.3408 19.7285 19.872 19.4356 19.5791L2.70705 2.86035C2.41408 2.56738 1.9258 2.56738 1.63283 2.86035C1.34963 3.14355 1.34963 3.6416 1.63283 3.9248L18.3712 20.6435Z" fill="currentColor" stroke="none" fill-opacity="context-fill-opacity"/>
</svg>
