<svg width="13" height="18" viewBox="0 0 13 18" fill="none" xmlns="http://www.w3.org/2000/svg">
<g clip-path="url(#clip0_245_2839)">
<path d="M1.66113 17.0712H3.88769C4.7373 17.0712 5.18652 16.622 5.18652 15.7627V2.21778C5.18652 1.31934 4.7373 0.918945 3.88769 0.918945H1.66113C0.811516 0.918945 0.362297 1.3584 0.362297 2.21778V15.7627C0.362297 16.622 0.811516 17.0712 1.66113 17.0712ZM8.76074 17.0712H10.9775C11.8369 17.0712 12.2764 16.622 12.2764 15.7627V2.21778C12.2764 1.31934 11.8369 0.918945 10.9775 0.918945H8.76074C7.90136 0.918945 7.45214 1.3584 7.45214 2.21778V15.7627C7.45214 16.622 7.90136 17.0712 8.76074 17.0712Z" fill="currentColor" stroke="none" fill-opacity="context-fill-opacity"/>
</g>
<defs>
<clipPath id="clip0_245_2839">
<rect width="12.2754" height="16.1621" fill="white" style="fill:white;fill-opacity:1;" transform="translate(0.362297 0.918945)"/>
</clipPath>
</defs>
</svg>
