<svg width="23" height="18" viewBox="0 0 23 18" fill="none" xmlns="http://www.w3.org/2000/svg">
<g clip-path="url(#clip0_246_3137)">
<path d="M20.914 8.66309C20.4355 8.66309 20.084 9.01465 20.084 9.49316V10.4209C20.084 12.1006 18.9414 13.1846 17.164 13.1846H9.54689V10.919C9.54689 10.5186 9.32228 10.3037 8.92189 10.3037C8.73635 10.3037 8.56057 10.3623 8.41408 10.4795L4.72267 13.5362C4.41017 13.8096 4.40041 14.2002 4.72267 14.4639L8.41408 17.5303C8.56057 17.6475 8.73635 17.7158 8.92189 17.7158C9.32228 17.7158 9.54689 17.4912 9.54689 17.1006V14.8154H17.0078C19.8789 14.8154 21.7441 13.1846 21.7441 10.5381V9.49316C21.7441 9.01465 21.3828 8.66309 20.914 8.66309Z" fill="currentColor" stroke="none" fill-opacity="context-fill-opacity"/>
<path d="M1.72462 9.35645C2.19338 9.35645 2.55471 8.99512 2.55471 8.52637V7.59863C2.55471 5.91895 3.69728 4.8252 5.46486 4.8252H13.082V7.12012C13.082 7.51074 13.3164 7.73535 13.7168 7.73535C13.8925 7.73535 14.0781 7.66699 14.2148 7.5498L17.9062 4.49316C18.2187 4.23926 18.2383 3.83887 17.9062 3.56543L14.2148 0.499024C14.0781 0.381836 13.8925 0.323242 13.7168 0.323242C13.3164 0.323242 13.082 0.538086 13.082 0.938477V3.2041H5.62111C2.75978 3.2041 0.894547 4.83496 0.894547 7.48145V8.52637C0.894547 8.99512 1.24611 9.35645 1.72462 9.35645Z" fill="currentColor" stroke="none" fill-opacity="context-fill-opacity"/>
</g>
<defs>
<clipPath id="clip0_246_3137">
<rect width="21.2109" height="17.4316" fill="white" style="fill:white;fill-opacity:1;" transform="translate(0.894547 0.28418)"/>
</clipPath>
</defs>
</svg>
