<svg width="23" height="18" viewBox="0 0 23 18" fill="none" xmlns="http://www.w3.org/2000/svg">
<g clip-path="url(#clip0_245_2872)">
<path d="M19.1611 15.7041C19.5225 15.9482 19.9717 15.8603 20.2354 15.4892C21.4854 13.7705 22.2178 11.4072 22.2178 8.99507C22.2178 6.58296 21.4951 4.20015 20.2354 2.50093C19.9717 2.12984 19.5225 2.04195 19.1611 2.28609C18.7998 2.53023 18.7412 2.98921 19.0244 3.3896C20.0889 4.89351 20.7041 6.91499 20.7041 8.99507C20.7041 11.0752 20.0693 13.0771 19.0244 14.6006C18.751 15.0009 18.7998 15.4599 19.1611 15.7041Z" fill="currentColor" stroke="none" fill-opacity="context-fill-opacity"/>
<path d="M15.5479 13.1553C15.8701 13.3799 16.3291 13.3116 16.5928 12.9307C17.3447 11.9444 17.7939 10.4893 17.7939 8.99515C17.7939 7.50101 17.3447 6.0557 16.5928 5.0596C16.3291 4.67875 15.8701 4.60062 15.5479 4.83499C15.1475 5.10843 15.0889 5.59671 15.3916 5.9971C15.958 6.77835 16.2803 7.86234 16.2803 8.99515C16.2803 10.128 15.9482 11.2022 15.3916 11.9932C15.0986 12.4034 15.1475 12.8721 15.5479 13.1553Z" fill="currentColor" stroke="none" fill-opacity="context-fill-opacity"/>
<path d="M2.40332 12.9697H5.20606C5.29395 12.9697 5.37207 12.999 5.44043 13.0576L9.84473 17.0029C10.3135 17.4228 10.6748 17.6181 11.1436 17.6181C11.7686 17.6181 12.2471 17.1591 12.2471 16.5244V1.54395C12.2471 0.90918 11.7686 0.391602 11.124 0.391602C10.6553 0.391602 10.3525 0.606445 9.84473 1.06543L5.44043 4.97168C5.37207 5.03028 5.29395 5.05957 5.20606 5.05957H2.40332C1.0752 5.05957 0.420898 5.7334 0.420898 7.14942V10.8896C0.420898 12.3056 1.08496 12.9697 2.40332 12.9697ZM2.47168 11.5439C2.11035 11.5439 1.94434 11.3779 1.94434 11.0166V7.02246C1.94434 6.65137 2.11035 6.48536 2.47168 6.48536H5.59668C5.85059 6.48536 6.0459 6.43653 6.27051 6.23145L10.4307 2.45215C10.4795 2.40332 10.5283 2.37403 10.5967 2.37403C10.665 2.37403 10.7236 2.42286 10.7236 2.51075V15.4892C10.7236 15.5771 10.665 15.6357 10.5967 15.6357C10.5479 15.6357 10.4893 15.6064 10.4307 15.5576L6.27051 11.7978C6.0459 11.6025 5.85059 11.5439 5.59668 11.5439H2.47168Z" fill="currentColor" stroke="none" fill-opacity="context-fill-opacity"/>
</g>
<defs>
<clipPath id="clip0_245_2872">
<rect width="22.1582" height="17.2363" fill="white" style="fill:white;fill-opacity:1;" transform="translate(0.420898 0.381836)"/>
</clipPath>
</defs>
</svg>
