<svg width="27" height="22" viewBox="0 0 27 22" fill="none" xmlns="http://www.w3.org/2000/svg">
<g clip-path="url(#clip0_245_2999)">
<path d="M21.0391 3.80762V8.85644H19.4668V3.89551C19.4668 2.87988 18.92 2.35254 17.9532 2.35254H3.75389C2.77733 2.35254 2.24022 2.87988 2.24022 3.89551V13.6025C2.24022 14.6181 2.79686 15.1455 3.75389 15.1455H10.248V16.7177H3.73436C1.68357 16.7177 0.667953 15.7021 0.667953 13.6904V3.80762C0.667953 1.7959 1.68357 0.780273 3.73436 0.780273H17.9825C20.0235 0.780273 21.0391 1.7959 21.0391 3.80762Z" fill="currentColor" stroke="none" fill-opacity="context-fill-opacity"/>
<path d="M4.87693 4.16894L6.46873 5.77051L7.55272 4.69629C7.93357 4.30566 8.31443 4.63769 8.3535 4.94043L8.90037 8.46582C8.92967 8.6416 8.87107 8.79785 8.76365 8.91504C8.64647 9.02246 8.49022 9.08105 8.31443 9.05176L4.78904 8.50488C4.48631 8.46582 4.15428 8.08496 4.5449 7.7041L5.60936 6.62012L4.01756 5.02832C3.78318 4.79394 3.78318 4.40332 4.01756 4.16894C4.25193 3.93457 4.64256 3.93457 4.87693 4.16894Z" fill="currentColor" stroke="none" fill-opacity="context-fill-opacity"/>
<path d="M13.3145 21.2392H22.9141C24.9453 21.2392 25.9707 20.2236 25.9707 18.2119V11.8837C25.9707 9.87208 24.9453 8.85645 22.9141 8.85645H13.3145C11.2735 8.85645 10.248 9.86231 10.248 11.8837V18.2119C10.248 20.2236 11.2735 21.2392 13.3145 21.2392Z" fill="currentColor" stroke="none" fill-opacity="context-fill-opacity"/>
</g>
<defs>
<clipPath id="clip0_245_2999">
<rect width="25.6641" height="20.4785" fill="white" style="fill:white;fill-opacity:1;" transform="translate(0.667953 0.760742)"/>
</clipPath>
</defs>
</svg>
