<svg width="19" height="4" viewBox="0 0 19 4" fill="none" xmlns="http://www.w3.org/2000/svg">
<g clip-path="url(#clip0_364_1068)">
<path d="M16.5752 3.84082C17.6006 3.84082 18.4307 3.02051 18.4307 1.99512C18.4307 0.969726 17.6006 0.139648 16.5752 0.139648C15.5498 0.139648 14.7197 0.969726 14.7197 1.99512C14.7197 3.02051 15.5498 3.84082 16.5752 3.84082Z" fill="currentColor" stroke="none" fill-opacity="context-fill-opacity"/>
<path d="M9.31933 3.84082C10.3447 3.84082 11.165 3.02051 11.165 1.99512C11.165 0.969726 10.3447 0.139648 9.31933 0.139648C8.29394 0.139648 7.46386 0.969726 7.46386 1.99512C7.46386 3.02051 8.29394 3.84082 9.31933 3.84082Z" fill="currentColor" stroke="none" fill-opacity="context-fill-opacity"/>
<path d="M2.06347 3.84082C3.08886 3.84082 3.90917 3.02051 3.90917 1.99512C3.90917 0.969726 3.08886 0.139648 2.06347 0.139648C1.03808 0.139648 0.208 0.969726 0.208 1.99512C0.208 3.02051 1.03808 3.84082 2.06347 3.84082Z" fill="currentColor" stroke="none" fill-opacity="context-fill-opacity"/>
</g>
<defs>
<clipPath id="clip0_364_1068">
<rect width="18.584" height="3.7207" fill="white" style="fill:white;fill-opacity:1;" transform="translate(0.208 0.139648)"/>
</clipPath>
</defs>
</svg>
