<svg width="15" height="24" viewBox="0 0 15 24" fill="none" xmlns="http://www.w3.org/2000/svg">
<g clip-path="url(#clip0_245_2902)">
<path d="M0.332047 11.1748C0.332047 15.0029 2.86135 17.6884 6.58205 18.0009V20.2763H2.959C2.54885 20.2763 2.21682 20.6084 2.21682 21.0185C2.21682 21.4287 2.54885 21.7509 2.959 21.7509H11.6797C12.0898 21.7509 12.4218 21.4287 12.4218 21.0185C12.4218 20.6084 12.0898 20.2763 11.6797 20.2763H8.05666V18.0009C11.7871 17.6884 14.3066 15.0029 14.3066 11.1748V9.19238C14.3066 8.78223 13.9843 8.45996 13.5742 8.45996C13.164 8.45996 12.832 8.78223 12.832 9.19238V11.1162C12.832 14.4463 10.664 16.6533 7.32424 16.6533C3.97463 16.6533 1.80666 14.4463 1.80666 11.1162V9.19238C1.80666 8.78223 1.48439 8.45996 1.06447 8.45996C0.654312 8.45996 0.332047 8.78223 0.332047 9.19238V11.1748ZM3.76955 10.8232C3.76955 13.0693 5.21486 14.6513 7.32424 14.6513C9.42385 14.6513 10.8691 13.0693 10.8691 10.8232V4.68066C10.8691 2.42481 9.42385 0.852539 7.32424 0.852539C5.21486 0.852539 3.76955 2.42481 3.76955 4.68066V10.8232ZM5.24416 10.8232V4.68066C5.24416 3.23535 6.07424 2.30762 7.32424 2.30762C8.57424 2.30762 9.39455 3.23535 9.39455 4.68066V10.8232C9.39455 12.2685 8.57424 13.1963 7.32424 13.1963C6.07424 13.1963 5.24416 12.2685 5.24416 10.8232Z" fill="currentColor" stroke="none" fill-opacity="context-fill-opacity"/>
</g>
<defs>
<clipPath id="clip0_245_2902">
<rect width="14.3359" height="22.2949" fill="white" style="fill:white;fill-opacity:1;" transform="translate(0.332047 0.852539)"/>
</clipPath>
</defs>
</svg>
