<svg width="19" height="24" viewBox="0 0 19 24" fill="none" xmlns="http://www.w3.org/2000/svg">
<g clip-path="url(#clip0_245_2906)">
<path d="M3.81151 9.19238V11.1162C3.81151 14.4463 5.97948 16.6533 9.31933 16.6533C10.325 16.6533 11.2253 16.4532 11.99 16.0792L13.0309 17.1181C12.1727 17.6041 11.1699 17.9078 10.0615 18.0009V20.2763H13.6846C14.0947 20.2763 14.417 20.6084 14.417 21.0185C14.417 21.4287 14.0947 21.7509 13.6846 21.7509H4.95409C4.54394 21.7509 4.22167 21.4287 4.22167 21.0185C4.22167 20.6084 4.54394 20.2763 4.95409 20.2763H8.58689V18.0009C4.85644 17.6884 2.33689 15.0029 2.33689 11.1748V9.19238C2.33689 8.78223 2.65916 8.45996 3.06932 8.45996C3.47948 8.45996 3.81151 8.78223 3.81151 9.19238ZM7.28599 11.3843C7.46013 12.4238 8.13245 13.0942 9.09072 13.1855L10.4048 14.497C10.0688 14.5984 9.70516 14.6513 9.31933 14.6513C7.21972 14.6513 5.76463 13.0693 5.76463 10.8232V9.86591L7.28599 11.3843ZM16.3115 9.19238V11.1748C16.3115 12.3577 16.07 13.4316 15.6251 14.3591L14.495 13.2304C14.7203 12.597 14.8369 11.8866 14.8369 11.1162V9.19238C14.8369 8.78223 15.1592 8.45996 15.5693 8.45996C15.9795 8.45996 16.3115 8.78223 16.3115 9.19238ZM12.874 4.68066V10.8232C12.874 11.0765 12.8556 11.3214 12.8175 11.5551L11.3994 10.1389V4.68066C11.3994 3.23535 10.5693 2.30762 9.31933 2.30762C8.06933 2.30762 7.23925 3.23535 7.23925 4.68066V5.98411L5.77124 4.51801C5.83635 2.34867 7.27118 0.852539 9.31933 0.852539C11.4287 0.852539 12.874 2.42481 12.874 4.68066Z" fill="currentColor" stroke="none" fill-opacity="context-fill-opacity"/>
<path d="M16.4971 18.9678C16.79 19.2608 17.2685 19.2608 17.5615 18.9678C17.8447 18.6651 17.8545 18.1964 17.5615 17.9034L2.45409 2.80568C2.16112 2.52248 1.67284 2.51272 1.37987 2.80568C1.09667 3.09865 1.09667 3.58694 1.37987 3.87014L16.4971 18.9678Z" fill="currentColor" stroke="none" fill-opacity="context-fill-opacity"/>
</g>
<defs>
<clipPath id="clip0_245_2906">
<rect width="18.96" height="22.2949" fill="white" style="fill:white;fill-opacity:1;" transform="translate(0.0200043 0.852539)"/>
</clipPath>
</defs>
</svg>
