<svg width="19" height="22" viewBox="0 0 19 22" fill="none" xmlns="http://www.w3.org/2000/svg">
<g clip-path="url(#clip0_342_731)">
<path d="M17.5273 14.1103C17.9668 14.1103 18.3183 13.7588 18.3183 13.3291V8.67089C18.3183 8.24121 17.9668 7.87988 17.5273 7.87988C17.0781 7.87988 16.7461 8.24121 16.7461 8.67089V13.3291C16.7461 13.7588 17.0781 14.1103 17.5273 14.1103Z" fill="currentColor" stroke="none" fill-opacity="context-fill-opacity"/>
<path d="M14.2461 19.0322C14.6855 19.0322 15.0273 18.6807 15.0273 18.251V3.74903C15.0273 3.31934 14.6855 2.95801 14.2461 2.95801C13.7871 2.95801 13.4551 3.31934 13.4551 3.74903V18.251C13.4551 18.6807 13.7871 19.0322 14.2461 19.0322Z" fill="currentColor" stroke="none" fill-opacity="context-fill-opacity"/>
<path d="M10.9551 16.0732C11.4043 16.0732 11.7461 15.7314 11.7461 15.292V6.708C11.7461 6.26855 11.4043 5.91699 10.9551 5.91699C10.5058 5.91699 10.1738 6.26855 10.1738 6.708V15.292C10.1738 15.7314 10.5058 16.0732 10.9551 16.0732Z" fill="currentColor" stroke="none" fill-opacity="context-fill-opacity"/>
<path d="M7.66405 21.2002C8.11327 21.2002 8.46483 20.8486 8.46483 20.4092V1.59082C8.46483 1.15137 8.11327 0.799805 7.66405 0.799805C7.2246 0.799805 6.89257 1.15137 6.89257 1.59082V20.4092C6.89257 20.8486 7.2246 21.2002 7.66405 21.2002Z" fill="currentColor" stroke="none" fill-opacity="context-fill-opacity"/>
<path d="M4.3828 17.2646C4.83202 17.2646 5.17382 16.9131 5.17382 16.4736V5.52637C5.17382 5.08692 4.83202 4.72559 4.3828 4.72559C3.94335 4.72559 3.60155 5.08692 3.60155 5.52637V16.4736C3.60155 16.9131 3.94335 17.2646 4.3828 17.2646Z" fill="currentColor" stroke="none" fill-opacity="context-fill-opacity"/>
<path d="M1.09178 13.2705C1.55077 13.2705 1.89257 12.9189 1.89257 12.4795V9.52051C1.89257 9.08106 1.55077 8.71973 1.09178 8.71973C0.652328 8.71973 0.320297 9.08106 0.320297 9.52051V12.4795C0.320297 12.9189 0.652328 13.2705 1.09178 13.2705Z" fill="currentColor" stroke="none" fill-opacity="context-fill-opacity"/>
</g>
<defs>
<clipPath id="clip0_342_731">
<rect width="18.3594" height="20.4004" fill="white" style="fill:white;fill-opacity:1;" transform="translate(0.320297 0.799805)"/>
</clipPath>
</defs>
</svg>
