<svg width="23" height="24" viewBox="0 0 23 24" fill="none" xmlns="http://www.w3.org/2000/svg">
<g clip-path="url(#clip0_344_3163)">
<path d="M0.569802 12.6848L3.69138 15.6424C4.34889 16.2748 5.2119 15.7774 5.2119 14.9374V12.8702H10.6269V18.2938H8.54934C7.7072 18.2938 7.21189 19.1672 7.84216 19.8143L10.8019 22.9462C11.2148 23.3739 11.8106 23.3511 12.2068 22.9359L15.1561 19.8143C15.7885 19.1672 15.2911 18.2938 14.4511 18.2938H12.3818V12.8702H17.7864V14.9374C17.7864 15.7774 18.6473 16.2748 19.307 15.6424L22.4182 12.6952C22.8459 12.2926 22.8644 11.6968 22.4285 11.2881L19.307 8.33056C18.6473 7.69816 17.7864 8.19561 17.7864 9.03561V11.1131H12.3818V5.67709H14.4511C15.2911 5.67709 15.7885 4.80372 15.1561 4.15654L12.1986 1.02464C11.7899 0.59906 11.1941 0.617638 10.7915 1.03499L7.84216 4.15654C7.21189 4.80372 7.7072 5.67709 8.54934 5.67709H10.6269V11.1131H5.2119V9.03561C5.2119 8.19561 4.34889 7.69816 3.69138 8.33056L0.580154 11.2778C0.154572 11.6761 0.13176 12.2719 0.569802 12.6848Z" fill="currentColor" stroke="none" fill-opacity="context-fill-opacity"/>
</g>
<defs>
<clipPath id="clip0_344_3163">
<rect width="22.498" height="22.5728" fill="white" style="fill:white;fill-opacity:1;" transform="translate(0.250999 0.713623)"/>
</clipPath>
</defs>
</svg>
