<svg width="25" height="18" viewBox="0 0 25 18" fill="none" xmlns="http://www.w3.org/2000/svg">
<g clip-path="url(#clip0_341_771)">
<path d="M3.87206 17.9892H20.7665C22.8173 17.9892 23.8329 16.9834 23.8329 14.9716V3.03808C23.8329 1.02636 22.8173 0.0107422 20.7665 0.0107422H3.87206C1.83104 0.0107422 0.805649 1.02636 0.805649 3.03808V14.9716C0.805649 16.9834 1.83104 17.9892 3.87206 17.9892ZM3.89159 16.4169C2.91503 16.4169 2.37792 15.8994 2.37792 14.8837V3.12597C2.37792 2.11035 2.91503 1.58301 3.89159 1.58301H20.747C21.7139 1.58301 22.2607 2.11035 22.2607 3.12597V14.8837C22.2607 15.8994 21.7139 16.4169 20.747 16.4169H3.89159Z" fill="currentColor" stroke="none" fill-opacity="context-fill-opacity"/>
<path d="M10.0635 14.0927C10.4931 14.0927 10.7861 13.7607 10.7861 13.3115V8.83887C10.7861 8.2627 10.4638 8.03809 9.96581 8.03809H5.47362C5.01463 8.03809 4.72167 8.3213 4.72167 8.75098C4.72167 9.18067 5.0244 9.46387 5.49315 9.46387H7.13377L8.57909 9.30763L7.05565 10.7236L4.10643 13.6728C3.96971 13.8095 3.87206 14.0048 3.87206 14.2002C3.87206 14.6396 4.15526 14.9228 4.59471 14.9228C4.82909 14.9228 5.00487 14.8349 5.14159 14.6982L8.09081 11.7587L9.49706 10.2548L9.35057 11.7685V13.331C9.35057 13.79 9.63377 14.0927 10.0635 14.0927Z" fill="currentColor" stroke="none" fill-opacity="context-fill-opacity"/>
</g>
<defs>
<clipPath id="clip0_341_771">
<rect width="23.3887" height="17.9785" fill="white" style="fill:white;fill-opacity:1;" transform="translate(0.805649 0.0107422)"/>
</clipPath>
</defs>
</svg>
