<svg width="17" height="22" viewBox="0 0 17 22" fill="none" xmlns="http://www.w3.org/2000/svg">
<g clip-path="url(#clip0_362_828)">
<path d="M3.91504 9.85254C4.17872 9.85254 4.34473 9.71582 4.43262 9.38379L4.76465 8.41699H6.60059L6.95215 9.38379C7.04004 9.70606 7.20606 9.85254 7.45997 9.85254C7.792 9.85254 7.97754 9.66699 7.97754 9.35449C7.97754 9.28614 7.95801 9.15918 7.91895 9.03223L6.4834 5.05762C6.33692 4.64746 6.09278 4.45215 5.67286 4.45215C5.28223 4.45215 5.04786 4.64746 4.90137 5.05762L3.46583 9.03223C3.417 9.14942 3.39747 9.28614 3.39747 9.35449C3.39747 9.66699 3.59278 9.85254 3.91504 9.85254ZM4.98926 7.60645L5.65333 5.55567H5.71192L6.38575 7.60645H4.98926ZM9.67676 6.1416H12.6552C12.997 6.1416 13.2607 5.87793 13.2607 5.53614C13.2607 5.2041 12.997 4.94043 12.6552 4.94043H9.67676C9.31543 4.94043 9.06153 5.2041 9.06153 5.53614C9.06153 5.87793 9.31543 6.1416 9.67676 6.1416ZM9.67676 9.54981H12.6552C12.997 9.54981 13.2607 9.28614 13.2607 8.94434C13.2607 8.61231 12.997 8.34864 12.6552 8.34864H9.67676C9.31543 8.34864 9.06153 8.61231 9.06153 8.94434C9.06153 9.28614 9.31543 9.54981 9.67676 9.54981ZM3.34864 17.626H4.03223L5.32129 16.3272C5.50684 16.1514 5.70215 16.083 5.89747 16.083C6.09278 16.083 6.30762 16.1612 6.49317 16.3272L7.29395 17.0596L9.2959 15.2823C9.52051 15.0869 9.75489 14.9991 9.9795 14.9991C10.2236 14.9991 10.4775 15.0772 10.6533 15.2823L12.6064 17.5284H13.29V12.8604C13.29 12.001 12.8408 11.5616 11.9814 11.5616H4.667C3.83692 11.5616 3.34864 12.001 3.34864 12.8604V17.626ZM6.57129 15.2823C5.98536 15.2823 5.51661 14.794 5.51661 14.2276C5.51661 13.6416 5.98536 13.1534 6.57129 13.1729C7.14747 13.1924 7.62598 13.6416 7.62598 14.2276C7.62598 14.794 7.14747 15.2823 6.57129 15.2823ZM0.106449 18.4073C0.106449 20.4483 1.11231 21.4639 3.13379 21.4639H13.5048C15.5264 21.4639 16.5322 20.4483 16.5322 18.4073V3.59278C16.5322 1.56153 15.5264 0.526367 13.5048 0.526367H3.13379C1.11231 0.526367 0.106449 1.56153 0.106449 3.59278V18.4073ZM1.67872 18.378V3.62207C1.67872 2.64551 2.19629 2.09864 3.21192 2.09864H13.4267C14.4423 2.09864 14.9599 2.64551 14.9599 3.62207V18.378C14.9599 19.3545 14.4423 19.8916 13.4267 19.8916H3.21192C2.19629 19.8916 1.67872 19.3545 1.67872 18.378Z" fill="currentColor" stroke="none" fill-opacity="context-fill-opacity"/>
</g>
<defs>
<clipPath id="clip0_362_828">
<rect width="16.7871" height="20.9473" fill="white" style="fill:white;fill-opacity:1;" transform="translate(0.106449 0.526367)"/>
</clipPath>
</defs>
</svg>
