<svg width="25" height="20" viewBox="0 0 25 20" fill="none" xmlns="http://www.w3.org/2000/svg">
<g clip-path="url(#clip0_341_757)">
<path d="M13.1933 19.6826C17.3046 19.6826 20.0488 18.2276 20.0488 16.0791C20.0488 14.1553 18.4082 13.7256 18.4082 12.5928C18.4082 11.0303 24.082 10.7178 24.082 6.7041C24.082 2.73926 19.9902 0.12207 13.916 0.12207C5.93751 0.12207 0.556648 4.10645 0.556648 10.0732C0.556648 15.8155 5.66407 19.6826 13.1933 19.6826ZM13.1933 18.0127C6.58204 18.0127 2.22657 14.8291 2.22657 10.0732C2.22657 5.09277 6.85548 1.79199 13.916 1.79199C19.0429 1.79199 22.4121 3.78418 22.4121 6.7041C22.4121 10.1123 16.6992 9.65332 16.6992 12.6026C16.6992 14.2725 18.3789 14.7998 18.3789 15.9522C18.3789 17.1924 16.3378 18.0127 13.1933 18.0127ZM12.3925 15.708C13.8769 15.708 15.0976 14.4873 15.0976 12.9932C15.0976 11.5186 13.8769 10.2979 12.3925 10.2979C10.9082 10.2979 9.68751 11.5186 9.68751 12.9932C9.68751 14.4873 10.9082 15.708 12.3925 15.708ZM12.3925 14.5752C11.5234 14.5752 10.8203 13.8721 10.8203 12.9932C10.8203 12.0264 11.5625 11.4502 12.373 11.4405C13.2031 11.4307 13.9648 11.9971 13.9648 12.9932C13.9648 13.8721 13.2714 14.5752 12.3925 14.5752Z" fill="currentColor" stroke="none" fill-opacity="context-fill-opacity"/>
<path d="M5.48829 11.4112C6.38673 11.4112 7.10938 10.669 7.10938 9.77051C7.10938 8.87207 6.38673 8.14941 5.48829 8.14941C4.59962 8.14941 3.8672 8.87207 3.8672 9.77051C3.8672 10.669 4.59962 11.4112 5.48829 11.4112Z" fill="currentColor" stroke="none" fill-opacity="context-fill-opacity"/>
<path d="M9.05274 8.28613C10.1856 8.28613 11.1035 7.37793 11.1035 6.22559C11.1035 5.10254 10.1758 4.2041 9.05274 4.2041C7.91017 4.2041 6.9922 5.10254 6.9922 6.22559C6.9922 7.37793 7.91017 8.28613 9.05274 8.28613Z" fill="currentColor" stroke="none" fill-opacity="context-fill-opacity"/>
<path d="M14.0039 6.7041C14.9218 6.7041 15.6445 5.97168 15.6445 5.05371C15.6445 4.14551 14.9218 3.41309 14.0039 3.41309C13.1054 3.41309 12.3535 4.14551 12.3535 5.05371C12.3535 5.97168 13.1054 6.7041 14.0039 6.7041Z" fill="currentColor" stroke="none" fill-opacity="context-fill-opacity"/>
<path d="M18.4668 7.3291C19.1992 7.3291 19.7851 6.7334 19.7851 5.99121C19.7851 5.25879 19.1992 4.66309 18.4668 4.66309C17.7246 4.66309 17.1191 5.25879 17.1191 5.99121C17.1191 6.7334 17.7246 7.3291 18.4668 7.3291Z" fill="currentColor" stroke="none" fill-opacity="context-fill-opacity"/>
</g>
<defs>
<clipPath id="clip0_341_757">
<rect width="23.8867" height="19.7559" fill="white" style="fill:white;fill-opacity:1;" transform="translate(0.556648 0.12207)"/>
</clipPath>
</defs>
</svg>
