<svg width="15" height="26" viewBox="0 0 15 26" fill="none" xmlns="http://www.w3.org/2000/svg">
<g clip-path="url(#clip0_251_741)">
<path d="M6.64061 24.8311C7.05077 25.1729 7.60741 25.2217 7.99803 24.8409L11.0156 21.8233C11.3965 21.4327 11.3769 20.8467 11.0058 20.4659L9.49217 18.962L11.6992 16.7647C12.0801 16.3936 12.0605 15.7979 11.6894 15.4073L9.64842 13.3565C12.334 12.0674 13.8476 9.87988 13.8476 7.28222C13.8476 3.67871 10.9277 0.768555 7.3242 0.768555C3.69139 0.768555 0.791 3.65917 0.791 7.28222C0.791 9.89941 2.29491 12.2237 4.66795 13.2686V22.4874C4.66795 22.8096 4.76561 23.1807 5.04881 23.4346L6.64061 24.8311ZM7.3242 23.2881L6.24022 22.2139V12.1358C3.9453 11.6182 2.3535 9.63574 2.3535 7.28222C2.3535 4.54785 4.5703 2.34082 7.3242 2.34082C10.0683 2.34082 12.2754 4.54785 12.2754 7.28222C12.2754 9.61621 10.6738 11.6182 8.22264 12.2041V14.1768L10.1367 16.1006L8.06639 18.1416V19.7627L9.45311 21.1299L7.3242 23.2881ZM7.3242 6.98925C8.19334 6.98925 8.90623 6.27636 8.90623 5.39746C8.90623 4.52832 8.19334 3.82519 7.3242 3.82519C6.43553 3.82519 5.74217 4.52832 5.74217 5.39746C5.74217 6.27636 6.4453 6.98925 7.3242 6.98925Z" fill="currentColor" stroke="none" fill-opacity="context-fill-opacity"/>
</g>
<defs>
<clipPath id="clip0_251_741">
<rect width="13.418" height="24.4629" fill="white" style="fill:white;fill-opacity:1;" transform="translate(0.791 0.768555)"/>
</clipPath>
</defs>
</svg>
