<svg width="19" height="18" viewBox="0 0 19 18" fill="none" xmlns="http://www.w3.org/2000/svg">
<g clip-path="url(#clip0_344_3186)">
<path d="M3.39651 17.9892H15.2422C17.293 17.9892 18.3086 16.9834 18.3086 14.9716V3.03808C18.3086 1.02636 17.293 0.0107422 15.2422 0.0107422H3.39651C1.35549 0.0107422 0.330101 1.02636 0.330101 3.03808V14.9716C0.330101 16.9834 1.35549 17.9892 3.39651 17.9892ZM3.41604 16.4169C2.43948 16.4169 1.90237 15.8994 1.90237 14.8837V3.12597C1.90237 2.11035 2.43948 1.58301 3.41604 1.58301H15.2227C16.1895 1.58301 16.7363 2.11035 16.7363 3.12597V14.8837C16.7363 15.8994 16.1895 16.4169 15.2227 16.4169H3.41604Z" fill="currentColor" stroke="none" fill-opacity="context-fill-opacity"/>
<path d="M4.66604 6.91505H9.55862V5.62598H4.66604C4.29494 5.62598 4.01174 5.91895 4.01174 6.27052C4.01174 6.63184 4.29494 6.91505 4.66604 6.91505ZM10.916 8.24317C12 8.24317 12.8887 7.3545 12.8887 6.26075C12.8887 5.17677 12 4.28809 10.916 4.28809C9.83205 4.28809 8.94338 5.17677 8.94338 6.26075C8.94338 7.3545 9.83205 8.24317 10.916 8.24317ZM10.916 7.23731C10.3692 7.23731 9.94924 6.80763 9.94924 6.26075C9.94924 5.70411 10.3692 5.29395 10.916 5.29395C11.4531 5.29395 11.8828 5.70411 11.8828 6.26075C11.8828 6.80763 11.4531 7.23731 10.916 7.23731ZM12.2051 6.91505H14.0117C14.3438 6.91505 14.6367 6.63184 14.6367 6.27052C14.6367 5.91895 14.3438 5.62598 14.0117 5.62598H12.2051V6.91505ZM13.9727 10.8896H9.08987V12.1787H13.9727C14.3438 12.1787 14.6367 11.8857 14.6367 11.5341C14.6367 11.1728 14.3438 10.8896 13.9727 10.8896ZM7.72268 9.55177C6.63869 9.55177 5.75002 10.4404 5.75002 11.5439C5.75002 12.6279 6.63869 13.5166 7.72268 13.5166C8.80666 13.5166 9.69533 12.6279 9.69533 11.5439C9.69533 10.4404 8.80666 9.55177 7.72268 9.55177ZM7.72268 10.5673C8.26955 10.5673 8.68948 10.997 8.68948 11.5439C8.68948 12.0908 8.26955 12.5107 7.72268 12.5107C7.18557 12.5107 6.75588 12.0908 6.75588 11.5439C6.75588 10.997 7.18557 10.5673 7.72268 10.5673ZM6.44338 10.8896H4.62698C4.29494 10.8896 4.01174 11.1728 4.01174 11.5341C4.01174 11.8857 4.29494 12.1787 4.62698 12.1787H6.44338V10.8896Z" fill="currentColor" stroke="none" fill-opacity="context-fill-opacity"/>
</g>
<defs>
<clipPath id="clip0_344_3186">
<rect width="18.3398" height="17.9785" fill="white" style="fill:white;fill-opacity:1;" transform="translate(0.330101 0.0107422)"/>
</clipPath>
</defs>
</svg>
