<svg width="25" height="18" viewBox="0 0 25 18" fill="none" xmlns="http://www.w3.org/2000/svg">
<g clip-path="url(#clip0_341_740)">
<path d="M0.791 12.9405C0.791 15.4209 2.71483 17.3448 5.42967 17.3448H19.209C21.9238 17.3448 23.8476 15.4209 23.8476 12.9405C23.8476 12.208 23.6328 11.5537 23.3789 10.9385L20.0879 3.03808C19.4433 1.47559 18.1152 0.674805 16.3672 0.674805H8.27147C6.52342 0.674805 5.1953 1.47559 4.55077 3.03808L1.24998 10.9385C1.00584 11.544 0.791 12.208 0.791 12.9405ZM2.36327 12.9405C2.36327 11.3291 3.58397 10.1084 5.42967 10.1084H19.209C21.0547 10.1084 22.2754 11.3291 22.2754 12.9405C22.2754 14.7471 21.0547 15.7725 19.209 15.7725H5.42967C3.58397 15.7725 2.36327 14.5518 2.36327 12.9405ZM3.9453 8.79004L6.0742 3.43847C6.4453 2.51074 7.24608 2.04199 8.34959 2.04199H16.289C17.3926 2.04199 18.1933 2.51074 18.5644 3.43847L20.6933 8.79004C20.2344 8.62402 19.7461 8.53613 19.209 8.53613H5.42967C4.89256 8.53613 4.39452 8.62402 3.9453 8.79004ZM17.9687 12.9405C17.9687 13.6241 18.5351 14.1514 19.1992 14.1514C19.8535 14.1514 20.4101 13.6143 20.4101 12.9405C20.4101 12.2862 19.8535 11.7295 19.1992 11.7295C18.5351 11.7295 17.9687 12.2862 17.9687 12.9405Z" fill="currentColor" stroke="none" fill-opacity="context-fill-opacity"/>
</g>
<defs>
<clipPath id="clip0_341_740">
<rect width="23.418" height="16.6895" fill="white" style="fill:white;fill-opacity:1;" transform="translate(0.791 0.655273)"/>
</clipPath>
</defs>
</svg>
