<svg width="35" height="24" viewBox="0 0 35 24" fill="none" xmlns="http://www.w3.org/2000/svg">
<path d="M25.083 6.03808L28.374 13.9385C28.6279 14.5537 28.8428 15.208 28.8428 15.9404C28.8428 18.4209 26.919 20.3447 24.2041 20.3447H12.5487C12.8688 19.8627 13.1202 19.3336 13.2923 18.7725H24.2041C26.0498 18.7725 27.2705 17.7471 27.2705 15.9404C27.2705 14.3291 26.0498 13.1084 24.2041 13.1084H12.2364C11.7508 12.4746 11.144 11.9387 10.4507 11.5362L24.2041 11.5361C24.7412 11.5361 25.2295 11.624 25.6885 11.7901L23.5596 6.43847C23.1885 5.51074 22.3877 5.04199 21.2842 5.04199H13.3447C12.2412 5.04199 11.4405 5.51074 11.0694 6.43847L9.25951 10.988C8.73783 10.8067 8.18403 10.6975 7.60881 10.6745L9.54592 6.03808C10.1905 4.47558 11.5186 3.6748 13.2666 3.6748H21.3623C23.1104 3.6748 24.4385 4.47558 25.083 6.03808ZM25.4053 15.9404C25.4053 16.6143 24.8487 17.1514 24.1944 17.1514C23.5303 17.1514 22.9639 16.624 22.9639 15.9404C22.9639 15.2861 23.5303 14.7295 24.1944 14.7295C24.8487 14.7295 25.4053 15.2861 25.4053 15.9404Z" fill="currentColor" stroke="none" fill-opacity="context-fill-opacity"/>
<path d="M12.2315 16.9561C12.2315 19.6611 9.95608 21.917 7.27053 21.917C4.55568 21.917 2.30959 19.6807 2.30959 16.9561C2.30959 14.2315 4.55568 11.9951 7.27053 11.9951C9.99514 11.9951 12.2315 14.2315 12.2315 16.9561ZM8.67678 14.6416L7.251 16.0772L5.92287 14.7588C5.6885 14.5342 5.3174 14.544 5.08303 14.7588C4.84865 14.9834 4.85842 15.3545 5.08303 15.5987L6.40139 16.9268L4.96584 18.3526C4.71193 18.6162 4.751 18.9971 4.99514 19.2315C5.23928 19.4756 5.62014 19.5147 5.87404 19.2608L7.30959 17.8252L8.62795 19.1436C8.86232 19.3682 9.23342 19.3682 9.46779 19.1436C9.70217 18.919 9.6924 18.5381 9.46779 18.3037L8.14943 16.9854L9.58498 15.5498C9.83889 15.2959 9.79982 14.9151 9.55568 14.6709C9.31154 14.4365 8.93068 14.3877 8.67678 14.6416Z" fill="currentColor" stroke="none" fill-opacity="context-fill-opacity"/>
</svg>
