<svg width="17" height="24" viewBox="0 0 17 24" fill="none" xmlns="http://www.w3.org/2000/svg">
<g clip-path="url(#clip0_245_2965)">
<path d="M8.32424 23.6845C8.55862 23.6845 9.18362 22.4443 9.18362 20.9502V15.5888H7.4551V20.9502C7.4551 22.4443 8.0801 23.6845 8.32424 23.6845ZM2.1719 16.3896H14.4669C15.3458 16.3896 15.9024 15.8427 15.9024 15.0127C15.9024 12.1416 12.6993 9.24121 8.32424 9.24121C3.93947 9.24121 0.736351 12.1416 0.736351 15.0127C0.736351 15.8427 1.29299 16.3896 2.1719 16.3896ZM2.56252 14.915C2.33791 14.915 2.24026 14.7881 2.27932 14.5244C2.49416 12.7666 4.74026 10.667 8.32424 10.667C11.8985 10.667 14.1446 12.7666 14.3594 14.5244C14.3985 14.7881 14.3009 14.915 14.0762 14.915H2.56252ZM1.97658 1.95605C1.97658 2.23926 2.09377 2.57129 2.34768 2.90332C2.84573 3.56738 4.02737 4.48535 5.25783 5.2959L4.89651 10.4521H6.45901L6.82033 4.57324C6.8301 4.43652 6.81057 4.3877 6.71291 4.33887C5.24807 3.58691 4.11526 2.69824 4.03713 2.50293C3.95901 2.37598 4.03713 2.29785 4.14455 2.29785H12.4942C12.6016 2.29785 12.6798 2.37598 12.6016 2.50293C12.5235 2.69824 11.3907 3.58691 9.9258 4.33887C9.83791 4.3877 9.80862 4.43652 9.82815 4.57324L10.1797 10.4521H11.7423L11.3809 5.2959C12.6212 4.48535 13.793 3.56738 14.2911 2.90332C14.5548 2.57129 14.6719 2.23926 14.6719 1.95605C14.6719 1.36035 14.213 0.920898 13.5294 0.920898H3.11916C2.4258 0.920898 1.97658 1.36035 1.97658 1.95605Z" fill="currentColor" stroke="none" fill-opacity="context-fill-opacity"/>
</g>
<defs>
<clipPath id="clip0_245_2965">
<rect width="15.5273" height="23.3691" fill="white" style="fill:white;fill-opacity:1;" transform="translate(0.736351 0.31543)"/>
</clipPath>
</defs>
</svg>
