<svg width="17" height="18" viewBox="0 0 17 18" fill="none" xmlns="http://www.w3.org/2000/svg">
<g clip-path="url(#clip0_245_3052)">
<path d="M0.262703 8.99512C0.262703 9.47364 0.663094 9.86426 1.13184 9.86426H7.4502V16.1826C7.4502 16.6514 7.84082 17.0518 8.31934 17.0518C8.79786 17.0518 9.19825 16.6514 9.19825 16.1826V9.86426H15.5068C15.9756 9.86426 16.376 9.47364 16.376 8.99512C16.376 8.5166 15.9756 8.11621 15.5068 8.11621H9.19825V1.80762C9.19825 1.33887 8.79786 0.938477 8.31934 0.938477C7.84082 0.938477 7.4502 1.33887 7.4502 1.80762V8.11621H1.13184C0.663094 8.11621 0.262703 8.5166 0.262703 8.99512Z" fill="currentColor" stroke="none" fill-opacity="context-fill-opacity"/>
</g>
<defs>
<clipPath id="clip0_245_3052">
<rect width="16.4746" height="16.123" fill="white" style="fill:white;fill-opacity:1;" transform="translate(0.262703 0.938477)"/>
</clipPath>
</defs>
</svg>
