<svg width="25" height="20" viewBox="0 0 25 20" fill="none" xmlns="http://www.w3.org/2000/svg">
<g clip-path="url(#clip0_341_906)">
<path d="M19.6436 3.12988V4.62402H18.0713V3.21777C18.0713 2.20215 17.5147 1.67481 16.5479 1.67481H3.25684C2.28028 1.67481 1.74317 2.20215 1.74317 3.21777V12.2607C1.74317 13.2763 2.29981 13.7939 3.25684 13.7939H4.99512V15.3662H3.23731C1.18652 15.3662 0.170898 14.3603 0.170898 12.3388V3.12988C0.170898 1.11816 1.18652 0.102539 3.23731 0.102539H16.5771C18.6084 0.102539 19.6436 1.11816 19.6436 3.12988Z" fill="currentColor" stroke="none" fill-opacity="context-fill-opacity"/>
<path d="M8.06152 19.8877H21.4014C23.4326 19.8877 24.4678 18.872 24.4678 16.8603V7.65137C24.4678 5.63965 23.4326 4.62402 21.4014 4.62402H8.06152C6.01074 4.62402 4.99512 5.63965 4.99512 7.65137V16.8603C4.99512 18.8818 6.01074 19.8877 8.06152 19.8877ZM8.09082 7.96387C7.61231 7.96387 7.22168 7.54395 7.22168 7.09473C7.22168 6.62598 7.61231 6.21582 8.09082 6.21582C8.56934 6.21582 8.95996 6.62598 8.95996 7.09473C8.95996 7.54395 8.56934 7.96387 8.09082 7.96387ZM10.8936 7.96387C10.415 7.96387 10.0244 7.55371 10.0244 7.09473C10.0244 6.62598 10.415 6.21582 10.8936 6.21582C11.3721 6.21582 11.7627 6.62598 11.7627 7.09473C11.7627 7.55371 11.3721 7.96387 10.8936 7.96387ZM13.6963 7.96387C13.2178 7.96387 12.8271 7.55371 12.8271 7.09473C12.8271 6.62598 13.2178 6.21582 13.6963 6.21582C14.1748 6.21582 14.5654 6.62598 14.5654 7.09473C14.5654 7.55371 14.1748 7.96387 13.6963 7.96387ZM8.08106 18.3154C7.10449 18.3154 6.56738 17.7978 6.56738 16.7822V9.55566H22.8955V16.7822C22.8955 17.7978 22.3389 18.3154 21.3721 18.3154H8.08106Z" fill="currentColor" stroke="none" fill-opacity="context-fill-opacity"/>
</g>
<defs>
<clipPath id="clip0_341_906">
<rect width="24.6582" height="19.7949" fill="white" style="fill:white;fill-opacity:1;" transform="translate(0.170898 0.102539)"/>
</clipPath>
</defs>
</svg>
