<svg width="23" height="22" viewBox="0 0 23 22" fill="none" xmlns="http://www.w3.org/2000/svg">
<g clip-path="url(#clip0_245_2951)">
<path d="M18.4824 3.39746V3.91504H16.9688V3.29004C16.9688 2.46973 16.5585 2.06934 15.7382 2.06934H6.90038C6.08983 2.06934 5.66991 2.46973 5.66991 3.29004V3.91504H4.15624V3.39746C4.15624 1.49317 5.20116 0.643555 6.91991 0.643555H15.7187C17.5351 0.643555 18.4824 1.49317 18.4824 3.39746Z" fill="currentColor" stroke="none" fill-opacity="context-fill-opacity"/>
<path d="M22.3495 6.77637V15.917C22.3495 17.8213 21.3437 18.7783 19.4492 18.7783H18.414V17.3037H19.4687C20.3281 17.3037 20.7773 16.8545 20.7773 15.9951V6.69824C20.7773 5.83887 20.3281 5.38965 19.4687 5.38965H3.17967C2.31053 5.38965 1.87108 5.83887 1.87108 6.69824V15.9951C1.87108 16.8545 2.31053 17.3037 3.17967 17.3037H4.2246V18.7783H3.19921C1.29491 18.7783 0.289047 17.8213 0.289047 15.917V6.77637C0.289047 4.88184 1.39257 3.91504 3.19921 3.91504H19.4492C21.3437 3.91504 22.3495 4.88184 22.3495 6.77637ZM18.4921 7.7041C18.4921 8.37793 17.9355 8.92481 17.2812 8.92481C16.6074 8.92481 16.0605 8.37793 16.0605 7.7041C16.0605 7.04981 16.6074 6.49317 17.2812 6.49317C17.9355 6.49317 18.4921 7.04981 18.4921 7.7041Z" fill="currentColor" stroke="none" fill-opacity="context-fill-opacity"/>
<path d="M6.08983 21.6787H16.5488C17.789 21.6787 18.414 21.1123 18.414 19.8135V11.8447C18.414 10.5459 17.789 9.97949 16.5488 9.97949H6.08983C4.90819 9.97949 4.2246 10.5459 4.2246 11.8447V19.8135C4.2246 21.1123 4.8496 21.6787 6.08983 21.6787ZM6.57811 20.2041C6.06053 20.2041 5.79686 19.9502 5.79686 19.4229V12.2256C5.79686 11.6983 6.06053 11.4541 6.57811 11.4541H16.0702C16.5976 11.4541 16.8417 11.6983 16.8417 12.2256V19.4229C16.8417 19.9502 16.5976 20.2041 16.0702 20.2041H6.57811ZM7.93553 14.7256H14.7226C15.0742 14.7256 15.3281 14.4619 15.3281 14.1104C15.3281 13.7783 15.0742 13.5244 14.7226 13.5244H7.93553C7.58397 13.5244 7.3203 13.7783 7.3203 14.1104C7.3203 14.4619 7.58397 14.7256 7.93553 14.7256ZM7.93553 18.1338H14.7226C15.0742 18.1338 15.3281 17.8701 15.3281 17.5381C15.3281 17.1963 15.0742 16.9326 14.7226 16.9326H7.93553C7.58397 16.9326 7.3203 17.1963 7.3203 17.5381C7.3203 17.8701 7.58397 18.1338 7.93553 18.1338Z" fill="currentColor" stroke="none" fill-opacity="context-fill-opacity"/>
</g>
<defs>
<clipPath id="clip0_245_2951">
<rect width="22.4219" height="21.3574" fill="white" style="fill:white;fill-opacity:1;" transform="translate(0.289047 0.321289)"/>
</clipPath>
</defs>
</svg>
