<svg width="19" height="24" viewBox="0 0 19 24" fill="none" xmlns="http://www.w3.org/2000/svg">
<g clip-path="url(#clip0_256_855)">
<path d="M9.01171 22.1416C12.4394 22.1416 14.8613 20.2861 16.1601 16.624L17.8789 11.79C17.9961 11.458 18.0547 11.1357 18.0547 10.8428C18.0547 9.80762 17.2734 9.08496 16.2773 9.08496C15.6035 9.08496 14.998 9.48536 14.666 10.2568L14.0312 11.8193C14.0117 11.8584 13.9824 11.8877 13.9433 11.8877C13.8945 11.8877 13.875 11.8486 13.875 11.7998V3.96778C13.875 2.8252 13.1621 2.10254 12.0683 2.10254C11.668 2.10254 11.3066 2.24903 11.0332 2.50293C10.9062 1.49707 10.2617 0.881836 9.29491 0.881836C8.34764 0.881836 7.68358 1.5166 7.5371 2.4834C7.29296 2.23926 6.94139 2.10254 6.58983 2.10254C5.57421 2.10254 4.90038 2.81543 4.90038 3.89942V4.9834C4.63671 4.70996 4.23632 4.56348 3.82616 4.56348C2.81053 4.56348 2.10741 5.30567 2.10741 6.40918V14.7978C2.10741 19.3681 4.88085 22.1416 9.01171 22.1416ZM8.96288 20.7939C5.50585 20.7939 3.39647 18.5673 3.39647 14.6416V6.5459C3.39647 6.12598 3.66014 5.84278 4.0703 5.84278C4.47069 5.84278 4.76366 6.12598 4.76366 6.5459V11.5361C4.76366 11.8974 5.05663 12.1416 5.36913 12.1416C5.70116 12.1416 6.00389 11.8974 6.00389 11.5361V4.0752C6.00389 3.65528 6.26757 3.36231 6.66796 3.36231C7.07811 3.36231 7.36132 3.65528 7.36132 4.0752V11.038C7.36132 11.3994 7.65428 11.6435 7.97655 11.6435C8.30858 11.6435 8.60155 11.3994 8.60155 11.038V2.86426C8.60155 2.44434 8.88475 2.14161 9.29491 2.14161C9.68553 2.14161 9.96874 2.44434 9.96874 2.86426V11.038C9.96874 11.3798 10.2422 11.6435 10.584 11.6435C10.916 11.6435 11.209 11.3798 11.209 11.038V4.0752C11.209 3.65528 11.4922 3.36231 11.8926 3.36231C12.293 3.36231 12.5762 3.65528 12.5762 4.0752V13.6845C12.5762 14.1728 12.8594 14.456 13.2695 14.456C13.6211 14.456 13.9141 14.2998 14.1387 13.8115L15.5449 10.6768C15.7305 10.2568 16.0918 10.1104 16.4336 10.2373C16.8144 10.374 16.9316 10.7354 16.7558 11.2138L14.9687 16.2041C13.7773 19.5341 11.6875 20.7939 8.96288 20.7939Z" fill="currentColor" stroke="none" fill-opacity="context-fill-opacity"/>
</g>
<defs>
<clipPath id="clip0_256_855">
<rect width="17.1094" height="22.2363" fill="white" style="fill:white;fill-opacity:1;" transform="translate(0.945297 0.881836)"/>
</clipPath>
</defs>
</svg>
