<svg width="33" height="14" viewBox="0 0 33 14" fill="none" xmlns="http://www.w3.org/2000/svg">
<g clip-path="url(#clip0_341_730)">
<path d="M8.89257 13.0889C12.2519 13.0889 14.9765 10.3643 14.9765 6.99512C14.9765 3.63575 12.2519 0.901367 8.89257 0.901367C5.52343 0.901367 2.78905 3.63575 2.78905 6.99512C2.78905 10.3643 5.52343 13.0889 8.89257 13.0889ZM8.89257 11.4385C6.43163 11.4385 4.43944 9.45606 4.43944 6.99512C4.43944 4.54395 6.43163 2.55176 8.89257 2.55176C11.3339 2.55176 13.3261 4.55371 13.3261 6.99512C13.3261 9.44629 11.3339 11.4385 8.89257 11.4385ZM23.7656 13.0889C27.1249 13.0889 29.8495 10.3643 29.8495 6.99512C29.8495 3.63575 27.1249 0.901367 23.7656 0.901367C20.3964 0.901367 17.662 3.63575 17.662 6.99512C17.662 10.3643 20.3964 13.0889 23.7656 13.0889ZM23.7656 11.4385C21.3144 11.4385 19.3124 9.44629 19.3124 6.99512C19.3124 4.55371 21.3144 2.55176 23.7656 2.55176C26.2167 2.55176 28.1992 4.54395 28.1992 6.99512C28.1992 9.45606 26.2167 11.4385 23.7656 11.4385ZM3.43358 5.79395H1.64647C1.16795 5.79395 0.914047 6.03809 0.914047 6.52637V6.92676C0.914047 7.41504 1.16795 7.66895 1.64647 7.66895H3.43358V5.79395ZM29.205 7.66895H31.0019C31.4804 7.66895 31.7245 7.41504 31.7245 6.92676V6.52637C31.7245 6.03809 31.4804 5.79395 31.0019 5.79395H29.205V7.66895ZM14.498 7.34668C14.9863 7.04395 15.6699 6.8877 16.3242 6.8877C16.9687 6.8877 17.6523 7.04395 18.1503 7.34668V5.5791C17.5937 5.31543 16.871 5.21778 16.3242 5.21778C15.7675 5.21778 15.0449 5.31543 14.498 5.5791V7.34668Z" fill="currentColor" stroke="none" fill-opacity="context-fill-opacity"/>
</g>
<defs>
<clipPath id="clip0_341_730">
<rect width="31.1719" height="12.1973" fill="white" style="fill:white;fill-opacity:1;" transform="translate(0.914047 0.901367)"/>
</clipPath>
</defs>
</svg>
