<svg width="19" height="24" viewBox="0 0 19 24" fill="none" xmlns="http://www.w3.org/2000/svg">
<g clip-path="url(#clip0_245_3111)">
<path d="M0.696297 12.7177C0.696297 17.4834 4.55372 21.3408 9.31935 21.3408C14.085 21.3408 17.9424 17.4834 17.9424 12.7177C17.9424 12.2392 17.6104 11.8974 17.1318 11.8974C16.6729 11.8974 16.3701 12.2392 16.3701 12.708C16.3701 16.6045 13.2158 19.7588 9.31935 19.7588C5.42286 19.7588 2.26857 16.6045 2.26857 12.708C2.26857 8.81152 5.42286 5.65723 9.31935 5.65723C10.0713 5.65723 10.7549 5.70605 11.3311 5.84277L8.42091 8.7334C8.25489 8.87988 8.1963 9.08496 8.1963 9.29004C8.1963 9.73926 8.52833 10.0713 8.95802 10.0713C9.20216 10.0713 9.37794 9.9834 9.52442 9.84668L13.5479 5.80371C13.7236 5.6377 13.8018 5.44238 13.8018 5.21777C13.8018 5.00293 13.7139 4.78809 13.5479 4.63184L9.53419 0.549805C9.38771 0.393555 9.20216 0.31543 8.95802 0.31543C8.52833 0.31543 8.1963 0.666992 8.1963 1.11621C8.1963 1.32129 8.26466 1.5166 8.41114 1.67285L10.999 4.26074C10.501 4.16309 9.91505 4.09473 9.31935 4.09473C4.55372 4.09473 0.696297 7.95215 0.696297 12.7177Z" fill="currentColor" stroke="none" fill-opacity="context-fill-opacity"/>
</g>
<defs>
<clipPath id="clip0_245_3111">
<rect width="17.6074" height="23.3691" fill="white" style="fill:white;fill-opacity:1;" transform="translate(0.696297 0.31543)"/>
</clipPath>
</defs>
</svg>
