<svg width="17" height="16" viewBox="0 0 17 16" fill="none" xmlns="http://www.w3.org/2000/svg">
<g clip-path="url(#clip0_362_937)">
<path d="M0.8291 15.4953C1.1709 15.8274 1.7373 15.8274 2.06933 15.4953L8.31933 9.24537L14.5693 15.4953C14.9014 15.8274 15.4775 15.8371 15.8096 15.4953C16.1416 15.1535 16.1416 14.5969 15.8096 14.2649L9.55957 8.00514L15.8096 1.75514C16.1416 1.42311 16.1514 0.856702 15.8096 0.524671C15.4678 0.182874 14.9014 0.182874 14.5693 0.524671L8.31933 6.77467L2.06933 0.524671C1.7373 0.182874 1.16113 0.173109 0.8291 0.524671C0.497068 0.866468 0.497068 1.42311 0.8291 1.75514L7.0791 8.00514L0.8291 14.2649C0.497068 14.5969 0.487303 15.1633 0.8291 15.4953Z" fill="currentColor" stroke="none" fill-opacity="context-fill-opacity"/>
</g>
<defs>
<clipPath id="clip0_362_937">
<rect width="15.8472" height="15.4956" fill="white" style="fill:white;fill-opacity:1;" transform="translate(0.576401 0.252441)"/>
</clipPath>
</defs>
</svg>
