<svg width="23" height="22" viewBox="0 0 23 22" fill="none" xmlns="http://www.w3.org/2000/svg">
<g clip-path="url(#clip0_340_7308)">
<path d="M6.56346 21.7276C7.04198 21.7276 7.37401 21.4737 7.96971 20.9463L11.3388 17.9483H17.6084C20.5185 17.9483 22.081 16.337 22.081 13.4756V5.99512C22.081 3.13379 20.5185 1.52246 17.6084 1.52246H5.03026C2.1201 1.52246 0.557602 3.12402 0.557602 5.99512V13.4756C0.557602 16.3467 2.1201 17.9483 5.03026 17.9483H5.49901V20.4873C5.49901 21.2393 5.87987 21.7276 6.56346 21.7276ZM6.96385 19.9405V17.1084C6.96385 16.5811 6.75877 16.376 6.23143 16.376H5.03026C3.0576 16.376 2.12987 15.3702 2.12987 13.4659V5.99512C2.12987 4.09082 3.0576 3.09473 5.03026 3.09473H17.6084C19.5713 3.09473 20.5088 4.09082 20.5088 5.99512V13.4659C20.5088 15.3702 19.5713 16.376 17.6084 16.376H11.2803C10.7334 16.376 10.4599 16.4541 10.0889 16.835L6.96385 19.9405Z" fill="currentColor" stroke="none" fill-opacity="context-fill-opacity"/>
<path d="M11.3193 11.4932C11.7881 11.4932 12.0615 11.2295 12.0713 10.7217L12.208 5.56543C12.2178 5.07715 11.8271 4.69629 11.3096 4.69629C10.7822 4.69629 10.4111 5.06738 10.4209 5.55566L10.5478 10.7217C10.5576 11.2198 10.831 11.4932 11.3193 11.4932ZM11.3193 14.667C11.8857 14.667 12.374 14.2276 12.374 13.6514C12.374 13.085 11.8955 12.6455 11.3193 12.6455C10.7431 12.6455 10.2646 13.0948 10.2646 13.6514C10.2646 14.2178 10.7529 14.667 11.3193 14.667Z" fill="currentColor" stroke="none" fill-opacity="context-fill-opacity"/>
</g>
<defs>
<clipPath id="clip0_340_7308">
<rect width="21.8848" height="21.4551" fill="white" style="fill:white;fill-opacity:1;" transform="translate(0.557602 0.272461)"/>
</clipPath>
</defs>
</svg>
