<svg width="17" height="22" viewBox="0 0 17 22" fill="none" xmlns="http://www.w3.org/2000/svg">
<g clip-path="url(#clip0_340_7314)">
<path d="M3.13379 21.4639H13.5048C15.5264 21.4639 16.5322 20.4385 16.5322 18.4073V9.54004C16.5322 8.28028 16.3857 7.7334 15.6044 6.93262L10.2236 1.4541C9.48145 0.692383 8.86622 0.526367 7.77247 0.526367H3.13379C1.12207 0.526367 0.106449 1.56153 0.106449 3.59278V18.4073C0.106449 20.4483 1.11231 21.4639 3.13379 21.4639ZM3.20215 19.8916C2.19629 19.8916 1.67872 19.3545 1.67872 18.378V3.62207C1.67872 2.65528 2.19629 2.09864 3.21192 2.09864H7.55762V7.77246C7.55762 9.00293 8.17286 9.6084 9.39356 9.6084H14.9599V18.378C14.9599 19.3545 14.4423 19.8916 13.4267 19.8916H3.20215ZM9.56934 8.13379C9.17872 8.13379 9.03223 7.97754 9.03223 7.58692V2.40137L14.6572 8.13379H9.56934Z" fill="currentColor" stroke="none" fill-opacity="context-fill-opacity"/>
</g>
<defs>
<clipPath id="clip0_340_7314">
<rect width="16.7871" height="20.9473" fill="white" style="fill:white;fill-opacity:1;" transform="translate(0.106449 0.526367)"/>
</clipPath>
</defs>
</svg>
