<svg width="25" height="18" viewBox="0 0 25 18" fill="none" xmlns="http://www.w3.org/2000/svg">
<g clip-path="url(#clip0_341_806)">
<path d="M0.805649 5.167H2.37792V3.12598C2.37792 2.11036 2.91503 1.59278 3.89159 1.59278H5.91307V0.0205078H3.87206C1.83104 0.0205078 0.805649 1.02637 0.805649 3.04786V5.167ZM0.805649 11.5147H2.37792V6.50489H0.805649V11.5147ZM3.87206 17.999H5.91307V16.4268H3.89159C2.91503 16.4268 2.37792 15.9092 2.37792 14.8936V12.8526H0.805649V14.9717C0.805649 16.9932 1.83104 17.999 3.87206 17.999ZM7.25096 17.999H11.6552V16.4268H7.25096V17.999ZM12.9833 17.999H17.3876V16.4268H12.9833V17.999ZM20.7665 17.999C22.8076 17.999 23.8329 16.9932 23.8329 14.9717V12.8526H22.2607V14.8936C22.2607 15.9092 21.7236 16.4268 20.747 16.4268H18.7255V17.999H20.7665ZM23.8329 5.167V3.04786C23.8329 1.02637 22.8076 0.0205078 20.7665 0.0205078H18.7255V1.59278H20.747C21.7236 1.59278 22.2607 2.11036 22.2607 3.12598V5.167H23.8329ZM23.8329 11.5147V6.50489H22.2607V11.5147H23.8329ZM7.25096 1.59278H11.6552V0.0205078H7.25096V1.59278ZM12.9833 1.59278H17.3876V0.0205078H12.9833V1.59278Z" fill="currentColor" stroke="none" fill-opacity="context-fill-opacity"/>
</g>
<defs>
<clipPath id="clip0_341_806">
<rect width="23.3887" height="17.998" fill="white" style="fill:white;fill-opacity:1;" transform="translate(0.805649 0.000976562)"/>
</clipPath>
</defs>
</svg>
