<svg width="25" height="24" viewBox="0 0 25 24" fill="none" xmlns="http://www.w3.org/2000/svg">
<g clip-path="url(#clip0_352_3617)">
<path d="M2.70271 5.04789C2.48622 5.30295 2.37303 5.66393 2.37303 6.12597V17.8838C2.37303 18.8994 2.91991 19.417 3.89647 19.417H17.0862L18.66 20.9893H3.86717C1.83592 20.9893 0.80077 19.9834 0.80077 17.9717V6.03808C0.80077 5.08118 1.03498 4.34965 1.50203 3.8484L2.70271 5.04789ZM23.8379 6.03808V17.9717C23.8379 18.915 23.6125 19.6371 23.1596 20.1352L21.9561 18.9316C22.1584 18.6795 22.2657 18.3297 22.2657 17.8838V6.12597C22.2657 5.11035 21.709 4.583 20.7422 4.583H7.60741L6.03514 3.01074H20.7715C22.8125 3.01074 23.8379 4.02636 23.8379 6.03808Z" fill="currentColor" stroke="none" fill-opacity="context-fill-opacity"/>
<path d="M21.6504 22.3565C21.9434 22.6494 22.4219 22.6592 22.7149 22.3565C22.9981 22.0635 23.0078 21.585 22.7149 21.292L3.06639 1.6631C2.77342 1.37013 2.29491 1.36037 1.99217 1.6631C1.70897 1.9463 1.70897 2.43459 1.99217 2.72755L21.6504 22.3565Z" fill="currentColor" stroke="none" fill-opacity="context-fill-opacity"/>
</g>
<defs>
<clipPath id="clip0_352_3617">
<rect width="23.7183" height="23.4424" fill="white" style="fill:white;fill-opacity:1;" transform="translate(0.64085 0.278809)"/>
</clipPath>
</defs>
</svg>
