<svg width="23" height="28" viewBox="0 0 23 28" fill="none" xmlns="http://www.w3.org/2000/svg">
<path d="M19.5273 6.23145V16.8022C19.1216 16.1751 18.5845 15.6402 17.955 15.2384V6.25098C17.955 5.28419 17.3984 4.73731 16.4218 4.73731H6.20702C5.19139 4.73731 4.67382 5.29395 4.67382 6.25098V21.0166C4.67382 21.9834 5.19139 22.5303 6.20702 22.5303H10.7035C11.1103 23.1619 11.6506 23.6995 12.2848 24.1025H6.12889C4.11717 24.1025 3.10155 23.0771 3.10155 21.0361V6.23145C3.10155 4.19043 4.11717 3.16504 6.12889 3.16504H16.4999C18.5214 3.16504 19.5273 4.18067 19.5273 6.23145Z" fill="currentColor" stroke="none" fill-opacity="context-fill-opacity"/>
<path d="M15.621 11.5146C15.621 11.8564 15.3671 12.1201 15.0253 12.1201H7.61327C7.26171 12.1201 7.0078 11.8564 7.0078 11.5146C7.0078 11.1826 7.26171 10.9189 7.61327 10.9189H15.0253C15.3671 10.9189 15.621 11.1826 15.621 11.5146Z" fill="currentColor" stroke="none" fill-opacity="context-fill-opacity"/>
<path d="M15.621 8.10645C15.621 8.44825 15.3671 8.72169 15.0253 8.72169H7.61327C7.26171 8.72169 7.0078 8.44825 7.0078 8.10645C7.0078 7.77442 7.26171 7.52051 7.61327 7.52051H15.0253C15.3671 7.52051 15.621 7.77442 15.621 8.10645Z" fill="currentColor" stroke="none" fill-opacity="context-fill-opacity"/>
<path d="M15.123 23.6143C17.2812 23.6143 19.0585 21.8369 19.0585 19.6689C19.0585 17.5107 17.2812 15.7236 15.123 15.7236C12.955 15.7236 11.1777 17.5107 11.1777 19.6689C11.1777 21.8369 12.955 23.6143 15.123 23.6143ZM15.123 22.2959C13.6874 22.2959 12.496 21.1045 12.496 19.6592C12.496 18.2334 13.6874 17.042 15.123 17.042C16.5585 17.042 17.7499 18.2334 17.7499 19.6592C17.7499 21.1045 16.5585 22.2959 15.123 22.2959ZM20.2792 25.6846C20.7285 25.6846 21.0605 25.3428 21.0605 24.8545C21.0605 24.6396 20.9531 24.4346 20.7968 24.2783L18.2382 21.71L17.0566 22.8525L19.6054 25.3818C19.8007 25.5869 20.0058 25.6846 20.2792 25.6846Z" fill="currentColor" stroke="none" fill-opacity="context-fill-opacity"/>
</svg>
