<svg width="17" height="22" viewBox="0 0 17 22" fill="none" xmlns="http://www.w3.org/2000/svg">
<g clip-path="url(#clip0_340_7298)">
<path d="M8.31933 21.122C8.47558 21.122 8.72949 21.0634 8.97363 20.9267C14.5303 17.8115 16.4346 16.4931 16.4346 12.9287V5.45801C16.4346 4.43262 15.9951 4.11035 15.165 3.75879C14.0127 3.28027 10.292 1.94238 9.13965 1.54199C8.87598 1.4541 8.59277 1.39551 8.31933 1.39551C8.0459 1.39551 7.76269 1.47363 7.50879 1.54199C6.35644 1.87402 2.62598 3.29004 1.47363 3.75879C0.653321 4.10059 0.204102 4.43262 0.204102 5.45801V12.9287C0.204102 16.4931 2.11816 17.8017 7.66504 20.9267C7.91894 21.0634 8.16308 21.122 8.31933 21.122ZM8.31933 19.3545C8.16308 19.3545 8.00683 19.2959 7.71387 19.1201C3.20215 16.3857 1.75683 15.5849 1.75683 12.5674V5.76074C1.75683 5.42871 1.81543 5.30176 2.08887 5.19434C3.57324 4.6084 6.4541 3.6416 7.92871 3.05566C8.08496 2.98731 8.21191 2.96777 8.31933 2.96777C8.42676 2.96777 8.55371 2.99707 8.70996 3.05566C10.1846 3.6416 13.0459 4.67676 14.5596 5.19434C14.8232 5.29199 14.8818 5.42871 14.8818 5.76074V12.5674C14.8818 15.5849 13.4365 16.3759 8.9248 19.1201C8.6416 19.2959 8.47558 19.3545 8.31933 19.3545Z" fill="currentColor" stroke="none" fill-opacity="context-fill-opacity"/>
<path d="M8.31933 12.5478C8.78808 12.5478 9.06152 12.2841 9.07129 11.7763L9.20801 6.62012C9.21777 6.12207 8.82715 5.75098 8.30957 5.75098C7.78222 5.75098 7.41113 6.11231 7.4209 6.61035L7.55762 11.7763C7.56738 12.2744 7.83105 12.5478 8.31933 12.5478ZM8.31933 15.7217C8.88574 15.7217 9.37402 15.2724 9.37402 14.706C9.37402 14.1396 8.89551 13.6904 8.31933 13.6904C7.75293 13.6904 7.26465 14.1494 7.26465 14.706C7.26465 15.2627 7.76269 15.7217 8.31933 15.7217Z" fill="currentColor" stroke="none" fill-opacity="context-fill-opacity"/>
</g>
<defs>
<clipPath id="clip0_340_7298">
<rect width="16.5918" height="20.2441" fill="white" style="fill:white;fill-opacity:1;" transform="translate(0.204102 0.87793)"/>
</clipPath>
</defs>
</svg>
