<svg width="25" height="24" viewBox="0 0 25 24" fill="none" xmlns="http://www.w3.org/2000/svg">
<path d="M5.75195 8.64315V13.5674C5.75195 16.585 7.19726 17.3858 11.709 20.1202C12.002 20.2959 12.168 20.3545 12.3145 20.3545C12.4707 20.3545 12.6368 20.2959 12.9297 20.1202C13.9757 19.4826 14.8572 18.9504 15.5878 18.4737L16.7811 19.6664C15.7743 20.3379 14.516 21.0633 12.9786 21.9268C12.7247 22.0635 12.4707 22.1221 12.3145 22.1221C12.1582 22.1221 11.9141 22.0635 11.6602 21.9268C6.12304 18.8018 4.19921 17.4932 4.19921 13.9287V7.09125L5.75195 8.64315ZM13.1348 2.542C14.2872 2.94239 18.0176 4.28028 19.17 4.75879C19.9903 5.11036 20.4395 5.43262 20.4395 6.45801V13.9287C20.4395 15.2267 20.1857 16.2269 19.5908 17.123L18.3847 15.9169C18.7377 15.2712 18.8868 14.5334 18.8868 13.5674V6.76075C18.8868 6.42872 18.8184 6.292 18.5547 6.19434C17.0411 5.67676 14.1895 4.64161 12.7051 4.05567C12.5489 3.99707 12.4317 3.96778 12.3145 3.96778C12.2071 3.96778 12.0801 3.98731 11.9336 4.05567C10.9519 4.4432 9.35926 4.99732 7.96509 5.49733L6.73099 4.26323C8.32028 3.6516 10.6387 2.79128 11.5039 2.542C11.7676 2.47364 12.0411 2.39551 12.3145 2.39551C12.5977 2.39551 12.871 2.45411 13.1348 2.542Z" fill="currentColor" stroke="none" fill-opacity="context-fill-opacity"/>
<path d="M20.4004 21.6631C20.6933 21.9561 21.1719 21.9561 21.4649 21.6631C21.7579 21.3702 21.7579 20.8916 21.4649 20.5987L3.22265 2.37598C2.93945 2.08301 2.45116 2.08301 2.14843 2.37598C1.86523 2.65918 1.86523 3.14747 2.14843 3.44043L20.4004 21.6631Z" fill="currentColor" stroke="none" fill-opacity="context-fill-opacity"/>
</svg>
