<svg width="27" height="22" viewBox="0 0 27 22" fill="none" xmlns="http://www.w3.org/2000/svg">
<g clip-path="url(#clip0_340_7283)">
<path d="M14.0078 18.7881C14.0078 20.3115 15.0821 21.3271 16.6739 21.3271H23.9102C25.502 21.3271 26.5664 20.3115 26.5664 18.7881V3.19238C26.5664 1.66894 25.502 0.65332 23.9102 0.65332H16.6739C15.0821 0.65332 14.0078 1.66894 14.0078 3.19238V18.7881ZM15.5801 18.5342V3.44629C15.5801 2.66504 16.0489 2.22559 16.8692 2.22559H23.7051C24.5254 2.22559 24.9942 2.66504 24.9942 3.44629V18.5342C24.9942 19.3154 24.5254 19.7549 23.7051 19.7549H16.8692C16.0489 19.7549 15.5801 19.3154 15.5801 18.5342Z" fill="currentColor" stroke="none" fill-opacity="context-fill-opacity"/>
<path d="M0.941391 19.0029C1.4492 19.0029 1.81053 18.6513 1.81053 18.1435V16.6592C1.81053 13.0263 4.02733 11.8545 6.86913 11.8545H7.51366L10.2188 11.7666V11.2197L7.56248 13.6416L6.48827 14.5595C6.26366 14.7451 6.20506 14.9892 6.20506 15.2236C6.20506 15.7021 6.57616 16.0635 7.05467 16.0635C7.28905 16.0635 7.49413 15.9756 7.70897 15.7705L11.8399 11.6494C12.0352 11.4638 12.1426 11.2392 12.1426 10.9951C12.1426 10.751 12.0352 10.5264 11.8399 10.3408L7.68944 6.2002C7.49413 6.00488 7.28905 5.92676 7.05467 5.92676C6.57616 5.92676 6.20506 6.27832 6.20506 6.7666C6.20506 7.00098 6.26366 7.24512 6.48827 7.43066L7.56248 8.34863L10.2188 10.7705V10.2236L7.51366 10.1357H6.86913C3.40233 10.1357 0.0722504 11.7275 0.0722504 16.6592V18.1435C0.0722504 18.6513 0.433578 19.0029 0.941391 19.0029Z" fill="currentColor" stroke="none" fill-opacity="context-fill-opacity"/>
</g>
<defs>
<clipPath id="clip0_340_7283">
<rect width="26.8555" height="20.6934" fill="white" style="fill:white;fill-opacity:1;" transform="translate(0.0722504 0.65332)"/>
</clipPath>
</defs>
</svg>
