<svg width="23" height="22" viewBox="0 0 23 22" fill="none" xmlns="http://www.w3.org/2000/svg">
<g clip-path="url(#clip0_245_2934)">
<path d="M11.3145 20.331C11.5587 20.331 11.793 20.3212 12.0274 20.3017L12.5645 21.3076C12.6915 21.5615 12.9161 21.6591 13.1895 21.6298C13.4727 21.581 13.6387 21.3955 13.668 21.122L13.834 19.9892C14.3028 19.8623 14.7423 19.6962 15.1719 19.5009L16.0118 20.2626C16.2169 20.458 16.4708 20.4677 16.7149 20.3408C16.959 20.204 17.0567 19.9697 16.9981 19.6962L16.754 18.583C17.1446 18.3095 17.5059 17.997 17.8477 17.6748L18.8926 18.1044C19.1563 18.2021 19.4005 18.1435 19.586 17.9287C19.7715 17.7138 19.7911 17.4697 19.6348 17.2255L19.0294 16.2685C19.293 15.8681 19.5274 15.458 19.7423 15.038L20.8653 15.0771C21.1485 15.0869 21.3633 14.9501 21.461 14.6767C21.5587 14.4228 21.4903 14.1787 21.2657 14.0126L20.3575 13.3193C20.4844 12.8603 20.5626 12.3915 20.6114 11.9033L21.6856 11.5615C21.959 11.4736 22.1153 11.2783 22.1153 10.9951C22.1153 10.7119 21.959 10.5068 21.6856 10.4287L20.6114 10.0868C20.5626 9.59855 20.4844 9.1298 20.3575 8.67082L21.2559 7.97746C21.4903 7.81144 21.5489 7.5673 21.461 7.30363C21.3633 7.03019 21.1485 6.90324 20.8653 6.913L19.7423 6.9423C19.5274 6.52238 19.293 6.10246 19.0294 5.71183L19.6251 4.76457C19.7813 4.52042 19.7618 4.26652 19.5958 4.05167C19.4005 3.83683 19.1563 3.788 18.9024 3.88566L17.8477 4.31535C17.5059 3.97355 17.1348 3.67082 16.754 3.39738L16.9981 2.29386C17.0567 2.01066 16.959 1.78605 16.7247 1.64933C16.4708 1.50285 16.2169 1.54191 16.0118 1.72746L15.1622 2.47941C14.7423 2.2841 14.293 2.12785 13.8243 1.99113L13.668 0.868076C13.6387 0.594638 13.463 0.418857 13.1993 0.360264C12.9161 0.311436 12.6915 0.428623 12.5645 0.672763L12.0274 1.67863C11.793 1.66886 11.5587 1.6591 11.3145 1.6591C11.0801 1.6591 10.8458 1.66886 10.6016 1.67863L10.0742 0.682529C9.93751 0.428623 9.7129 0.321201 9.44923 0.360264C9.16603 0.409092 9.00001 0.594638 8.96095 0.868076L8.79493 1.99113C8.33595 2.12785 7.88673 2.29386 7.45704 2.48917L6.62697 1.72746C6.42189 1.53214 6.16798 1.51261 5.91407 1.64933C5.66993 1.78605 5.58204 2.02042 5.64064 2.29386L5.87501 3.40714C5.48439 3.68058 5.12306 3.98332 4.78126 4.31535L3.73634 3.88566C3.48243 3.77824 3.22853 3.8466 3.04298 4.06144C2.85743 4.26652 2.84767 4.52042 3.00392 4.76457L3.60939 5.7216C3.33595 6.11222 3.10157 6.53214 2.8965 6.95207L1.77345 6.913C1.48048 6.89347 1.27541 7.03996 1.17775 7.30363C1.07033 7.5673 1.14845 7.81144 1.37306 7.97746L2.2715 8.67082C2.15431 9.1298 2.06642 9.59855 2.02736 10.0868L0.943375 10.4287C0.669937 10.5068 0.523453 10.7119 0.523453 10.9951C0.523453 11.2783 0.669937 11.4736 0.943375 11.5615L2.02736 11.9033C2.06642 12.3915 2.15431 12.8603 2.2715 13.3193L1.37306 14.0126C1.14845 14.1787 1.08986 14.4228 1.16798 14.6865C1.27541 14.9599 1.48048 15.0869 1.76368 15.0771L2.8965 15.038C3.10157 15.4677 3.33595 15.8779 3.60939 16.2783L3.00392 17.2255C2.84767 17.4697 2.87697 17.7236 3.04298 17.9287C3.23829 18.1533 3.48243 18.2021 3.73634 18.1044L4.78126 17.665C5.12306 18.0068 5.49415 18.3095 5.87501 18.5927L5.64064 19.6962C5.58204 19.9697 5.6797 20.204 5.91407 20.3408C6.16798 20.4873 6.42189 20.458 6.6172 20.2626L7.46681 19.5009C7.8965 19.706 8.34572 19.8623 8.8047 19.9892L8.96095 21.1123C9.00001 21.3955 9.17579 21.5712 9.43947 21.6298C9.72267 21.6787 9.93751 21.5615 10.0742 21.3076L10.6016 20.3017C10.8458 20.3212 11.0801 20.331 11.3145 20.331ZM11.3145 18.7099C7.05665 18.7099 3.59962 15.2529 3.59962 10.9951C3.59962 6.72746 7.05665 3.28019 11.3145 3.28019C15.5821 3.28019 19.0294 6.72746 19.0294 10.9951C19.0294 15.2529 15.5821 18.7099 11.3145 18.7099ZM9.61525 9.50089L10.7676 8.76847L7.50587 3.17277L6.3047 3.8466L9.61525 9.50089ZM13.4923 11.6591H19.9864V10.3114H13.4923V11.6591ZM10.7872 13.2509L9.64454 12.5087L6.20704 18.1142L7.39845 18.8173L10.7872 13.2509ZM11.3243 13.5537C12.7403 13.5537 13.8829 12.4111 13.8829 10.9951C13.8829 9.57902 12.7403 8.43644 11.3243 8.43644C9.90822 8.43644 8.76564 9.57902 8.76564 10.9951C8.76564 12.4111 9.90822 13.5537 11.3243 13.5537ZM11.3243 12.0888C10.7188 12.0888 10.2305 11.6005 10.2305 10.9951C10.2305 10.3896 10.7188 9.90128 11.3243 9.90128C11.9297 9.90128 12.418 10.3896 12.418 10.9951C12.418 11.6005 11.9297 12.0888 11.3243 12.0888Z" fill="currentColor" stroke="none" fill-opacity="context-fill-opacity"/>
</g>
<defs>
<clipPath id="clip0_245_2934">
<rect width="21.9531" height="21.3011" fill="white" style="fill:white;fill-opacity:1;" transform="translate(0.523453 0.349365)"/>
</clipPath>
</defs>
</svg>
