<svg width="23" height="18" viewBox="0 0 23 18" fill="none" xmlns="http://www.w3.org/2000/svg">
<g clip-path="url(#clip0_340_7273)">
<path d="M12.75 17.9502C13.2285 17.9502 13.6192 17.7548 14.0879 17.3154L21.793 10.04C22.1641 9.68848 22.291 9.31738 22.291 8.99512C22.291 8.66309 22.1738 8.30176 21.793 7.94043L14.0879 0.733398C13.5703 0.245117 13.2481 0.0400391 12.7695 0.0400391C12.086 0.0400391 11.5977 0.577148 11.5977 1.23145V4.92285H11.3145C4.29298 4.92285 1.23634 9.42481 1.23634 16.6416C1.23634 17.4814 1.71486 17.9502 2.2422 17.9502C2.65236 17.9502 3.10158 17.8525 3.44338 17.2275C5.14259 14.0341 7.53517 13.0771 11.3145 13.0771H11.5977V16.8076C11.5977 17.4619 12.086 17.9502 12.75 17.9502ZM13.3067 15.8505C13.2285 15.8505 13.1699 15.792 13.1699 15.7041V11.9248C13.1699 11.7002 13.0723 11.6025 12.8477 11.6025H11.5391C6.90041 11.6025 3.94142 13.2138 2.78908 15.665C2.75978 15.7334 2.74025 15.7627 2.69142 15.7627C2.65236 15.7627 2.62306 15.7334 2.62306 15.6552C2.81838 11.0459 4.83009 6.39746 11.5391 6.39746H12.8477C13.0723 6.39746 13.1699 6.29981 13.1699 6.0752V2.19824C13.1699 2.12012 13.2285 2.06152 13.3164 2.06152C13.375 2.06152 13.4336 2.10059 13.4824 2.13965L20.4356 8.80957C20.5039 8.87793 20.5332 8.93652 20.5332 8.99512C20.5332 9.05371 20.5137 9.10254 20.4356 9.18066L13.4727 15.7627C13.4238 15.8212 13.3652 15.8505 13.3067 15.8505Z" fill="currentColor" stroke="none" fill-opacity="context-fill-opacity"/>
</g>
<defs>
<clipPath id="clip0_340_7273">
<rect width="21.582" height="17.9199" fill="white" style="fill:white;fill-opacity:1;" transform="translate(0.709 0.0400391)"/>
</clipPath>
</defs>
</svg>
