<svg width="25" height="18" viewBox="0 0 25 18" fill="none" xmlns="http://www.w3.org/2000/svg">
<g clip-path="url(#clip0_245_3025)">
<path d="M3.87206 17.999H20.7665C22.8173 17.999 23.8329 16.9834 23.8329 14.9717V3.04786C23.8329 1.03614 22.8173 0.0205078 20.7665 0.0205078H3.87206C1.83104 0.0205078 0.805649 1.02637 0.805649 3.04786V14.9717C0.805649 16.9932 1.83104 17.999 3.87206 17.999ZM3.89159 16.4268C2.91503 16.4268 2.37792 15.9092 2.37792 14.8936V3.12598C2.37792 2.11036 2.91503 1.59278 3.89159 1.59278H20.747C21.7139 1.59278 22.2607 2.11036 22.2607 3.12598V14.8936C22.2607 15.9092 21.7139 16.4268 20.747 16.4268H3.89159ZM14.8876 16.7295H16.4208V1.29981H14.8876V16.7295ZM18.2958 5.21582H20.3857C20.6884 5.21582 20.9423 4.95215 20.9423 4.66895C20.9423 4.37598 20.6884 4.12207 20.3857 4.12207H18.2958C18.0029 4.12207 17.7392 4.37598 17.7392 4.66895C17.7392 4.95215 18.0029 5.21582 18.2958 5.21582ZM18.2958 7.74512H20.3857C20.6884 7.74512 20.9423 7.48145 20.9423 7.18848C20.9423 6.89551 20.6884 6.65137 20.3857 6.65137H18.2958C18.0029 6.65137 17.7392 6.89551 17.7392 7.18848C17.7392 7.48145 18.0029 7.74512 18.2958 7.74512ZM18.2958 10.2647H20.3857C20.6884 10.2647 20.9423 10.0205 20.9423 9.72754C20.9423 9.43457 20.6884 9.18067 20.3857 9.18067H18.2958C18.0029 9.18067 17.7392 9.43457 17.7392 9.72754C17.7392 10.0205 18.0029 10.2647 18.2958 10.2647Z" fill="currentColor" stroke="none" fill-opacity="context-fill-opacity"/>
</g>
<defs>
<clipPath id="clip0_245_3025">
<rect width="23.3887" height="17.998" fill="white" style="fill:white;fill-opacity:1;" transform="translate(0.805649 0.000976562)"/>
</clipPath>
</defs>
</svg>
