<svg width="29" height="20" viewBox="0 0 29 20" fill="none" xmlns="http://www.w3.org/2000/svg">
<g clip-path="url(#clip0_245_3056)">
<path d="M11.6484 19.214C12.166 19.3507 12.6348 19.0675 12.791 18.5499L17.6543 1.87994C17.791 1.41119 17.5664 0.942443 17.0488 0.805724C16.541 0.669005 16.1016 0.864318 15.9258 1.46979L11.0918 18.0519C10.9355 18.5792 11.1016 19.0675 11.6484 19.214Z" fill="currentColor" stroke="none" fill-opacity="context-fill-opacity"/>
<path d="M0.632797 9.99513C0.632797 10.2686 0.749985 10.5322 0.974594 10.7276L7.49803 16.6162C7.90819 16.9873 8.45507 16.9873 8.79686 16.6064C9.13866 16.2158 9.08007 15.6689 8.68944 15.3174L2.8203 9.99513L8.68944 4.67286C9.08007 4.3213 9.13866 3.76466 8.79686 3.3838C8.45507 3.00294 7.90819 3.00294 7.49803 3.37403L0.974594 9.25294C0.749985 9.45802 0.632797 9.72169 0.632797 9.99513ZM28.0058 9.99513C28.0058 9.72169 27.8984 9.45802 27.6738 9.25294L21.1504 3.37403C20.7305 3.00294 20.1933 3.00294 19.8516 3.3838C19.5098 3.76466 19.5586 4.3213 19.9492 4.67286L25.8281 9.99513L19.9492 15.3174C19.5586 15.6689 19.5098 16.2158 19.8516 16.6064C20.1933 16.9873 20.7305 16.9873 21.1504 16.6162L27.6738 10.7276C27.8984 10.5322 28.0058 10.2686 28.0058 9.99513Z" fill="currentColor" stroke="none" fill-opacity="context-fill-opacity"/>
</g>
<defs>
<clipPath id="clip0_245_3056">
<rect width="27.7344" height="18.4962" fill="white" style="fill:white;fill-opacity:1;" transform="translate(0.632797 0.751953)"/>
</clipPath>
</defs>
</svg>
