<svg width="21" height="22" viewBox="0 0 21 22" fill="none" xmlns="http://www.w3.org/2000/svg">
<g clip-path="url(#clip0_341_830)">
<path d="M13.6738 21.1318H19.3769C19.8261 21.1318 20.0605 20.917 20.0605 20.5557C20.0605 20.1846 19.8261 19.9893 19.3769 19.9893H17.1894V1.93261H19.3769C19.8261 1.93261 20.0605 1.72754 20.0605 1.35645C20.0605 0.995117 19.8261 0.799805 19.3769 0.799805H13.6738C13.2343 0.799805 13 0.995117 13 1.35645C13 1.72754 13.2343 1.93261 13.6738 1.93261H15.8711V19.9893H13.6738C13.2343 19.9893 13 20.1846 13 20.5557C13 20.917 13.2343 21.1318 13.6738 21.1318Z" fill="currentColor" stroke="none" fill-opacity="context-fill-opacity"/>
<path d="M1.39841 18.1631C1.91599 18.1631 2.1699 17.9678 2.35544 17.4307L3.61521 13.9736H9.37693L10.6367 17.4307C10.8222 17.9678 11.0761 18.1631 11.584 18.1631C12.1015 18.1631 12.4336 17.8506 12.4336 17.3623C12.4336 17.1963 12.4043 17.0498 12.3261 16.835L7.74607 4.64746C7.52146 4.04199 7.12107 3.74902 6.49607 3.74902C5.8906 3.74902 5.48044 4.03222 5.2656 4.63769L0.685524 16.8447C0.597633 17.0596 0.578102 17.206 0.578102 17.3721C0.578102 17.8603 0.890602 18.1631 1.39841 18.1631ZM4.11326 12.4795L6.4863 5.90722H6.53513L8.90818 12.4795H4.11326Z" fill="currentColor" stroke="none" fill-opacity="context-fill-opacity"/>
</g>
<defs>
<clipPath id="clip0_341_830">
<rect width="19.8438" height="20.4004" fill="white" style="fill:white;fill-opacity:1;" transform="translate(0.578102 0.799805)"/>
</clipPath>
</defs>
</svg>
