<svg width="19" height="18" viewBox="0 0 19 18" fill="none" xmlns="http://www.w3.org/2000/svg">
<g clip-path="url(#clip0_245_2867)">
<path d="M15.7549 13.1651C16.0772 13.3897 16.5361 13.3214 16.7998 12.9405C17.5518 11.9542 18.001 10.4991 18.001 9.00492C18.001 7.51078 17.5518 6.06546 16.7998 5.06937C16.5361 4.68851 16.0772 4.61039 15.7549 4.84476C15.3545 5.1182 15.2959 5.60648 15.5986 6.00687C16.165 6.78812 16.4873 7.8721 16.4873 9.00492C16.4873 10.1377 16.1553 11.212 15.5986 12.003C15.3057 12.4131 15.3545 12.8819 15.7549 13.1651Z" fill="currentColor" stroke="none" fill-opacity="context-fill-opacity"/>
<path d="M2.62012 12.9697H5.42286C5.51075 12.9697 5.58887 12.999 5.65723 13.0576L10.0615 17.0029C10.5205 17.4228 10.8916 17.6181 11.3506 17.6181C11.9854 17.6181 12.4541 17.1591 12.4541 16.5244V1.54395C12.4541 0.90918 11.9854 0.391602 11.3311 0.391602C10.8721 0.391602 10.5693 0.606445 10.0615 1.06543L5.65723 4.97168C5.58887 5.03028 5.51075 5.05957 5.42286 5.05957H2.62012C1.292 5.05957 0.637703 5.7334 0.637703 7.14942V10.8896C0.637703 12.3056 1.30176 12.9697 2.62012 12.9697ZM2.68848 11.5439C2.32715 11.5439 2.16114 11.3779 2.16114 11.0166V7.02246C2.16114 6.65137 2.32715 6.48536 2.68848 6.48536H5.81348C6.06739 6.48536 6.2627 6.43653 6.48731 6.23145L10.6475 2.45215C10.6963 2.40332 10.7451 2.37403 10.8135 2.37403C10.8818 2.37403 10.9404 2.42286 10.9404 2.51075V15.4892C10.9404 15.5771 10.8818 15.6357 10.8135 15.6357C10.7647 15.6357 10.7061 15.6064 10.6475 15.5576L6.48731 11.7978C6.2627 11.6025 6.06739 11.5439 5.81348 11.5439H2.68848Z" fill="currentColor" stroke="none" fill-opacity="context-fill-opacity"/>
</g>
<defs>
<clipPath id="clip0_245_2867">
<rect width="17.7246" height="17.2363" fill="white" style="fill:white;fill-opacity:1;" transform="translate(0.637703 0.381836)"/>
</clipPath>
</defs>
</svg>
