<svg width="25" height="18" viewBox="0 0 25 18" fill="none" xmlns="http://www.w3.org/2000/svg">
<g clip-path="url(#clip0_247_3158)">
<path d="M24.4385 8.99512C24.4385 11.7099 22.1631 13.956 19.4775 13.956C16.7529 13.956 14.5068 11.7295 14.5068 8.99512C14.5068 6.27051 16.7529 4.03418 19.4775 4.03418C22.1924 4.03418 24.4385 6.27051 24.4385 8.99512ZM18.6475 11.3388C18.6475 11.7978 19.0186 12.1591 19.4678 12.1591C19.9268 12.1591 20.2979 11.7978 20.2979 11.3388C20.2979 10.8896 19.9268 10.5088 19.4678 10.5088C19.0283 10.5088 18.6475 10.8896 18.6475 11.3388ZM18.8037 6.47559L18.8818 9.26856C18.8916 9.60059 19.1357 9.83496 19.4775 9.83496C19.8096 9.83496 20.0537 9.60059 20.0635 9.26856L20.1416 6.47559C20.1514 6.0752 19.8779 5.80176 19.4775 5.80176C19.0674 5.80176 18.794 6.0752 18.8037 6.47559Z" fill="currentColor" stroke="none" fill-opacity="context-fill-opacity"/>
<path d="M2.18262 12.9697H4.98536C5.07325 12.9697 5.15137 12.999 5.21973 13.0576L9.62403 17.0029C10.0928 17.4228 10.4541 17.6181 10.9229 17.6181C11.5479 17.6181 12.0264 17.1591 12.0264 16.5244V1.54395C12.0264 0.90918 11.5479 0.391602 10.9033 0.391602C10.4346 0.391602 10.1318 0.606445 9.62403 1.06543L5.21973 4.97168C5.15137 5.03028 5.07325 5.05957 4.98536 5.05957H2.18262C0.8545 5.05957 0.200203 5.7334 0.200203 7.14942V10.8896C0.200203 12.3056 0.864265 12.9697 2.18262 12.9697ZM2.25098 11.5439C1.88965 11.5439 1.72364 11.3779 1.72364 11.0166V7.02246C1.72364 6.65137 1.88965 6.48536 2.25098 6.48536H5.37598C5.62989 6.48536 5.8252 6.43653 6.04981 6.23145L10.21 2.45215C10.2588 2.40332 10.3076 2.37403 10.376 2.37403C10.4443 2.37403 10.5029 2.42286 10.5029 2.51075V15.4892C10.5029 15.5771 10.4443 15.6357 10.376 15.6357C10.3272 15.6357 10.2686 15.6064 10.21 15.5576L6.04981 11.7978C5.8252 11.6025 5.62989 11.5439 5.37598 11.5439H2.25098Z" fill="currentColor" stroke="none" fill-opacity="context-fill-opacity"/>
</g>
<defs>
<clipPath id="clip0_247_3158">
<rect width="24.5996" height="17.2363" fill="white" style="fill:white;fill-opacity:1;" transform="translate(0.200203 0.381836)"/>
</clipPath>
</defs>
</svg>
