<svg width="33" height="24" viewBox="0 0 33 24" fill="none" xmlns="http://www.w3.org/2000/svg">
<g clip-path="url(#clip0_245_2924)">
<path d="M18.5898 4.86621V5.75488H18.1308C17.7327 5.75488 17.36 5.79054 17.0176 5.8645V4.91504C17.0176 3.19629 16.0508 2.29785 14.4199 2.29785H5.12302C3.49216 2.29785 2.52537 3.19629 2.52537 4.91504V10.5889C2.52537 12.3173 3.50193 13.206 5.12302 13.206H6.14841C6.56833 13.206 6.90037 13.4502 6.90037 13.997V16.4677L10.0449 13.6552C10.4258 13.3134 10.6699 13.206 11.1972 13.206H14.0488V14.6709H11.1386L7.87693 17.4638C7.29099 17.9716 6.96872 18.2353 6.49021 18.2353C5.81638 18.2353 5.43552 17.7568 5.43552 17.0146V14.6709H5.03513C2.58396 14.6709 0.953102 13.1962 0.953102 10.6377V4.86621C0.953102 2.30762 2.58396 0.823242 5.03513 0.823242H14.5078C16.959 0.823242 18.5898 2.30762 18.5898 4.86621Z" fill="currentColor" stroke="none" fill-opacity="context-fill-opacity"/>
<path d="M10.8066 4.19239L13.2187 10.667C13.414 11.2041 13.1308 11.7021 12.5547 11.7021C12.1836 11.7021 11.959 11.497 11.8125 11.0869L11.2168 9.36817H8.34568L7.74998 11.0869C7.61326 11.497 7.37888 11.7021 7.00779 11.7021C6.44138 11.7021 6.14841 11.2041 6.34372 10.667L8.74607 4.19239C8.92185 3.71387 9.28318 3.4502 9.77146 3.4502C10.2793 3.4502 10.6308 3.71387 10.8066 4.19239ZM8.74607 8.167H10.8066L9.77634 5.16204L8.74607 8.167Z" fill="currentColor" stroke="none" fill-opacity="context-fill-opacity"/>
<path d="M31.6855 9.79785V15.5693C31.6855 18.1181 30.0547 19.6025 27.6035 19.6025H27.1933V21.9462C27.1933 22.6884 26.8222 23.167 26.1484 23.167C25.6699 23.167 25.3476 22.9033 24.7617 22.3955L21.4902 19.6025H18.1308C15.5625 19.6025 14.0488 18.1279 14.0488 15.5693V9.79785C14.0488 7.23926 15.5625 5.75488 18.1308 5.75488H27.6035C30.0547 5.75488 31.6855 7.23926 31.6855 9.79785ZM19.7422 10.4326C19.3418 10.4326 19.0488 10.7061 19.0488 11.0771C19.0488 11.458 19.3418 11.7412 19.7422 11.7412H20.4843C20.748 12.6982 21.2461 13.6064 21.9297 14.3681C21.2656 14.8076 20.4941 15.1298 19.6054 15.3447C19.2246 15.4326 19 15.7939 19.0781 16.1845C19.1855 16.5752 19.5761 16.7509 19.9961 16.6337C21.0605 16.3994 22.0566 15.9502 22.9453 15.2959C23.7949 15.9404 24.791 16.3896 25.7773 16.624C26.2558 16.7412 26.6562 16.5947 26.7636 16.1845C26.8711 15.7646 26.6758 15.4326 26.2558 15.3447C25.3672 15.1396 24.6054 14.8173 23.9219 14.3681C24.6152 13.6259 25.1035 12.7275 25.3672 11.7412H26.1191C26.5195 11.7412 26.8125 11.458 26.8125 11.0771C26.8125 10.7061 26.5195 10.4326 26.1191 10.4326H19.7422ZM22.9453 13.538C22.4668 13.0107 22.0859 12.3955 21.8613 11.7412H24C23.7754 12.3857 23.414 13.0009 22.9453 13.538ZM21.9687 7.84472C21.6367 8.00097 21.4902 8.40136 21.666 8.76269L22.1347 9.74902C22.291 10.1006 22.6914 10.2373 23.0332 10.0908C23.3945 9.90527 23.541 9.51465 23.3652 9.16308L22.8867 8.18652C22.7109 7.81543 22.3203 7.64941 21.9687 7.84472Z" fill="currentColor" stroke="none" fill-opacity="context-fill-opacity"/>
</g>
<defs>
<clipPath id="clip0_245_2924">
<rect width="31.0938" height="22.3535" fill="white" style="fill:white;fill-opacity:1;" transform="translate(0.953102 0.823242)"/>
</clipPath>
</defs>
</svg>
