<svg width="25" height="18" viewBox="0 0 25 18" fill="none" xmlns="http://www.w3.org/2000/svg">
<g clip-path="url(#clip0_352_3571)">
<path d="M3.87206 17.9892H20.7665C22.8173 17.9892 23.8329 16.9834 23.8329 14.9716V3.03808C23.8329 1.02636 22.8173 0.0107422 20.7665 0.0107422H3.87206C1.83104 0.0107422 0.805649 1.02636 0.805649 3.03808V14.9716C0.805649 16.9834 1.83104 17.9892 3.87206 17.9892ZM3.89159 16.4169C2.91503 16.4169 2.37792 15.8994 2.37792 14.8837V3.12597C2.37792 2.11035 2.91503 1.58301 3.89159 1.58301H20.747C21.7139 1.58301 22.2607 2.11035 22.2607 3.12597V14.8837C22.2607 15.8994 21.7139 16.4169 20.747 16.4169H3.89159Z" fill="currentColor" stroke="none" fill-opacity="context-fill-opacity"/>
<path d="M10.5029 12.8134L16.0693 9.52245C16.4794 9.28807 16.4697 8.72167 16.0693 8.47753L10.5029 5.18651C10.0928 4.94237 9.52635 5.12792 9.52635 5.60643V12.3935C9.52635 12.8623 10.0537 13.0869 10.5029 12.8134Z" fill="currentColor" stroke="none" fill-opacity="context-fill-opacity"/>
</g>
<defs>
<clipPath id="clip0_352_3571">
<rect width="23.3887" height="17.9785" fill="white" style="fill:white;fill-opacity:1;" transform="translate(0.805649 0.0107422)"/>
</clipPath>
</defs>
</svg>
