<svg width="25" height="18" viewBox="0 0 25 18" fill="none" xmlns="http://www.w3.org/2000/svg">
<g clip-path="url(#clip0_245_3029)">
<path d="M23.8329 3.04786V14.9717C23.8329 16.9834 22.8173 17.999 20.7665 17.999H3.87206C1.83104 17.999 0.805649 16.9932 0.805649 14.9717V3.04786C0.805649 1.02637 1.83104 0.0205078 3.87206 0.0205078H20.7665C22.8173 0.0205078 23.8329 1.03614 23.8329 3.04786ZM2.37792 4.94239V14.8936C2.37792 15.9092 2.91503 16.4268 3.89159 16.4268H20.747C21.7139 16.4268 22.2607 15.9092 22.2607 14.8936V4.94239H2.37792ZM3.03221 2.48145C3.03221 2.94043 3.42284 3.35059 3.90135 3.35059C4.37987 3.35059 4.78026 2.94043 4.78026 2.48145C4.78026 2.02246 4.37987 1.61231 3.90135 1.61231C3.42284 1.61231 3.03221 2.02246 3.03221 2.48145ZM5.83495 2.48145C5.83495 2.94043 6.22557 3.35059 6.70409 3.35059C7.1826 3.35059 7.58299 2.94043 7.58299 2.48145C7.58299 2.02246 7.1826 1.61231 6.70409 1.61231C6.22557 1.61231 5.83495 2.02246 5.83495 2.48145ZM8.63768 2.48145C8.63768 2.94043 9.02831 3.35059 9.50682 3.35059C9.98534 3.35059 10.376 2.94043 10.376 2.48145C10.376 2.02246 9.98534 1.61231 9.50682 1.61231C9.02831 1.61231 8.63768 2.02246 8.63768 2.48145Z" fill="currentColor" stroke="none" fill-opacity="context-fill-opacity"/>
</g>
<defs>
<clipPath id="clip0_245_3029">
<rect width="23.3887" height="17.998" fill="white" style="fill:white;fill-opacity:1;" transform="translate(0.805649 0.000976562)"/>
</clipPath>
</defs>
</svg>
