<svg width="29" height="24" viewBox="0 0 29 24" fill="none" xmlns="http://www.w3.org/2000/svg">
<g clip-path="url(#clip0_245_2988)">
<path d="M6.08695 6.45605C3.51135 7.23886 2.04882 8.81811 2.04882 11.9463C2.04882 15.6573 3.91405 17.9424 6.79491 17.9424C10.2129 17.9424 11.5019 14.7979 14.3242 14.7979C14.3598 14.7979 14.3951 14.7984 14.4275 14.805L17.8666 18.2475C16.4572 17.3744 15.3782 16.3702 14.3242 16.3702C12.4492 16.3702 10.5058 19.5147 6.79491 19.5147C3.19139 19.5147 0.476547 16.2432 0.476547 11.9463C0.476547 8.26837 2.17328 6.29787 4.89614 5.26405L6.08695 6.45605ZM28.162 11.9463C28.162 15.307 26.5013 18.0405 24.0498 19.0639L22.8305 17.8439C25.1437 17.3759 26.5898 15.2138 26.5898 11.9463C26.5898 6.27246 21.7949 5.69628 14.3242 5.69628C13.0544 5.69628 11.8621 5.71317 10.7646 5.77202L9.31661 4.32322C10.8652 4.16631 12.556 4.12402 14.3242 4.12402C21.9609 4.12402 28.162 4.90527 28.162 11.9463Z" fill="currentColor" stroke="none" fill-opacity="context-fill-opacity"/>
<path d="M23.5527 22.3174C23.8456 22.6202 24.3339 22.6202 24.6171 22.3174C24.9101 22.0244 24.9199 21.5557 24.6269 21.253L5.07616 1.69238C4.78319 1.39941 4.30467 1.39941 4.00194 1.69238C3.71874 1.98535 3.71874 2.47363 4.00194 2.75683L23.5527 22.3174Z" fill="currentColor" stroke="none" fill-opacity="context-fill-opacity"/>
</g>
<defs>
<clipPath id="clip0_245_2988">
<rect width="28.0469" height="23.3741" fill="white" style="fill:white;fill-opacity:1;" transform="translate(0.476547 0.312988)"/>
</clipPath>
</defs>
</svg>
