<svg width="29" height="16" viewBox="0 0 29 16" fill="none" xmlns="http://www.w3.org/2000/svg">
<g clip-path="url(#clip0_245_2983)">
<path d="M14.3242 12.3701C16.1894 12.3701 18.1327 15.5146 21.8437 15.5146C25.4472 15.5146 28.162 12.2431 28.162 7.94629C28.162 0.905273 21.9609 0.124023 14.3242 0.124023C6.67772 0.124023 0.476547 0.91504 0.476547 7.94629C0.476547 12.2431 3.19139 15.5146 6.79491 15.5146C10.5058 15.5146 12.4492 12.3701 14.3242 12.3701ZM14.3242 10.7978C11.5019 10.7978 10.2129 13.9424 6.79491 13.9424C3.91405 13.9424 2.04882 11.6572 2.04882 7.94629C2.04882 2.28222 6.84374 1.69629 14.3242 1.69629C21.7949 1.69629 26.5898 2.27246 26.5898 7.94629C26.5898 11.6572 24.7245 13.9424 21.8437 13.9424C18.4257 13.9424 17.1367 10.7978 14.3242 10.7978Z" fill="currentColor" stroke="none" fill-opacity="context-fill-opacity"/>
<path d="M14.3242 10.7978C11.5019 10.7978 10.2129 13.9424 6.79491 13.9424C3.91405 13.9424 2.04882 11.6572 2.04882 7.94629C2.04882 2.28222 6.84374 1.69629 14.3242 1.69629C21.7949 1.69629 26.5898 2.27246 26.5898 7.94629C26.5898 11.6572 24.7245 13.9424 21.8437 13.9424C18.4257 13.9424 17.1367 10.7978 14.3242 10.7978Z" fill="#482615" fill-opacity="0.2125" style="fill:#482615;fill:color(display-p3 0.2824 0.1490 0.0824);fill-opacity:0.2125;"/>
</g>
<defs>
<clipPath id="clip0_245_2983">
<rect width="28.0469" height="15.752" fill="white" style="fill:white;fill-opacity:1;" transform="translate(0.476547 0.124023)"/>
</clipPath>
</defs>
</svg>
