<svg width="21" height="20" viewBox="0 0 21 20" fill="none" xmlns="http://www.w3.org/2000/svg">
<g clip-path="url(#clip0_341_887)">
<path d="M0.778297 8.15918C0.778297 12.456 4.27439 15.9521 8.57127 15.9521C10.2705 15.9521 11.8232 15.4053 13.1025 14.4873L17.9072 19.3017C18.1318 19.5264 18.4248 19.6338 18.7373 19.6338C19.4013 19.6338 19.8603 19.1357 19.8603 18.4814C19.8603 18.1689 19.7431 17.8857 19.5381 17.6807L14.7627 12.876C15.7685 11.5674 16.3642 9.93652 16.3642 8.15918C16.3642 3.8623 12.8681 0.366211 8.57127 0.366211C4.27439 0.366211 0.778297 3.8623 0.778297 8.15918ZM2.44822 8.15918C2.44822 4.78027 5.19236 2.03613 8.57127 2.03613C11.9502 2.03613 14.6943 4.78027 14.6943 8.15918C14.6943 11.5381 11.9502 14.2822 8.57127 14.2822C5.19236 14.2822 2.44822 11.5381 2.44822 8.15918ZM5.13377 7.75879C5.13377 8.28613 5.69041 8.35449 5.97361 8.08105L6.79392 7.27051L9.42088 9.89746L8.57127 10.7275C8.26853 11.0205 8.36619 11.5674 8.89353 11.5674H11.4228C11.7744 11.5674 11.9697 11.3428 11.9697 10.9424V8.54004C11.9697 8.01269 11.4131 7.94433 11.1299 8.21777L10.3193 9.01855L7.69236 6.3916L8.53221 5.57129C8.83494 5.27832 8.73728 4.73144 8.20994 4.73144H5.68064C5.32908 4.73144 5.13377 4.95605 5.13377 5.35644V7.75879Z" fill="currentColor" stroke="none" fill-opacity="context-fill-opacity"/>
</g>
<defs>
<clipPath id="clip0_341_887">
<rect width="19.4434" height="19.2676" fill="white" style="fill:white;fill-opacity:1;" transform="translate(0.778297 0.366211)"/>
</clipPath>
</defs>
</svg>
