<svg width="20" height="20" viewBox="0 0 20 20" fill="none" xmlns="http://www.w3.org/2000/svg">
<path d="M3.9999 4.5C3.9999 3.11929 5.11919 2 6.4999 2H13.4999C14.8806 2 15.9999 3.11929 15.9999 4.5V17.5C15.9999 17.6881 15.8944 17.8602 15.7268 17.9456C15.5592 18.0309 15.3579 18.015 15.2058 17.9044L9.9999 14.1182L4.79399 17.9044C4.64189 18.015 4.4406 18.0309 4.27301 17.9456C4.10543 17.8602 3.9999 17.6881 3.9999 17.5V4.5ZM6.4999 3C5.67147 3 4.9999 3.67157 4.9999 4.5V16.5181L9.70582 13.0956C9.88114 12.9681 10.1187 12.9681 10.294 13.0956L14.9999 16.5181V4.5C14.9999 3.67157 14.3283 3 13.4999 3H6.4999Z" fill="currentColor" stroke="none" fill-opacity="context-fill-opacity"/>
</svg>
