<svg width="20" height="20" viewBox="0 0 20 20" fill="none" xmlns="http://www.w3.org/2000/svg">
<path d="M10 6.00003C7.79086 6.00003 6 7.79089 6 10C6 12.2092 7.79086 14 10 14C12.2091 14 14 12.2092 14 10C14 7.79089 12.2091 6.00003 10 6.00003ZM7 10C7 8.34318 8.34315 7.00003 10 7.00003C11.6569 7.00003 13 8.34318 13 10C13 11.6569 11.6569 13 10 13C8.34315 13 7 11.6569 7 10ZM8.12394 2C7.55688 2 7.0383 2.31977 6.78367 2.82643L6.19418 3.9994H4.5047C3.12399 3.9994 2.0047 5.11868 2.0047 6.4994V14.5C2.0047 15.8807 3.12399 17 4.5047 17H15.5047C16.8854 17 18.0047 15.8807 18.0047 14.5V6.4994C18.0047 5.11869 16.8854 3.9994 15.5047 3.9994H13.8148L13.2298 2.8293C12.9758 2.32106 12.4563 2 11.8881 2H8.12394ZM7.67718 3.27548C7.76206 3.10659 7.93492 3 8.12394 3H11.8881C12.0775 3 12.2507 3.10702 12.3354 3.27643L13.0585 4.72296C13.1432 4.89238 13.3163 4.9994 13.5057 4.9994H15.5047C16.3331 4.9994 17.0047 5.67097 17.0047 6.4994V14.5C17.0047 15.3284 16.3331 16 15.5047 16H4.5047C3.67627 16 3.0047 15.3284 3.0047 14.5V6.4994C3.0047 5.67097 3.67627 4.9994 4.5047 4.9994H6.50249C6.69151 4.9994 6.86437 4.89281 6.94925 4.72392L7.67718 3.27548Z" fill="currentColor" stroke="none" fill-opacity="context-fill-opacity"/>
</svg>
