<svg width="20" height="20" viewBox="0 0 20 20" fill="none" xmlns="http://www.w3.org/2000/svg">
<path d="M8.99994 6.5C8.99994 4.01472 11.0147 2 13.4999 2C14.1593 2 14.7868 2.14214 15.3524 2.39792C15.502 2.46556 15.6089 2.60232 15.6383 2.76381C15.6678 2.92531 15.616 3.09097 15.5 3.20705L13.207 5.49998L14.5 6.79287L16.7929 4.49998C16.909 4.3839 17.0746 4.33219 17.2361 4.36164C17.3976 4.39108 17.5344 4.49793 17.602 4.6475C17.8578 5.2131 17.9999 5.84062 17.9999 6.5C17.9999 8.98528 15.9852 11 13.4999 11C13.1193 11 12.7492 10.9526 12.3954 10.8633L6.03058 17.3113C5.18308 18.1698 3.82415 18.25 2.88158 17.497C1.79647 16.6302 1.69215 15.0178 2.6565 14.0184L9.08195 7.35911C9.02809 7.08069 8.99994 6.79343 8.99994 6.5ZM13.4999 3C11.5669 3 9.99994 4.567 9.99994 6.5C9.99994 6.80674 10.0393 7.10354 10.1129 7.38597C10.1569 7.55458 10.1099 7.73392 9.98891 7.85931L3.37613 14.7127C2.82086 15.2882 2.88093 16.2166 3.50573 16.7157C4.04845 17.1493 4.83091 17.1031 5.3189 16.6088L11.8927 9.94909C12.0261 9.81397 12.2245 9.76605 12.4048 9.8254C12.7487 9.93857 13.1166 10 13.4999 10C15.4329 10 16.9999 8.433 16.9999 6.5C16.9999 6.25328 16.9745 6.01282 16.9261 5.78097L14.8536 7.85352C14.6583 8.04878 14.3417 8.04879 14.1465 7.85353L12.1464 5.85355C12.0526 5.75979 11.9999 5.63261 11.9999 5.5C11.9999 5.36739 12.0526 5.24021 12.1464 5.14644L14.219 3.07383C13.9871 3.02545 13.7467 3 13.4999 3Z" fill="currentColor" stroke="none" fill-opacity="context-fill-opacity"/>
</svg>
