<svg width="20" height="20" viewBox="0 0 20 20" fill="none" xmlns="http://www.w3.org/2000/svg">
<path d="M7.5 10.5556C7.80683 10.5556 8.05556 10.3068 8.05556 10C8.05556 9.69319 7.80683 9.44446 7.5 9.44446C7.19318 9.44446 6.94444 9.69319 6.94444 10C6.94444 10.3068 7.19318 10.5556 7.5 10.5556Z" fill="#482615" stroke="#482615" style="fill:#482615;fill:color(display-p3 0.2824 0.1490 0.0824);fill-opacity:1;stroke:#482615;stroke:color(display-p3 0.2824 0.1490 0.0824);stroke-opacity:1;" stroke-width="1.66667" stroke-linecap="round" stroke-linejoin="round"/>
<path d="M7.5 4.7222C7.80683 4.7222 8.05556 4.47346 8.05556 4.16664C8.05556 3.85981 7.80683 3.61108 7.5 3.61108C7.19318 3.61108 6.94444 3.85981 6.94444 4.16664C6.94444 4.47346 7.19318 4.7222 7.5 4.7222Z" fill="#482615" stroke="#482615" style="fill:#482615;fill:color(display-p3 0.2824 0.1490 0.0824);fill-opacity:1;stroke:#482615;stroke:color(display-p3 0.2824 0.1490 0.0824);stroke-opacity:1;" stroke-width="1.66667" stroke-linecap="round" stroke-linejoin="round"/>
<path d="M7.5 16.3889C7.80683 16.3889 8.05556 16.1402 8.05556 15.8334C8.05556 15.5266 7.80683 15.2778 7.5 15.2778C7.19318 15.2778 6.94444 15.5266 6.94444 15.8334C6.94444 16.1402 7.19318 16.3889 7.5 16.3889Z" fill="#482615" stroke="#482615" style="fill:#482615;fill:color(display-p3 0.2824 0.1490 0.0824);fill-opacity:1;stroke:#482615;stroke:color(display-p3 0.2824 0.1490 0.0824);stroke-opacity:1;" stroke-width="1.66667" stroke-linecap="round" stroke-linejoin="round"/>
<path d="M12.5 10.5556C12.8068 10.5556 13.0556 10.3068 13.0556 10C13.0556 9.69319 12.8068 9.44446 12.5 9.44446C12.1932 9.44446 11.9444 9.69319 11.9444 10C11.9444 10.3068 12.1932 10.5556 12.5 10.5556Z" fill="#482615" stroke="#482615" style="fill:#482615;fill:color(display-p3 0.2824 0.1490 0.0824);fill-opacity:1;stroke:#482615;stroke:color(display-p3 0.2824 0.1490 0.0824);stroke-opacity:1;" stroke-width="1.66667" stroke-linecap="round" stroke-linejoin="round"/>
<path d="M12.5 4.7222C12.8068 4.7222 13.0556 4.47346 13.0556 4.16664C13.0556 3.85981 12.8068 3.61108 12.5 3.61108C12.1932 3.61108 11.9444 3.85981 11.9444 4.16664C11.9444 4.47346 12.1932 4.7222 12.5 4.7222Z" fill="#482615" stroke="#482615" style="fill:#482615;fill:color(display-p3 0.2824 0.1490 0.0824);fill-opacity:1;stroke:#482615;stroke:color(display-p3 0.2824 0.1490 0.0824);stroke-opacity:1;" stroke-width="1.66667" stroke-linecap="round" stroke-linejoin="round"/>
<path d="M12.5 16.3889C12.8068 16.3889 13.0556 16.1402 13.0556 15.8334C13.0556 15.5266 12.8068 15.2778 12.5 15.2778C12.1932 15.2778 11.9444 15.5266 11.9444 15.8334C11.9444 16.1402 12.1932 16.3889 12.5 16.3889Z" fill="#482615" stroke="#482615" style="fill:#482615;fill:color(display-p3 0.2824 0.1490 0.0824);fill-opacity:1;stroke:#482615;stroke:color(display-p3 0.2824 0.1490 0.0824);stroke-opacity:1;" stroke-width="1.66667" stroke-linecap="round" stroke-linejoin="round"/>
</svg>
