<svg width="20" height="20" viewBox="0 0 20 20" fill="none" xmlns="http://www.w3.org/2000/svg">
<path d="M9.75 6.5C10.1642 6.5 10.5 6.16421 10.5 5.75C10.5 5.33579 10.1642 5 9.75 5C9.33579 5 9 5.33579 9 5.75C9 6.16421 9.33579 6.5 9.75 6.5ZM12.75 7.5C13.1642 7.5 13.5 7.16421 13.5 6.75C13.5 6.33579 13.1642 6 12.75 6C12.3358 6 12 6.33579 12 6.75C12 7.16421 12.3358 7.5 12.75 7.5ZM15.25 9C15.25 9.41421 14.9142 9.75 14.5 9.75C14.0858 9.75 13.75 9.41421 13.75 9C13.75 8.58579 14.0858 8.25 14.5 8.25C14.9142 8.25 15.25 8.58579 15.25 9ZM14.5 12.75C14.9142 12.75 15.25 12.4142 15.25 12C15.25 11.5858 14.9142 11.25 14.5 11.25C14.0858 11.25 13.75 11.5858 13.75 12C13.75 12.4142 14.0858 12.75 14.5 12.75ZM13.25 14C13.25 14.4142 12.9142 14.75 12.5 14.75C12.0858 14.75 11.75 14.4142 11.75 14C11.75 13.5858 12.0858 13.25 12.5 13.25C12.9142 13.25 13.25 13.5858 13.25 14ZM13.6972 2.99169C10.9426 1.57663 8.14317 1.7124 5.77004 3.16636C4.55906 3.9083 3.25328 5.46925 2.51602 7.05899C2.14539 7.85816 1.89912 8.70492 1.90234 9.49318C1.90562 10.2941 2.1698 11.0587 2.84036 11.6053C3.45055 12.1026 3.98162 12.353 4.49571 12.3784C5.01372 12.404 5.41801 12.1942 5.73426 12.0076C5.80379 11.9666 5.86888 11.927 5.9311 11.8892C6.17329 11.7421 6.37202 11.6214 6.62046 11.5426C6.90188 11.4534 7.25817 11.4205 7.77576 11.5787C7.96658 11.637 8.08158 11.7235 8.16209 11.8229C8.24789 11.9289 8.31659 12.0774 8.36784 12.2886C8.41952 12.5016 8.44764 12.7527 8.46865 13.0491C8.47648 13.1594 8.48376 13.2855 8.49139 13.4176C8.50249 13.6098 8.51434 13.8149 8.52971 14.0037C8.58432 14.6744 8.69968 15.4401 9.10359 16.1357C9.51761 16.8488 10.2047 17.439 11.307 17.8158C12.9092 18.3636 14.3731 17.9191 15.5126 17.0169C16.6391 16.125 17.4691 14.7761 17.8841 13.4272C19.199 9.15377 17.6728 5.03394 13.6972 2.99169ZM6.29246 4.01905C8.35683 2.75426 10.7844 2.61959 13.2403 3.88119C16.7473 5.68275 18.1134 9.28161 16.9284 13.1332C16.5624 14.3227 15.8338 15.4871 14.8918 16.2329C13.9629 16.9684 12.8486 17.286 11.6305 16.8696C10.7269 16.5607 10.2467 16.1129 9.96839 15.6336C9.67998 15.1369 9.57796 14.5556 9.52641 13.9225C9.51098 13.733 9.50129 13.5621 9.49144 13.3884C9.48396 13.2564 9.47639 13.1229 9.46615 12.9783C9.44421 12.669 9.41172 12.3499 9.33965 12.0529C9.26716 11.7541 9.14899 11.4527 8.93932 11.1937C8.72436 10.9282 8.43529 10.7346 8.06798 10.6223C7.36645 10.408 6.80263 10.4359 6.31836 10.5893C5.94328 10.7082 5.62013 10.9061 5.37176 11.0582C5.31989 11.0899 5.27127 11.1197 5.22613 11.1463C4.94091 11.3146 4.75354 11.39 4.54511 11.3796C4.33276 11.3691 4.00259 11.2625 3.47215 10.8301C3.08657 10.5158 2.9047 10.0668 2.90234 9.48908C2.89992 8.89865 3.08839 8.20165 3.42321 7.47971C4.09683 6.0272 5.28468 4.63649 6.29246 4.01905Z" fill="currentColor" stroke="none" fill-opacity="context-fill-opacity"/>
</svg>
