<svg width="20" height="20" viewBox="0 0 20 20" fill="none" xmlns="http://www.w3.org/2000/svg">
<path d="M6.17082 4.27639C6.25552 4.107 6.42865 4 6.61803 4H13.382C13.5714 4 13.7445 4.107 13.8292 4.27639L15.0528 6.72361C15.1763 6.9706 15.4766 7.07071 15.7236 6.94721C15.9706 6.82372 16.0707 6.52338 15.9472 6.27639L14.7236 3.82918C14.4695 3.321 13.9501 3 13.382 3H6.61803C6.04988 3 5.53048 3.321 5.27639 3.82918L4.05279 6.27639C3.92929 6.52338 4.0294 6.82372 4.27639 6.94721C4.52338 7.07071 4.82372 6.9706 4.94721 6.72361L6.17082 4.27639ZM17.4178 8.99322C11.4722 8.00227 8.52778 8.00226 2.5822 8.99322C2.30982 9.03862 2.0522 8.85461 2.0068 8.58223C1.9614 8.30984 2.14541 8.05223 2.4178 8.00683C8.47222 6.99772 11.5278 6.99773 17.5822 8.00683C17.8546 8.05223 18.0386 8.30984 17.9932 8.58223C17.9478 8.85461 17.6902 9.03862 17.4178 8.99322ZM5.5 11C4.11929 11 3 12.1193 3 13.5C3 14.8807 4.11929 16 5.5 16C6.88071 16 8 14.8807 8 13.5C8 12.1193 6.88071 11 5.5 11ZM2 13.5C2 11.567 3.567 10 5.5 10C7.26324 10 8.72194 11.3039 8.96456 13H11.0354C11.2781 11.3039 12.7368 10 14.5 10C16.433 10 18 11.567 18 13.5C18 15.433 16.433 17 14.5 17C12.7368 17 11.2781 15.6961 11.0354 14H8.96456C8.72194 15.6961 7.26324 17 5.5 17C3.567 17 2 15.433 2 13.5ZM14.5 11C13.1193 11 12 12.1193 12 13.5C12 14.8807 13.1193 16 14.5 16C15.8807 16 17 14.8807 17 13.5C17 12.1193 15.8807 11 14.5 11Z" fill="currentColor" stroke="none" fill-opacity="context-fill-opacity"/>
</svg>
