<svg width="20" height="20" viewBox="0 0 20 20" fill="none" xmlns="http://www.w3.org/2000/svg">
<path d="M1.91073 7.38266C2.28002 6.24053 2.88837 5.19213 3.69107 4.30364C3.82681 4.15339 4.03977 4.09984 4.23043 4.16802L6.14871 4.85392C6.66879 5.03977 7.24105 4.76883 7.42691 4.24875C7.44518 4.19762 7.45926 4.14507 7.46899 4.09173L7.83445 2.08573C7.87079 1.88627 8.02396 1.7285 8.22226 1.6863C8.80245 1.5628 9.39733 1.5 10 1.5C10.6023 1.5 11.1968 1.56273 11.7767 1.68607C11.9749 1.72824 12.1281 1.88591 12.1645 2.08529L12.531 4.09165C12.6301 4.63497 13.1509 4.9951 13.6942 4.89601C13.7476 4.88627 13.8001 4.87219 13.8512 4.85395L15.7696 4.16802C15.9602 4.09984 16.1732 4.15339 16.3089 4.30364C17.1116 5.19213 17.72 6.24053 18.0893 7.38266C18.1516 7.57534 18.0915 7.78658 17.9371 7.91764L16.3823 9.23773C15.9613 9.5952 15.9098 10.2263 16.2673 10.6473C16.3024 10.6887 16.3409 10.7271 16.3823 10.7623L17.9371 12.0824C18.0915 12.2134 18.1516 12.4247 18.0893 12.6173C17.72 13.7595 17.1116 14.8079 16.3089 15.6964C16.1732 15.8466 15.9602 15.9002 15.7696 15.832L13.8513 15.1461C13.3312 14.9602 12.7589 15.2312 12.5731 15.7512C12.5548 15.8024 12.5407 15.8549 12.531 15.9085L12.1645 17.9147C12.1281 18.1141 11.9749 18.2718 11.7767 18.3139C11.1968 18.4373 10.6023 18.5 10 18.5C9.39733 18.5 8.80245 18.4372 8.22226 18.3137C8.02396 18.2715 7.87079 18.1137 7.83445 17.9143L7.469 15.9084C7.36992 15.365 6.84914 15.0049 6.30582 15.104C6.2524 15.1137 6.19985 15.1278 6.1488 15.1461L4.23043 15.832C4.03977 15.9002 3.82681 15.8466 3.69107 15.6964C2.88837 14.8079 2.28002 13.7595 1.91073 12.6173C1.84843 12.4247 1.90851 12.2134 2.06288 12.0824L3.61772 10.7623C4.03871 10.4048 4.0902 9.77373 3.73273 9.35274C3.69758 9.31135 3.65911 9.27288 3.61774 9.23775L2.06288 7.91764C1.90851 7.78658 1.84843 7.57534 1.91073 7.38266ZM2.97128 7.37709L4.26498 8.47546C4.34777 8.54576 4.4247 8.62269 4.495 8.70548C5.20994 9.54746 5.10696 10.8096 4.26495 11.5246L2.97128 12.6229C3.26333 13.4051 3.68478 14.1322 4.21622 14.7751L5.8122 14.2044C5.91448 14.1679 6.01956 14.1397 6.12641 14.1202C7.21306 13.922 8.25461 14.6423 8.45279 15.729L8.75676 17.3975C9.16463 17.4655 9.57999 17.5 10 17.5C10.4197 17.5 10.8348 17.4656 11.2424 17.3976L11.5472 15.7289C11.5667 15.6221 11.5949 15.517 11.6314 15.4147C12.0031 14.3746 13.1477 13.8327 14.1879 14.2044L15.7838 14.7751C16.3152 14.1322 16.7367 13.4051 17.0287 12.6229L15.735 11.5245C15.6522 11.4542 15.5753 11.3773 15.505 11.2945C14.7901 10.4525 14.893 9.1904 15.735 8.47544L17.0287 7.37709C16.7367 6.59486 16.3152 5.86783 15.7838 5.22494L14.1878 5.79559C14.0855 5.83214 13.9804 5.8603 13.8736 5.87979C12.7869 6.07796 11.7454 5.3577 11.5472 4.27119L11.2424 2.60235C10.8348 2.53443 10.4197 2.5 10 2.5C9.57999 2.5 9.16463 2.53448 8.75676 2.60249L8.45278 4.27105C8.43329 4.37791 8.40514 4.48299 8.36859 4.58527C7.99688 5.62542 6.85235 6.1673 5.81211 5.79556L4.21622 5.22494C3.68478 5.86783 3.26333 6.59486 2.97128 7.37709ZM7.5 10C7.5 8.61929 8.61929 7.5 10 7.5C11.3807 7.5 12.5 8.61929 12.5 10C12.5 11.3807 11.3807 12.5 10 12.5C8.61929 12.5 7.5 11.3807 7.5 10ZM8.5 10C8.5 10.8284 9.17157 11.5 10 11.5C10.8284 11.5 11.5 10.8284 11.5 10C11.5 9.17157 10.8284 8.5 10 8.5C9.17157 8.5 8.5 9.17157 8.5 10Z" fill="currentColor" stroke="none" fill-opacity="context-fill-opacity"/>
</svg>
