<svg width="20" height="20" viewBox="0 0 20 20" fill="none" xmlns="http://www.w3.org/2000/svg">
<path d="M13.4101 6.99194C13.1769 6.94961 13 6.74546 13 6.5C13 6.22386 13.2239 6 13.5 6H15.5L15.5899 6.00806C15.8231 6.05039 16 6.25454 16 6.5C16 6.77614 15.7761 7 15.5 7H13.5L13.4101 6.99194ZM13.4101 9.99194C13.1769 9.94961 13 9.74546 13 9.5C13 9.22386 13.2239 9 13.5 9H15.5L15.5899 9.00806C15.8231 9.05039 16 9.25454 16 9.5C16 9.77614 15.7761 10 15.5 10H13.5L13.4101 9.99194ZM13.4101 12.9919C13.1769 12.9496 13 12.7455 13 12.5C13 12.2239 13.2239 12 13.5 12H15.5L15.5899 12.0081C15.8231 12.0504 16 12.2545 16 12.5C16 12.7761 15.7761 13 15.5 13H13.5L13.4101 12.9919ZM15 3C16.6569 3 18 4.34315 18 6V13C18 14.6569 16.6569 16 15 16H5C3.34315 16 2 14.6569 2 13V6C2 4.34315 3.34315 3 5 3H15ZM5 15H11V4H5C3.89543 4 3 4.89543 3 6V13C3 14.1046 3.89543 15 5 15ZM15 4H12V15H15C16.1046 15 17 14.1046 17 13V6C17 4.89543 16.1046 4 15 4Z" fill="currentColor" stroke="none" fill-opacity="context-fill-opacity"/>
</svg>
