<svg width="20" height="20" viewBox="0 0 20 20" fill="none" xmlns="http://www.w3.org/2000/svg">
<path d="M4.07616 4.21649C4.78409 4.00914 5.77942 3.88471 6.92028 4.21664L6.92136 4.21695C7.93342 4.51387 8.48142 5.11698 8.7532 5.78501C9.00595 6.40627 9.0058 7.05477 9.0057 7.44659L9.0057 12.5C9.0057 12.7761 8.78184 13.0007 8.5057 13.0007C8.22956 13.0007 8.0057 12.7768 8.0057 12.5007V11.9672C7.69572 12.1601 7.3403 12.3547 6.9599 12.5219C6.18016 12.8646 5.22351 13.1237 4.31803 12.9356C3.14925 12.6927 2.35713 11.8259 2.07014 10.8537C1.78345 9.88255 1.98877 8.75084 2.87738 8.01176C3.8874 7.17169 5.04808 6.96529 6.08385 7.00818C6.79336 7.03755 7.46199 7.18481 8.00531 7.33317C8.0026 6.95825 7.98173 6.54236 7.82692 6.16185C7.66747 5.76992 7.35305 5.3859 6.64043 5.17668C5.72242 4.90971 4.92619 5.00953 4.35724 5.17617C4.07228 5.25963 3.84612 5.35945 3.69373 5.43678C3.6177 5.47536 3.56057 5.50808 3.52423 5.52992C3.50608 5.54083 3.49318 5.54899 3.48576 5.55378L3.4788 5.55833L3.47963 5.55776C3.25207 5.71386 2.94134 5.65588 2.78502 5.42841C2.62863 5.20082 2.68634 4.88954 2.91393 4.73315L2.91566 4.73196L2.91797 4.7304L2.92429 4.72615L2.9437 4.71344C2.95962 4.70317 2.98147 4.68941 3.00903 4.67285C3.0641 4.63974 3.14215 4.5953 3.24121 4.54503C3.439 4.44466 3.72264 4.32003 4.07616 4.21649ZM6.04249 8.00732C5.16917 7.97116 4.27958 8.14618 3.51683 8.78058C2.98777 9.22062 2.83491 9.91237 3.02922 10.5706C3.22322 11.2278 3.75127 11.7964 4.52148 11.9565C5.12729 12.0824 5.85264 11.9162 6.55757 11.6064C7.13927 11.3508 7.65814 11.0189 8.0057 10.7577V8.37278C7.44769 8.20973 6.76366 8.03718 6.04249 8.00732ZM14.4703 6.66746C14.5624 6.40715 14.4261 6.12142 14.1657 6.02928C13.9054 5.93714 13.6197 6.07347 13.5276 6.33378C13.3506 6.83371 13.1599 7.55505 13.056 7.97614C12.5635 8.00833 12.0627 8.00989 11.5326 7.97414C11.2571 7.95557 11.0186 8.16386 11.0001 8.43937C10.9815 8.71489 11.1898 8.9533 11.4653 8.97188C11.9397 9.00387 12.392 9.00816 12.8326 8.98952C12.7193 9.55955 12.6381 10.074 12.5842 10.5409C11.418 11.1184 10.6646 11.9654 10.2849 12.8418C9.84301 13.8617 9.88857 15.0059 10.5334 15.6948C10.9624 16.1523 11.5936 16.2167 12.1699 16.0841C12.5899 15.9875 13.0274 15.78 13.4474 15.4808C13.4771 15.5469 13.506 15.6144 13.5343 15.6855C13.6364 15.9421 13.9272 16.0673 14.1838 15.9652C14.4404 15.8631 14.5656 15.5723 14.4635 15.3157C14.3952 15.1442 14.312 14.9662 14.2284 14.7932C15.0204 13.9472 15.6823 12.7243 15.9123 11.1869C16.677 11.4498 17.1868 11.9846 17.4051 12.5743C17.7907 13.6153 17.3699 15.1219 15.296 16.0437C15.0436 16.1558 14.93 16.4513 15.0421 16.7037C15.1543 16.956 15.4498 17.0697 15.7021 16.9575C18.1281 15.8793 18.9573 13.886 18.3429 12.227C17.9775 11.2405 17.1386 10.479 15.9973 10.1693C15.9985 10.1134 15.999 10.0572 15.999 10.0006C15.999 9.72447 15.7752 9.50061 15.499 9.50061C15.2229 9.50061 14.999 9.72447 14.999 10.0006L14.999 10.0214C14.5732 10.0061 14.1196 10.0466 13.6445 10.1508C13.7008 9.77145 13.7753 9.35715 13.8711 8.90344C14.6095 8.8135 15.3384 8.66682 16.1118 8.48771C16.3808 8.4254 16.5483 8.1568 16.486 7.88778C16.4237 7.61876 16.1551 7.45119 15.8861 7.51349C15.2659 7.65714 14.6871 7.77648 14.1172 7.86108C14.2176 7.47771 14.3495 7.00849 14.4703 6.66746ZM11.2025 13.2393C11.4264 12.7226 11.843 12.1827 12.5004 11.7417C12.4893 12.3749 12.5399 12.9002 12.6307 13.3537C12.7266 13.833 12.8652 14.2206 13.0115 14.5583C12.6305 14.8577 12.2572 15.0379 11.9457 15.1096C11.5618 15.1979 11.3567 15.1106 11.2632 15.0111C10.9875 14.7166 10.8536 14.0445 11.2025 13.2393ZM14.9265 11.0169C14.7584 12.1671 14.3154 13.0962 13.7802 13.7803C13.715 13.5919 13.6572 13.3874 13.6112 13.1574C13.514 12.6716 13.4657 12.0551 13.5244 11.2227C13.5641 11.2079 13.6044 11.1934 13.6451 11.1792C14.1105 11.0566 14.5384 11.0074 14.9265 11.0169Z" fill="currentColor" stroke="none" fill-opacity="context-fill-opacity"/>
</svg>
